<?xml version="1.0" encoding="utf-8"?>
<!-- Generator: Adobe Illustrator 18.0.0, SVG Export Plug-In . SVG Version: 6.00 Build 0)  -->
<!DOCTYPE svg PUBLIC "-//W3C//DTD SVG 1.1//EN" "http://www.w3.org/Graphics/SVG/1.1/DTD/svg11.dtd">
<svg version="1.1" id="Layer_1" xmlns="http://www.w3.org/2000/svg" xmlns:xlink="http://www.w3.org/1999/xlink" x="0px" y="0px"
	 viewBox="0 0 512 512" enable-background="new 0 0 512 512" xml:space="preserve">
<g>
	<circle fill="#54C0EB" cx="256" cy="256" r="252.5"/>
	<g>
		<path fill="#324A5E" d="M391.5,240.7c-10.6-12.1-17.5-26.7-22-42c-12.2-41-46.4-72.6-89.1-81.4c0-0.8,0.1-1.6,0.1-2.5
			c0-2.5-0.3-5-0.7-7.5c-0.2-2.4-1-4.7-1.5-6.9c-0.5-2.2-1.4-4.2-2.1-6.1c-0.6-1.9-1.6-3.6-2.4-5.1c-0.9-1.5-1.5-2.9-2.3-4.1
			c-0.8-1.1-1.5-2.1-2-2.9c-1.1-1.6-1.8-2.5-1.8-2.5s0.1,1.1,0.2,3c0.1,0.9,0.1,2.1,0.2,3.4c0.1,1.3-0.1,2.8-0.1,4.3
			c-0.1,1.6-0.1,3.2-0.5,5c-0.4,1.7-0.5,3.5-1.2,5.3c-0.2,0.6-0.4,1.2-0.6,1.8c-0.2-1-0.4-2-0.6-3c-0.4-2.6-1.5-5.1-2.2-7.4
			c-0.7-2.3-1.7-4.4-2.6-6.3c-0.9-1.9-1.6-3.6-2.5-5c-0.9-1.4-1.7-2.6-2.3-3.6c-1.3-2-2-3.1-2-3.1s0.2,1.3,0.5,3.6
			c0.1,1.1,0.3,2.5,0.5,4.1c0.2,1.5,0.1,3.4,0.1,5.3c0,1.9,0.1,3.9-0.3,6.1c-0.4,2.1-0.4,4.3-1.1,6.6c-0.5,1.8-0.9,3.5-1.5,5.3
			c-0.3-0.4-0.5-0.8-0.8-1.2c-1.4-2-3.1-3.8-4.8-5.6c-1.5-1.8-3.5-3.2-5.1-4.7c-1.6-1.5-3.6-2.6-5.1-3.7c-1.6-1.2-3.3-2-4.8-2.8
			c-1.5-0.7-2.8-1.5-4.1-2c-1.3-0.5-2.4-0.9-3.3-1.2c-1.8-0.7-2.8-1-2.8-1s0.7,0.8,1.8,2.3c0.6,0.7,1.3,1.6,2,2.6
			c0.8,1,1.5,2.3,2.3,3.6c0.8,1.3,1.7,2.7,2.3,4.3c0.6,1.6,1.5,3.1,2,4.9c0.5,1.8,1.2,3.4,1.4,5.3c0.3,1.8,0.7,3.6,0.7,5.4
			c0.2,2,0.2,3.9,0.1,5.7c-43.6,8.3-78.7,40.2-91.1,81.9c-4.5,15.3-11.4,29.9-22,42c-17.7,20.2-28,44.5-28,70.8
			c0,69.8,73.2,126.4,163.6,126.4c90.3,0,163.6-56.6,163.6-126.4C419.5,285.2,409.2,260.9,391.5,240.7z"/>
		<path fill="#E6E9EE" d="M419.6,311.4c0,30.1-13.6,57.8-36.4,79.5c-30,28.6-75.8,47-127.2,47c-51.3,0-97.2-18.3-127.1-46.9
			c-22.8-21.7-36.4-49.4-36.4-79.6c0-26.2,10.3-50.5,28-70.7c10.6-12.1,17.4-26.7,22-42c12.3-41.6,47.4-73.5,91.1-81.9
			c0.1-1.9,0.1-3.8-0.1-5.7c-0.1-1.9-0.5-3.6-0.8-5.4c-0.2-1.9-0.9-3.5-1.4-5.3c-0.5-1.8-1.4-3.3-2-4.9c-0.7-1.6-1.5-3-2.3-4.2
			c-0.8-1.3-1.4-2.6-2.3-3.6c-0.8-1-1.4-1.9-2-2.6c-1.1-1.5-1.8-2.4-1.8-2.4s1,0.4,2.8,1c0.9,0.4,2,0.7,3.3,1.3
			c1.3,0.4,2.6,1.3,4.2,2c1.5,0.7,3.2,1.6,4.8,2.7c1.6,1.2,3.6,2.2,5.2,3.7c1.7,1.5,3.6,3,5.1,4.7c1.6,1.7,3.3,3.6,4.8,5.6
			c0.3,0.4,0.5,0.8,0.8,1.2c0.5-1.7,0.9-3.5,1.4-5.3c0.7-2.2,0.7-4.4,1.1-6.5c0.4-2.2,0.3-4.2,0.3-6.1c-0.1-1.9,0.2-3.8-0.2-5.3
			c-0.2-1.6-0.3-3-0.5-4.1c-0.3-2.3-0.5-3.6-0.5-3.6s0.8,1.1,2,3.1c0.7,1,1.4,2.2,2.3,3.6c0.9,1.4,1.6,3.1,2.5,5
			c0.9,1.9,2,3.9,2.7,6.3c0.7,2.3,1.7,4.7,2.2,7.3c0.2,1,0.4,2,0.6,3c0.2-0.6,0.4-1.2,0.6-1.8c0.7-1.8,0.8-3.6,1.1-5.3
			c0.5-1.7,0.5-3.4,0.5-5c0.1-1.6,0.3-3,0.2-4.3c-0.1-1.3-0.2-2.4-0.2-3.4c-0.2-1.9-0.2-3-0.2-3s0.6,0.9,1.7,2.4
			c0.6,0.8,1.3,1.8,2,2.9c0.8,1.2,1.4,2.6,2.3,4.1c0.8,1.6,1.8,3.3,2.4,5.1c0.7,1.9,1.7,3.9,2.1,6.2c0.5,2.2,1.3,4.5,1.5,6.9
			c0.3,2.4,0.7,5,0.6,7.4c0.1,0.9,0,1.7,0,2.5c42.7,8.8,76.9,40.4,89.1,81.4c4.5,15.3,11.4,29.9,22,42
			C409.2,260.9,419.6,285.2,419.6,311.4z"/>
		<path fill="#324A5E" d="M419.6,311.4c0,30.1-13.6,57.8-36.4,79.5c-3.3-5-7.6-9.2-10.2-14.5c-2.5-5-3.3-10.7-3.8-16.3
			c-2.6-27.5-0.1-55.2-1.9-82.7c-1.9-27.6-8.7-56-27-77c-7.1-8.2-16.8-15.3-27.8-15.1c-8.1,0.1-15.8,4.5-21.1,10.5
			c-6.4,7.1-9.7,16.8-9.2,26.2c0.8,12.2,7.5,23.2,15.1,32.8L256,259l-41.4-4.3c7.6-9.6,14.5-20.6,15.1-32.8
			c0.5-9.4-2.8-19.1-9.1-26.2c-5.4-6-13-10.4-21.2-10.5c-10.9-0.1-20.7,7-27.7,15.1c-18.3,21-25.1,49.4-27,77
			c-1.9,27.5,0.6,55.3-2,82.7c-0.5,5.6-1.3,11.2-3.7,16.3c-2.7,5.3-7,9.6-10.2,14.6c-22.8-21.7-36.4-49.4-36.4-79.6
			c0-26.2,10.3-50.5,28-70.7c10.6-12.1,17.4-26.7,22-42c12.3-41.6,47.4-73.5,91.1-81.9c0.1-1.9,0.1-3.8-0.1-5.7
			c-0.1-1.9-0.5-3.6-0.8-5.4c-0.2-1.9-0.9-3.5-1.4-5.3c-0.5-1.8-1.4-3.3-2-4.9c-0.7-1.6-1.5-3-2.3-4.2c-0.8-1.3-1.4-2.6-2.3-3.6
			c-0.8-1-1.4-1.9-2-2.6c-1.1-1.5-1.8-2.4-1.8-2.4s1,0.4,2.8,1c0.9,0.4,2,0.7,3.3,1.3c1.3,0.4,2.6,1.3,4.2,2
			c1.5,0.7,3.2,1.6,4.8,2.7c1.6,1.2,3.6,2.2,5.2,3.7c1.7,1.5,3.6,3,5.1,4.7c1.6,1.7,3.3,3.6,4.8,5.6c0.3,0.4,0.5,0.8,0.8,1.2
			c0.5-1.7,0.9-3.5,1.4-5.3c0.7-2.2,0.7-4.4,1.1-6.5c0.4-2.2,0.3-4.2,0.3-6.1c-0.1-1.9,0.2-3.8-0.2-5.3c-0.2-1.6-0.3-3-0.5-4.1
			c-0.3-2.3-0.5-3.6-0.5-3.6s0.8,1.1,2,3.1c0.7,1,1.4,2.2,2.3,3.6c0.9,1.4,1.6,3.1,2.5,5c0.9,1.9,2,3.9,2.7,6.3
			c0.7,2.3,1.7,4.7,2.2,7.3c0.2,1,0.4,2,0.6,3c0.2-0.6,0.4-1.2,0.6-1.8c0.7-1.8,0.8-3.6,1.1-5.3c0.5-1.7,0.5-3.4,0.5-5
			c0.1-1.6,0.3-3,0.2-4.3c-0.1-1.3-0.2-2.4-0.2-3.4c-0.2-1.9-0.2-3-0.2-3s0.6,0.9,1.7,2.4c0.6,0.8,1.3,1.8,2,2.9
			c0.8,1.2,1.4,2.6,2.3,4.1c0.8,1.6,1.8,3.3,2.4,5.1c0.7,1.9,1.7,3.9,2.1,6.2c0.5,2.2,1.3,4.5,1.5,6.9c0.3,2.4,0.7,5,0.6,7.4
			c0.1,0.9,0,1.7,0,2.5c42.7,8.8,76.9,40.4,89.1,81.4c4.5,15.3,11.4,29.9,22,42C409.2,260.9,419.6,285.2,419.6,311.4z"/>
		<path fill="#FFD05B" d="M268,302.9l-12,7l-12-7c-22.9-13.4-32.8-31.6-29.8-49.1c12.3,2.5,26.5,3.9,41.7,3.9
			c15.2,0,29.4-1.4,41.7-3.9C300.8,271.3,290.9,289.5,268,302.9z"/>
		<g>
			<g>
				<ellipse fill="#FFFFFF" cx="321.8" cy="232.5" rx="21" ry="28.6"/>
				<g>
					<ellipse fill="#84DBFF" cx="321.1" cy="237.4" rx="12.8" ry="17.4"/>
					<ellipse fill="#324A5E" cx="321.9" cy="238.5" rx="8.1" ry="11"/>
					<ellipse fill="#FFFFFF" cx="316.1" cy="231.1" rx="3.2" ry="4.3"/>
				</g>
			</g>
			<g>
				<ellipse fill="#FFFFFF" cx="189.2" cy="232.5" rx="21" ry="28.6"/>
				<g>
					<ellipse fill="#84DBFF" cx="189.9" cy="237.4" rx="12.8" ry="17.4"/>
					<ellipse fill="#324A5E" cx="189.1" cy="238.5" rx="8.1" ry="11"/>
					<ellipse fill="#FFFFFF" cx="194.9" cy="231.1" rx="3.2" ry="4.3"/>
				</g>
			</g>
		</g>
		<path fill="#324A5E" d="M419.6,311.4c0,30.1-13.6,57.8-36.4,79.5c-3.3-5-7.6-9.2-10.2-14.5c-2.5-5-3.3-10.7-3.8-16.3
			c-2.6-27.5-0.1-55.2-1.9-82.7c-1.9-27.6-8.7-56-27-77c-7.1-8.2-16.8-15.3-27.8-15.1c-8.1,0.1-15.8,4.5-21.1,10.5
			c-6.4,7.1-9.7,16.8-9.2,26.2c0.8,12.2,7.5,23.2,15.1,32.8L256,259l-41.4-4.3c7.6-9.6,14.5-20.6,15.1-32.8
			c0.5-9.4-2.8-19.1-9.1-26.2c-5.4-6-13-10.4-21.2-10.5c-10.9-0.1-20.7,7-27.7,15.1c-18.3,21-25.1,49.4-27,77
			c-1.9,27.5,0.6,55.3-2,82.7c-0.5,5.6-1.3,11.2-3.7,16.3c-2.7,5.3-7,9.6-10.2,14.6c-22.8-21.7-36.4-49.4-36.4-79.6
			c0-26.2,10.3-50.5,28-70.7c10.6-12.1,17.4-26.7,22-42c12.3-41.6,47.4-73.5,91.1-81.9c0.1-1.9,0.1-3.8-0.1-5.7
			c-0.1-1.9-0.5-3.6-0.8-5.4c-0.2-1.9-0.9-3.5-1.4-5.3c-0.5-1.8-1.4-3.3-2-4.9c-0.7-1.6-1.5-3-2.3-4.2c-0.8-1.3-1.4-2.6-2.3-3.6
			c-0.8-1-1.4-1.9-2-2.6c-1.1-1.5-1.8-2.4-1.8-2.4s1,0.4,2.8,1c0.9,0.4,2,0.7,3.3,1.3c1.3,0.4,2.6,1.3,4.2,2
			c1.5,0.7,3.2,1.6,4.8,2.7c1.6,1.2,3.6,2.2,5.2,3.7c1.7,1.5,3.6,3,5.1,4.7c1.6,1.7,3.3,3.6,4.8,5.6c0.3,0.4,0.5,0.8,0.8,1.2
			c0.5-1.7,0.9-3.5,1.4-5.3c0.7-2.2,0.7-4.4,1.1-6.5c0.4-2.2,0.3-4.2,0.3-6.1c-0.1-1.9,0.2-3.8-0.2-5.3c-0.2-1.6-0.3-3-0.5-4.1
			c-0.3-2.3-0.5-3.6-0.5-3.6s0.8,1.1,2,3.1c0.7,1,1.4,2.2,2.3,3.6c0.9,1.4,1.6,3.1,2.5,5c0.9,1.9,2,3.9,2.7,6.3
			c0.7,2.3,1.7,4.7,2.2,7.3c0.2,1,0.4,2,0.6,3c0.2-0.6,0.4-1.2,0.6-1.8c0.7-1.8,0.8-3.6,1.1-5.3c0.5-1.7,0.5-3.4,0.5-5
			c0.1-1.6,0.3-3,0.2-4.3c-0.1-1.3-0.2-2.4-0.2-3.4c-0.2-1.9-0.2-3-0.2-3s0.6,0.9,1.7,2.4c0.6,0.8,1.3,1.8,2,2.9
			c0.8,1.2,1.4,2.6,2.3,4.1c0.8,1.6,1.8,3.3,2.4,5.1c0.7,1.9,1.7,3.9,2.1,6.2c0.5,2.2,1.3,4.5,1.5,6.9c0.3,2.4,0.7,5,0.6,7.4
			c0.1,0.9,0,1.7,0,2.5c42.7,8.8,76.9,40.4,89.1,81.4c4.5,15.3,11.4,29.9,22,42C409.2,260.9,419.6,285.2,419.6,311.4z"/>
		<g>
			<g>
				<ellipse fill="#FFFFFF" cx="322.3" cy="232.5" rx="21" ry="28.6"/>
				<g>
					<ellipse fill="#84DBFF" cx="321.6" cy="237.4" rx="12.8" ry="17.4"/>
					<ellipse fill="#324A5E" cx="322.4" cy="238.5" rx="8.1" ry="11"/>
					<ellipse fill="#FFFFFF" cx="316.7" cy="231.1" rx="3.2" ry="4.3"/>
				</g>
			</g>
			<g>
				<ellipse fill="#FFFFFF" cx="189.7" cy="232.5" rx="21" ry="28.6"/>
				<g>
					<ellipse fill="#84DBFF" cx="190.4" cy="237.4" rx="12.8" ry="17.4"/>
					<ellipse fill="#324A5E" cx="189.6" cy="238.5" rx="8.1" ry="11"/>
					<ellipse fill="#FFFFFF" cx="195.4" cy="231.1" rx="3.2" ry="4.3"/>
				</g>
			</g>
		</g>
	</g>
</g>
</svg>
