<?xml version="1.0" encoding="utf-8"?>
<!-- Generator: Adobe Illustrator 18.0.0, SVG Export Plug-In . SVG Version: 6.00 Build 0)  -->
<!DOCTYPE svg PUBLIC "-//W3C//DTD SVG 1.1//EN" "http://www.w3.org/Graphics/SVG/1.1/DTD/svg11.dtd">
<svg version="1.1" id="Layer_1" xmlns="http://www.w3.org/2000/svg" xmlns:xlink="http://www.w3.org/1999/xlink" x="0px" y="0px"
	 viewBox="0 0 512 512" enable-background="new 0 0 512 512" xml:space="preserve">
<g>
	<circle fill="#324A5E" cx="256" cy="256" r="252.5"/>
	<path fill="#2C9984" d="M312.6,148c0,0,32.4-20.4,50.5-49.1C376.8,77,411,87.1,410,112.9c-0.8,22.3-15.5,46.8-59.5,68.8L312.6,148z
		"/>
	<path fill="#2C9984" d="M199.4,148c0,0-32.4-20.4-50.5-49.1C135.2,77,101,87.1,102,112.9c0.8,22.3,15.5,46.8,59.5,68.8L199.4,148z"
		/>
	<path fill="#4CDBC4" d="M256,108.2c-70.8,0.3-128,28.3-128,123.7c0,95.6,27.6,222.8,128,223.9c100.4-1.1,128-128.3,128-223.9
		C384,136.5,326.8,108.5,256,108.2z"/>
	<path fill="#FFFFFF" d="M291.6,337.7c-8.5,7.3-21.3,11.9-35.6,11.9c-14.3,0-27.2-4.6-35.6-11.9l11.1-48.4L256,181.7l24.6,107.6
		L291.6,337.7z"/>
	<path fill="#2C9984" d="M298.5,400.1c-4.8,6.9-13.7,9.9-19.9,6.8c-6.2-3.1-7.2-11.2-2.4-18c4.8-6.9,13.7-9.9,19.9-6.8
		C302.2,385.2,303.3,393.3,298.5,400.1z"/>
	<path fill="#2C9984" d="M213.5,400.1c4.8,6.9,13.7,9.9,19.9,6.8c6.2-3.1,7.2-11.2,2.4-18c-4.8-6.9-13.7-9.9-19.9-6.8
		C209.8,385.2,208.7,393.3,213.5,400.1z"/>
	<path fill="#2C9984" d="M294.8,415.6c-6.1,15.4-21.2,26.3-38.8,26.3c-17.6,0-32.7-10.9-38.9-26.3c11.3,4,24.6,6.3,38.9,6.3
		C270.3,421.8,283.6,419.6,294.8,415.6z"/>
	<g>
		<g>
			<g>
				<path fill="#FFFFFF" d="M290.9,241.9c1.8,14,12.7,24.9,24.4,24.3c11.7-0.6,19.8-12.5,18.1-26.5s-12.7-24.9-24.4-24.3
					C297.3,216,289.2,227.8,290.9,241.9z"/>
				<path fill="#F9B54C" d="M294.5,245.7c1.1,9.1,9.5,16.1,18.7,15.7c9.2-0.5,15.7-8.2,14.6-17.3c-1.1-9.1-9.5-16.1-18.7-15.7
					C299.8,228.8,293.3,236.6,294.5,245.7z"/>
				<path fill="#2B3B4E" d="M302.7,245.3c0.6,4.6,4.8,8.2,9.5,7.9c4.7-0.2,8-4.2,7.4-8.8c-0.6-4.6-4.8-8.2-9.5-7.9
					C305.4,236.7,302.1,240.7,302.7,245.3z"/>
				<path fill="#FFFFFF" d="M304.6,234.6c-1.2,2.1-0.1,4.3,2.7,5c2.7,0.7,5.9-0.5,7.2-2.6c1.2-2.1,0.1-4.3-2.7-5
					C309.1,231.4,305.9,232.5,304.6,234.6z"/>
			</g>
			<path fill="#324A5E" d="M289.2,206c0,0,3.3-1.4,7.7-2.6c1.1-0.3,2.3-0.5,3.5-0.8c1.3-0.1,2.5-0.4,3.9-0.4c1.3-0.1,2.7-0.1,4,0
				c1.3,0.1,2.7,0.3,4.1,0.5c1.3,0.4,2.7,0.5,4.1,1c1.3,0.5,2.7,0.7,4,1.3c1.3,0.5,2.6,1,3.8,1.5c1.2,0.6,2.3,1.1,3.4,1.6
				c2.2,0.9,4,2,5.4,2.5c1.4,0.6,2.2,0.9,2.2,0.9s-0.3-0.8-1.1-2.1c-0.4-0.7-0.8-1.5-1.4-2.3c-0.6-0.9-1.2-1.9-2.1-2.8
				c-0.9-1-1.8-2-2.9-3.1c-1.1-1-2.5-1.9-3.9-2.8c-1.3-1-3-1.6-4.7-2.4c-1.6-0.8-3.5-1.1-5.3-1.6c-1.9-0.2-3.7-0.5-5.6-0.3
				c-1.9,0.1-3.7,0.3-5.3,0.9c-1.7,0.4-3.2,1.2-4.6,1.8c-1.4,0.8-2.6,1.6-3.6,2.5c-2.1,1.6-3.5,3.4-4.3,4.7
				C289.4,205.1,289.2,206,289.2,206z"/>
		</g>
		<g>
			<g>
				<path fill="#FFFFFF" d="M221.1,241.9c-1.8,14-12.7,24.9-24.4,24.3s-19.8-12.5-18.1-26.5s12.7-24.9,24.4-24.3
					C214.7,216,222.8,227.8,221.1,241.9z"/>
				<path fill="#F9B54C" d="M217.5,245.7c-1.1,9.1-9.5,16.1-18.7,15.7c-9.2-0.5-15.7-8.2-14.6-17.3c1.1-9.1,9.5-16.1,18.7-15.7
					C212.1,228.8,218.7,236.6,217.5,245.7z"/>
				<path fill="#2B3B4E" d="M209.3,245.3c-0.6,4.6-4.8,8.2-9.5,7.9c-4.7-0.2-8-4.2-7.4-8.8c0.6-4.6,4.8-8.2,9.5-7.9
					C206.6,236.7,209.9,240.7,209.3,245.3z"/>
				<path fill="#FFFFFF" d="M207.4,234.6c1.2,2.1,0.1,4.3-2.7,5c-2.7,0.7-5.9-0.5-7.2-2.6c-1.2-2.1-0.1-4.3,2.7-5
					C202.9,231.4,206.1,232.5,207.4,234.6z"/>
			</g>
			<path fill="#324A5E" d="M222.8,206c0,0-3.3-1.4-7.7-2.6c-1.1-0.3-2.3-0.5-3.5-0.8c-1.3-0.1-2.5-0.4-3.9-0.4c-1.3-0.1-2.7-0.1-4,0
				c-1.3,0.1-2.7,0.3-4.1,0.5c-1.3,0.4-2.7,0.5-4.1,1c-1.3,0.5-2.7,0.7-4,1.3c-1.3,0.5-2.6,1-3.8,1.5c-1.2,0.6-2.3,1.1-3.4,1.6
				c-2.2,0.9-4,2-5.4,2.5c-1.4,0.6-2.2,0.9-2.2,0.9s0.3-0.8,1.1-2.1c0.4-0.7,0.8-1.5,1.4-2.3c0.6-0.9,1.2-1.9,2.1-2.8
				c0.9-1,1.8-2,2.9-3.1c1.1-1,2.5-1.9,3.9-2.8c1.3-1,3-1.6,4.7-2.4c1.6-0.8,3.5-1.1,5.3-1.6c1.9-0.2,3.7-0.5,5.6-0.3
				c1.9,0.1,3.7,0.3,5.3,0.9c1.7,0.4,3.2,1.2,4.6,1.8c1.4,0.8,2.6,1.6,3.6,2.5c2.1,1.6,3.5,3.4,4.3,4.7
				C222.6,205.1,222.8,206,222.8,206z"/>
		</g>
	</g>
</g>
</svg>
