<?xml version="1.0" encoding="utf-8"?>
<!-- Generator: Adobe Illustrator 18.0.0, SVG Export Plug-In . SVG Version: 6.00 Build 0)  -->
<!DOCTYPE svg PUBLIC "-//W3C//DTD SVG 1.1//EN" "http://www.w3.org/Graphics/SVG/1.1/DTD/svg11.dtd">
<svg version="1.1" id="Layer_1" xmlns="http://www.w3.org/2000/svg" xmlns:xlink="http://www.w3.org/1999/xlink" x="0px" y="0px"
	 viewBox="0 0 512 512" enable-background="new 0 0 512 512" xml:space="preserve">
<g>
	<circle fill="#324A5E" cx="256" cy="256" r="252.5"/>
	<g>
		<g>
			<g>
				
					<ellipse transform="matrix(0.7071 -0.7071 0.7071 0.7071 -25.8805 317.2882)" fill="#E6E9EE" cx="370.1" cy="189.9" rx="61.9" ry="70.5"/>
				
					<ellipse transform="matrix(0.7071 -0.7071 0.7071 0.7071 -38.8897 311.9009)" fill="#CED5E0" cx="357" cy="202.9" rx="43.5" ry="49.6"/>
			</g>
			<g>
				
					<ellipse transform="matrix(-0.7071 -0.7071 0.7071 -0.7071 108.0396 424.5207)" fill="#E6E9EE" cx="141.9" cy="189.9" rx="61.9" ry="70.5"/>
				
					<ellipse transform="matrix(-0.7071 -0.7071 0.7071 -0.7071 121.0491 455.9285)" fill="#CED5E0" cx="155" cy="202.9" rx="43.5" ry="49.6"/>
			</g>
		</g>
		<circle fill="#E6E9EE" cx="256" cy="297.9" r="133.1"/>
	</g>
	<path fill="#324A5E" d="M283.4,326.1c0,26.6-12.3,37.8-27.4,37.8c-15.1,0-27.4-11.2-27.4-37.8c0-26.6,12.3-58.6,27.4-58.6
		C271.1,267.5,283.4,299.5,283.4,326.1z"/>
	<g>
		<g>
			<g>
				<path fill="#FFFFFF" d="M289.6,277.2c1.4,11.5,10.4,20.4,20,19.9c9.6-0.5,16.2-10.2,14.8-21.7s-10.4-20.4-20-19.9
					C294.8,255.9,288.2,265.7,289.6,277.2z"/>
				<path fill="#F9B54C" d="M292.5,280.3c0.9,7.5,7.8,13.2,15.3,12.8c7.5-0.4,12.9-6.7,12-14.2c-0.9-7.5-7.8-13.2-15.3-12.8
					C296.9,266.5,291.6,272.8,292.5,280.3z"/>
				<path fill="#2B3B4E" d="M299.2,280c0.5,3.8,4,6.7,7.8,6.5c3.8-0.2,6.5-3.4,6.1-7.2c-0.5-3.8-4-6.7-7.8-6.5
					C301.5,273,298.8,276.2,299.2,280z"/>
				<path fill="#FFFFFF" d="M300.8,271.2c-1,1.7-0.1,3.5,2.2,4.1c2.2,0.5,4.9-0.4,5.9-2.1c1-1.7,0.1-3.5-2.2-4.1
					C304.5,268.6,301.9,269.5,300.8,271.2z"/>
			</g>
			<path fill="#324A5E" d="M288.2,247.8c0,0,2.7-1.2,6.3-2.1c0.9-0.3,1.9-0.4,2.9-0.6c1-0.1,2.1-0.3,3.2-0.3c1.1-0.1,2.2,0,3.3,0
				c1.1,0,2.2,0.2,3.3,0.4c1.1,0.3,2.2,0.4,3.3,0.8c1.1,0.4,2.2,0.6,3.2,1.1c1.1,0.4,2.1,0.8,3.1,1.2c1,0.5,1.9,0.9,2.8,1.3
				c1.8,0.7,3.3,1.6,4.4,2.1c1.1,0.5,1.8,0.7,1.8,0.7s-0.3-0.7-0.9-1.7c-0.3-0.5-0.7-1.2-1.2-1.9c-0.5-0.7-1-1.6-1.8-2.3
				c-0.7-0.8-1.5-1.7-2.4-2.5c-0.9-0.8-2-1.6-3.2-2.3c-1.1-0.8-2.5-1.3-3.8-2c-1.3-0.6-2.9-0.9-4.3-1.3c-1.5-0.2-3.1-0.4-4.6-0.3
				c-1.5,0.1-3,0.3-4.4,0.7c-1.4,0.3-2.6,1-3.8,1.5c-1.1,0.7-2.1,1.3-3,2c-1.7,1.3-2.9,2.8-3.5,3.9
				C288.4,247.1,288.2,247.8,288.2,247.8z"/>
		</g>
		<g>
			<g>
				<path fill="#FFFFFF" d="M222.4,277.2c-1.4,11.5-10.4,20.4-20,19.9c-9.6-0.5-16.2-10.2-14.8-21.7c1.4-11.5,10.4-20.4,20-19.9
					C217.2,255.9,223.8,265.7,222.4,277.2z"/>
				<path fill="#F9B54C" d="M219.5,280.3c-0.9,7.5-7.8,13.2-15.3,12.8c-7.5-0.4-12.9-6.7-12-14.2c0.9-7.5,7.8-13.2,15.3-12.8
					C215.1,266.5,220.4,272.8,219.5,280.3z"/>
				<path fill="#2B3B4E" d="M212.8,280c-0.5,3.8-4,6.7-7.8,6.5c-3.8-0.2-6.5-3.4-6.1-7.2c0.5-3.8,4-6.7,7.8-6.5
					C210.5,273,213.2,276.2,212.8,280z"/>
				<path fill="#FFFFFF" d="M211.2,271.2c1,1.7,0.1,3.5-2.2,4.1c-2.2,0.5-4.9-0.4-5.9-2.1c-1-1.7-0.1-3.5,2.2-4.1
					C207.5,268.6,210.1,269.5,211.2,271.2z"/>
			</g>
			<path fill="#324A5E" d="M223.8,247.8c0,0-2.7-1.2-6.3-2.1c-0.9-0.3-1.9-0.4-2.9-0.6c-1-0.1-2.1-0.3-3.2-0.3c-1.1-0.1-2.2,0-3.3,0
				c-1.1,0-2.2,0.2-3.3,0.4c-1.1,0.3-2.2,0.4-3.3,0.8c-1.1,0.4-2.2,0.6-3.2,1.1c-1.1,0.4-2.1,0.8-3.1,1.2c-1,0.5-1.9,0.9-2.8,1.3
				c-1.8,0.7-3.3,1.6-4.4,2.1c-1.1,0.5-1.8,0.7-1.8,0.7s0.3-0.7,0.9-1.7c0.3-0.5,0.7-1.2,1.2-1.9c0.5-0.7,1-1.6,1.8-2.3
				c0.7-0.8,1.5-1.7,2.4-2.5c0.9-0.8,2-1.6,3.2-2.3c1.1-0.8,2.5-1.3,3.8-2c1.3-0.6,2.9-0.9,4.3-1.3c1.5-0.2,3.1-0.4,4.6-0.3
				c1.5,0.1,3,0.3,4.4,0.7c1.4,0.3,2.6,1,3.8,1.5c1.1,0.7,2.1,1.3,3,2c1.7,1.3,2.9,2.8,3.5,3.9C223.6,247.1,223.8,247.8,223.8,247.8
				z"/>
		</g>
	</g>
</g>
</svg>
