<?xml version="1.0" encoding="utf-8"?>
<!-- Generator: Adobe Illustrator 18.0.0, SVG Export Plug-In . SVG Version: 6.00 Build 0)  -->
<!DOCTYPE svg PUBLIC "-//W3C//DTD SVG 1.1//EN" "http://www.w3.org/Graphics/SVG/1.1/DTD/svg11.dtd">
<svg version="1.1" id="Layer_1" xmlns="http://www.w3.org/2000/svg" xmlns:xlink="http://www.w3.org/1999/xlink" x="0px" y="0px"
	 viewBox="0 0 512 512" enable-background="new 0 0 512 512" xml:space="preserve">
<g>
	<circle fill="#90DFAA" cx="256" cy="256" r="252.5"/>
	<g>
		<path fill="#FF7058" d="M404.7,232.6c29.6-22.1,46.1-55.5,28.6-112.8c-16.7,13-43.3,21.6-71.3,31c-32.9,11-42.8,52.8-18.2,77.4v0
			C360.1,244.5,386.1,246.5,404.7,232.6z"/>
		<path fill="#F1543F" d="M388.2,231.4c21.6-16.1,33.5-40.4,20.8-82.1c-12.1,9.5-31.5,15.7-51.9,22.5c-24,8-31.1,38.4-13.3,56.3h0
			C355.7,240.1,374.6,241.5,388.2,231.4z"/>
	</g>
	<g>
		<path fill="#FF7058" d="M107.3,232.6c-29.6-22.1-46.1-55.5-28.6-112.8c16.7,13,43.3,21.6,71.3,31c32.9,11,42.8,52.8,18.2,77.4v0
			C151.9,244.5,125.9,246.5,107.3,232.6z"/>
		<path fill="#F1543F" d="M123.8,231.4c-21.6-16.1-33.5-40.4-20.8-82.1c12.1,9.5,31.5,15.7,51.9,22.5c24,8,31.1,38.4,13.3,56.3l0,0
			C156.3,240.1,137.4,241.5,123.8,231.4z"/>
	</g>
	<path fill="#FF7058" d="M230.6,454.2h50.9c64.8,0,118.2-52,118.8-116.8c0-0.6,0-1.2,0-1.8c0-40.9-12.7-84.7-33.8-120.7
		c-21-35.8-60-57.2-101.6-57.2h-17.7c-41.5,0-80.6,21.4-101.6,57.2c-21.1,36-33.8,79.8-33.8,120.7c0,0.6,0,1.2,0,1.8
		C112.4,402.3,165.7,454.2,230.6,454.2z"/>
	<path fill="#FFD05B" d="M342.5,364.6c0,29.8-38.7,64.4-86.5,64.4s-86.5-34.6-86.5-64.4c0-29.8,38.7-43.5,86.5-43.5
		S342.5,334.8,342.5,364.6z"/>
	<circle fill="#F9B54C" cx="286" cy="372.8" r="17.1"/>
	<circle fill="#F9B54C" cx="226" cy="372.8" r="17.1"/>
	<g>
		<g>
			<g>
				<path fill="#FFFFFF" d="M280.5,277.8c1.7,13.8,12.5,24.5,24,23.9s19.5-12.3,17.8-26.1c-1.7-13.8-12.5-24.5-24-23.9
					C286.8,252.3,278.8,264,280.5,277.8z"/>
				<path fill="#84DBFF" d="M284,281.6c1.1,9,9.4,15.9,18.4,15.4c9.1-0.5,15.5-8.1,14.4-17.1c-1.1-9-9.4-15.9-18.4-15.4
					C289.3,265,282.9,272.6,284,281.6z"/>
				<path fill="#2B3B4E" d="M292.1,281.2c0.6,4.5,4.7,8,9.3,7.8c4.6-0.2,7.8-4.1,7.3-8.6c-0.6-4.5-4.7-8-9.3-7.8
					C294.8,272.7,291.5,276.6,292.1,281.2z"/>
				<path fill="#FFFFFF" d="M294,270.7c-1.2,2.1-0.1,4.3,2.6,4.9c2.7,0.6,5.8-0.5,7.1-2.6c1.2-2.1,0.1-4.3-2.6-4.9
					C298.4,267.5,295.2,268.6,294,270.7z"/>
			</g>
			<path fill="#324A5E" d="M278.8,242.5c0,0,3.2-1.4,7.6-2.5c1.1-0.3,2.3-0.5,3.5-0.7c1.2-0.1,2.5-0.4,3.8-0.4
				c1.3-0.1,2.6-0.1,3.9,0c1.3,0,2.7,0.3,4,0.5c1.3,0.4,2.7,0.5,4,1c1.3,0.5,2.7,0.7,3.9,1.3c1.3,0.5,2.5,1,3.7,1.5
				c1.2,0.6,2.3,1.1,3.4,1.5c2.2,0.9,3.9,1.9,5.3,2.5c1.4,0.6,2.2,0.9,2.2,0.9s-0.3-0.8-1.1-2.1c-0.4-0.6-0.8-1.4-1.4-2.3
				c-0.5-0.9-1.2-1.9-2.1-2.8c-0.9-1-1.8-2-2.9-3c-1.1-1-2.4-1.9-3.8-2.8c-1.3-1-3-1.6-4.6-2.3c-1.6-0.8-3.5-1-5.2-1.5
				c-1.8-0.2-3.7-0.5-5.5-0.3c-1.8,0.1-3.6,0.3-5.3,0.9c-1.7,0.4-3.2,1.2-4.6,1.8c-1.3,0.8-2.6,1.5-3.6,2.4
				c-2.1,1.6-3.4,3.4-4.3,4.7C279.1,241.7,278.8,242.5,278.8,242.5z"/>
		</g>
		<g>
			<g>
				<path fill="#FFFFFF" d="M231.5,277.8c-1.7,13.8-12.5,24.5-24,23.9c-11.5-0.6-19.5-12.3-17.8-26.1c1.7-13.8,12.5-24.5,24-23.9
					C225.2,252.3,233.2,264,231.5,277.8z"/>
				<path fill="#84DBFF" d="M228,281.6c-1.1,9-9.4,15.9-18.4,15.4c-9.1-0.5-15.5-8.1-14.4-17.1c1.1-9,9.4-15.9,18.4-15.4
					C222.7,265,229.1,272.6,228,281.6z"/>
				<path fill="#2B3B4E" d="M219.9,281.2c-0.6,4.5-4.7,8-9.3,7.8c-4.6-0.2-7.8-4.1-7.3-8.6c0.6-4.5,4.7-8,9.3-7.8
					C217.2,272.7,220.5,276.6,219.9,281.2z"/>
				<path fill="#FFFFFF" d="M218,270.7c1.2,2.1,0.1,4.3-2.6,4.9c-2.7,0.6-5.8-0.5-7.1-2.6c-1.2-2.1-0.1-4.3,2.6-4.9
					C213.6,267.5,216.8,268.6,218,270.7z"/>
			</g>
			<path fill="#324A5E" d="M233.2,242.5c0,0-3.2-1.4-7.6-2.5c-1.1-0.3-2.3-0.5-3.5-0.7c-1.2-0.1-2.5-0.4-3.8-0.4
				c-1.3-0.1-2.6-0.1-3.9,0c-1.3,0-2.7,0.3-4,0.5c-1.3,0.4-2.7,0.5-4,1c-1.3,0.5-2.7,0.7-3.9,1.3c-1.3,0.5-2.5,1-3.7,1.5
				c-1.2,0.6-2.3,1.1-3.4,1.5c-2.2,0.9-3.9,1.9-5.3,2.5c-1.4,0.6-2.2,0.9-2.2,0.9s0.3-0.8,1.1-2.1c0.4-0.6,0.8-1.4,1.4-2.3
				c0.5-0.9,1.2-1.9,2.1-2.8c0.9-1,1.8-2,2.9-3c1.1-1,2.4-1.9,3.8-2.8c1.3-1,3-1.6,4.6-2.3c1.6-0.8,3.5-1,5.2-1.5
				c1.8-0.2,3.7-0.5,5.5-0.3c1.8,0.1,3.6,0.3,5.3,0.9c1.7,0.4,3.2,1.2,4.6,1.8c1.3,0.8,2.6,1.5,3.6,2.4c2.1,1.6,3.4,3.4,4.3,4.7
				C232.9,241.7,233.2,242.5,233.2,242.5z"/>
		</g>
	</g>
</g>
</svg>
