<?xml version="1.0" encoding="utf-8"?>
<!-- Generator: Adobe Illustrator 18.0.0, SVG Export Plug-In . SVG Version: 6.00 Build 0)  -->
<!DOCTYPE svg PUBLIC "-//W3C//DTD SVG 1.1//EN" "http://www.w3.org/Graphics/SVG/1.1/DTD/svg11.dtd">
<svg version="1.1" id="Layer_1" xmlns="http://www.w3.org/2000/svg" xmlns:xlink="http://www.w3.org/1999/xlink" x="0px" y="0px"
	 viewBox="0 0 512 512" enable-background="new 0 0 512 512" xml:space="preserve">
<g>
	<circle fill="#FD8469" cx="256" cy="256" r="251.2"/>
	<path fill="#FFD05B" d="M393.8,114.7c-47.5,0-86.1,38.5-86.1,86.1V219H326c47.5,0,86.1-38.5,86.1-86.1v-18.3H393.8z"/>
	<path fill="#F9B54C" d="M378.1,133.7c-38.9,0-70.4,31.5-70.4,70.4v15h15c38.9,0,70.4-31.5,70.4-70.4v-15H378.1z"/>
	<path fill="#FFD05B" d="M118.2,114.7c47.5,0,86.1,38.5,86.1,86.1V219H186c-47.5,0-86.1-38.5-86.1-86.1v-18.3H118.2z"/>
	<path fill="#F9B54C" d="M133.9,133.7c38.9,0,70.4,31.5,70.4,70.4v15h-15c-38.9,0-70.4-31.5-70.4-70.4v-15H133.9z"/>
	<circle fill="#FFD05B" cx="256" cy="271.4" r="125.9"/>
	<path fill="#E6E9EE" d="M358.5,344.5c-22.6,31.8-59.7,52.6-101.6,52.8c-0.3-0.5-0.6-0.9-0.9-1.4c-0.3,0.5-0.6,0.9-0.9,1.4
		c-41.9-0.3-79-21.1-101.6-52.8c8.6-21.1,29.3-35.9,53.4-35.9c20.8,0,39.1,11.1,49.2,27.6c10.1-16.6,28.3-27.6,49.2-27.6
		C329.3,308.5,350,323.4,358.5,344.5z"/>
	<path fill="#324A5E" d="M276.5,330.5c0,8.1-9.2,18.7-20.5,18.7c-11.3,0-20.5-10.6-20.5-18.7s9.2-10.7,20.5-10.7
		C267.3,319.8,276.5,322.4,276.5,330.5z"/>
	<circle fill="#FFFFFF" cx="297.5" cy="263.7" r="18.1"/>
	<circle fill="#84DBFF" cx="297.5" cy="263.7" r="12.7"/>
	<circle fill="#324A5E" cx="297.5" cy="263.7" r="8.4"/>
	<circle fill="#FFFFFF" cx="292.5" cy="258.7" r="3.9"/>
	<circle fill="#FFFFFF" cx="297.9" cy="264.1" r="2"/>
	<circle fill="#FFFFFF" cx="214.5" cy="263.7" r="18.1"/>
	<circle fill="#84DBFF" cx="214.5" cy="263.7" r="12.7"/>
	<circle fill="#324A5E" cx="214.5" cy="263.7" r="8.4"/>
	<circle fill="#FFFFFF" cx="219.5" cy="258.7" r="3.9"/>
	<circle fill="#FFFFFF" cx="214.1" cy="264.1" r="2"/>
	<path fill="none" stroke="#324A5E" stroke-linecap="round" stroke-miterlimit="10" d="M256,324.1V351c0,5.4,4.4,9.7,9.7,9.7l0,0
		c5.4,0,9.7-4.4,9.7-9.7"/>
	<path fill="none" stroke="#324A5E" stroke-linecap="round" stroke-miterlimit="10" d="M256,324.1V351c0,5.4-4.4,9.7-9.7,9.7l0,0
		c-5.4,0-9.7-4.4-9.7-9.7"/>
	<g>
		<path fill="#324A5E" d="M393.2,319.2l-86.5,15.3c-1.1,0.2-1.8,1.2-1.6,2.3c0.2,1,1,1.6,1.9,1.6c0.1,0,0.2,0,0.3,0l86.5-15.3
			c1.1-0.2,1.8-1.2,1.6-2.3S394.3,319,393.2,319.2z"/>
		<path fill="#324A5E" d="M389.2,350.7l-74.9-5.6c-1.1-0.1-2,0.7-2.1,1.8c-0.1,1.1,0.7,2,1.8,2.1l74.9,5.6c0,0,0.1,0,0.1,0
			c1,0,1.9-0.8,2-1.8C391.1,351.7,390.3,350.8,389.2,350.7z"/>
		<path fill="#324A5E" d="M364.7,378.2l-59.2-20.5c-1-0.4-2.1,0.2-2.5,1.2c-0.4,1,0.2,2.1,1.2,2.5l59.2,20.6
			c0.2,0.1,0.4,0.1,0.6,0.1c0.8,0,1.6-0.5,1.9-1.3C366.3,379.7,365.8,378.5,364.7,378.2z"/>
		<path fill="#324A5E" d="M204.9,338.4c0.9,0,1.8-0.7,1.9-1.6c0.2-1.1-0.5-2.1-1.6-2.3l-86.5-15.3c-1.1-0.2-2.1,0.5-2.3,1.6
			s0.5,2.1,1.6,2.3l86.5,15.3C204.7,338.3,204.8,338.4,204.9,338.4z"/>
		<path fill="#324A5E" d="M199.8,346.9c-0.1-1.1-1-1.9-2.1-1.8l-74.9,5.6c-1.1,0.1-1.9,1-1.8,2.1c0.1,1,0.9,1.8,2,1.8
			c0,0,0.1,0,0.1,0L198,349C199.1,348.9,199.9,348,199.8,346.9z"/>
		<path fill="#324A5E" d="M206.4,357.6l-59.2,20.5c-1,0.4-1.6,1.5-1.2,2.5c0.3,0.8,1,1.3,1.9,1.3c0.2,0,0.4,0,0.6-0.1l59.2-20.6
			c1-0.4,1.6-1.5,1.2-2.5C208.6,357.8,207.4,357.3,206.4,357.6z"/>
	</g>
</g>
</svg>
