<?xml version="1.0" encoding="utf-8"?>
<!-- Generator: Adobe Illustrator 18.0.0, SVG Export Plug-In . SVG Version: 6.00 Build 0)  -->
<!DOCTYPE svg PUBLIC "-//W3C//DTD SVG 1.1//EN" "http://www.w3.org/Graphics/SVG/1.1/DTD/svg11.dtd">
<svg version="1.1" id="Layer_1" xmlns="http://www.w3.org/2000/svg" xmlns:xlink="http://www.w3.org/1999/xlink" x="0px" y="0px"
	 viewBox="0 0 512 512" enable-background="new 0 0 512 512" xml:space="preserve">
<g>
	<circle fill="#FFD05B" cx="256" cy="256" r="252.5"/>
	<g>
		<path fill="#F1543F" d="M428.7,166.7c-0.9,1.1-2.4,2-2.1,3.4c0.4,2.2,4.7,4.4,8.4,5.6c3.8,1.2,7.6,1.7,11.5,3.2
			c5.3,2.1,10.1,6,11.8,9.5c1.8,3.6,0.6,6.4-2.7,7.5c-2.8,0.9-7.1,0.8-7.7,3.2c6.1,3,11.8,7.7,14.8,12.6c3.1,5,3.4,9.8,0.7,12.5
			c-3.3,3.3-9.8,3.5-15.7,3.7c-34.5-1.7-70,13.9-78.6,21.4c-2.8,1.7-5.6,3.5-8.7,4.5c-6.2,2-13.2,0.7-20.1-0.1
			c-5.4-0.6-10.9-0.7-16.1-2.3c-5.1-1.6-10-4.9-11.7-10.8c-1.5-5.3-0.2-12,1.1-18.1c6-26.7,8.6-51.1,24.3-72.2
			c5-6.5,12-12.9,22.7-16.1c10.6-3.3,25.6-1.6,31.5,3.7c2.9,2.6,3.4,5.5,3.2,8.3c-0.1,1.6,0.2,3.6,3.1,4.4c1.2,0.3,2.7,0.4,3.8,0.2
			C427.8,147.2,431.8,163.9,428.7,166.7z"/>
		<path fill="#F1543F" d="M83.3,166.7c0.9,1.1,2.4,2,2.1,3.4c-0.4,2.2-4.7,4.4-8.4,5.6c-3.8,1.2-7.6,1.7-11.5,3.2
			c-5.3,2.1-10.1,6-11.8,9.5c-1.8,3.6-0.6,6.4,2.7,7.5c2.8,0.9,7.1,0.8,7.7,3.2c-6.1,3-11.8,7.7-14.8,12.6c-3.1,5-3.4,9.8-0.7,12.5
			c3.3,3.3,9.8,3.5,15.7,3.7c34.5-1.7,70,13.9,78.6,21.4c2.8,1.7,5.6,3.5,8.7,4.5c6.2,2,13.2,0.7,20.1-0.1
			c5.4-0.6,10.9-0.7,16.1-2.3c5.1-1.6,10-4.9,11.7-10.8c1.5-5.3,0.2-12-1.1-18.1c-6-26.7-8.6-51.1-24.3-72.2
			c-5-6.5-12-12.9-22.7-16.1c-10.6-3.3-25.6-1.6-31.5,3.7c-2.9,2.6-3.4,5.5-3.2,8.3c0.1,1.6-0.2,3.6-3.1,4.4
			c-1.2,0.3-2.7,0.4-3.8,0.2C84.2,147.2,80.2,163.9,83.3,166.7z"/>
	</g>
	<ellipse fill="#FF7058" cx="256" cy="282.2" rx="139.6" ry="125.8"/>
	<ellipse fill="#F1543F" cx="256" cy="317.8" rx="30.5" ry="43"/>
	<g>
		<g>
			<g>
				<path fill="#FFFFFF" d="M289.8,253.6c1.6,12.6,11.3,22.3,21.8,21.8c10.5-0.5,17.7-11.1,16.2-23.7c-1.6-12.6-11.3-22.3-21.8-21.8
					C295.4,230.4,288.2,241.1,289.8,253.6z"/>
				<path fill="#F9B54C" d="M292.9,257c1,8.2,8.5,14.4,16.8,14c8.2-0.4,14.1-7.4,13.1-15.5c-1-8.2-8.5-14.4-16.7-14
					C297.7,241.9,291.9,248.9,292.9,257z"/>
				<path fill="#2B3B4E" d="M300.3,256.7c0.5,4.1,4.3,7.3,8.5,7.1c4.2-0.2,7.1-3.7,6.6-7.9c-0.5-4.1-4.3-7.3-8.5-7.1
					C302.7,249,299.7,252.5,300.3,256.7z"/>
				<path fill="#FFFFFF" d="M302,247.1c-1.1,1.9-0.1,3.9,2.4,4.5c2.4,0.6,5.3-0.5,6.4-2.3c1.1-1.9,0.1-3.9-2.4-4.5
					C306,244.2,303.1,245.3,302,247.1z"/>
			</g>
		</g>
		<g>
			<g>
				<path fill="#FFFFFF" d="M222.2,253.6c-1.6,12.6-11.3,22.3-21.8,21.8c-10.5-0.5-17.7-11.1-16.2-23.7
					c1.6-12.6,11.3-22.3,21.8-21.8C216.6,230.4,223.8,241.1,222.2,253.6z"/>
				<path fill="#F9B54C" d="M219.1,257c-1,8.2-8.5,14.4-16.7,14c-8.2-0.4-14.1-7.4-13.1-15.5c1-8.2,8.5-14.4,16.8-14
					C214.3,241.9,220.1,248.9,219.1,257z"/>
				<path fill="#2B3B4E" d="M211.7,256.7c-0.5,4.1-4.3,7.3-8.5,7.1c-4.2-0.2-7.1-3.7-6.6-7.9c0.5-4.1,4.3-7.3,8.5-7.1
					C209.3,249,212.3,252.5,211.7,256.7z"/>
				<path fill="#FFFFFF" d="M210,247.1c1.1,1.9,0.1,3.9-2.4,4.5c-2.4,0.6-5.3-0.5-6.4-2.3c-1.1-1.9-0.1-3.9,2.4-4.5
					C206,244.2,208.9,245.3,210,247.1z"/>
			</g>
		</g>
	</g>
</g>
</svg>
