<?xml version="1.0" encoding="utf-8"?>
<!-- Generator: Adobe Illustrator 18.0.0, SVG Export Plug-In . SVG Version: 6.00 Build 0)  -->
<!DOCTYPE svg PUBLIC "-//W3C//DTD SVG 1.1//EN" "http://www.w3.org/Graphics/SVG/1.1/DTD/svg11.dtd">
<svg version="1.1" id="Layer_1" xmlns="http://www.w3.org/2000/svg" xmlns:xlink="http://www.w3.org/1999/xlink" x="0px" y="0px"
	 viewBox="0 0 512 512" enable-background="new 0 0 512 512" xml:space="preserve">
<g>
	<circle fill="#90DFAA" cx="256" cy="256" r="252.5"/>
	<g>
		<path fill="#F1543F" d="M389.1,178.2c-25.7,25.5-57.6,35.1-71.3,21.4c-13.7-13.7-4-45.6,21.7-71.1c25.7-25.5,57.6-35.1,71.3-21.4
			C424.5,120.9,414.7,152.7,389.1,178.2z"/>
		<path fill="#FF7058" d="M337.5,205.7c-8.1,0.6-15-1.4-19.8-6.2c-13.7-13.7-4-45.5,21.7-71c24.2-24.1,53.9-33.9,68.7-23.6
			c-16.9-3.5-41.2,13.3-57.5,41C337.8,167.8,333.3,190.6,337.5,205.7z"/>
	</g>
	<g>
		<path fill="#F1543F" d="M122.9,178.2c25.7,25.5,57.6,35.1,71.3,21.4s4-45.6-21.7-71.1c-25.7-25.5-57.6-35.1-71.3-21.4
			C87.5,120.9,97.3,152.7,122.9,178.2z"/>
		<path fill="#FF7058" d="M174.5,205.7c8.1,0.6,15-1.4,19.8-6.2c13.7-13.7,4-45.5-21.7-71c-24.2-24.1-53.9-33.9-68.7-23.6
			c16.9-3.5,41.2,13.3,57.5,41C174.2,167.8,178.7,190.6,174.5,205.7z"/>
	</g>
	<path fill="#E6E9EE" d="M410.2,305.5c-11.7,0-21.3-9.5-21.3-21.2c-0.1-13.8-1.9-27.7-5.6-41.3c-17.4-64.3-72.7-104.8-127.2-104.8
		c-54.6,0-109.8,40.5-127.2,104.8c-3.7,13.6-5.5,27.5-5.6,41.3c0,11.7-9.6,21.2-21.3,21.2l0,0c7.6,59.3,73.7,105.6,154.2,105.6
		C336.4,411.1,402.5,364.8,410.2,305.5L410.2,305.5z"/>
	<path fill="#FF7058" d="M384,245.9c-13.6-8.8-29.7-13.9-47.1-13.9c-36.8,0-68.2,22.8-80.8,55.1c-12.7-32.2-44.1-55.1-80.8-55.1
		c-17.4,0-33.6,5.1-47.1,13.9c0.2-0.9,0.5-1.9,0.7-2.8c17.4-64.3,72.7-104.8,127.2-104.8c54.6,0,109.8,40.5,127.2,104.8
		C383.5,244,383.7,244.9,384,245.9z"/>
	<g>
		<path fill="#324A5E" d="M273.1,319.5c0,6.8-7.7,15.6-17.1,15.6c-9.4,0-17.1-8.8-17.1-15.6c0-6.8,7.7-8.9,17.1-8.9
			C265.4,310.6,273.1,312.7,273.1,319.5z"/>
		<path fill="#324A5E" d="M272.2,341.5c-0.9,0-1.6,0.7-1.6,1.6c0,3.6-2.9,6.5-6.5,6.5c-3.6,0-6.5-2.9-6.5-6.5v-22.4
			c0-0.9-0.7-1.6-1.6-1.6c-0.9,0-1.6,0.7-1.6,1.6v22.4c0,3.6-2.9,6.5-6.5,6.5c-3.6,0-6.5-2.9-6.5-6.5c0-0.9-0.7-1.6-1.6-1.6
			s-1.6,0.7-1.6,1.6c0,5.4,4.4,9.8,9.8,9.8c3.4,0,6.4-1.7,8.1-4.4c1.8,2.6,4.7,4.4,8.1,4.4c5.4,0,9.8-4.4,9.8-9.8
			C273.9,342.2,273.1,341.5,272.2,341.5z"/>
	</g>
	<g>
		<g>
			<g>
				<path fill="#FFFFFF" d="M328.3,285.9c-1.5,12.3-11.1,21.8-21.4,21.3c-10.3-0.5-17.3-10.9-15.8-23.2
					c1.5-12.3,11.1-21.8,21.4-21.3S329.8,273.7,328.3,285.9z"/>
				<path fill="#84DBFF" d="M325.2,289.3c-1,8-8.3,14.1-16.4,13.7c-8-0.4-13.8-7.2-12.8-15.2c1-8,8.3-14.1,16.4-13.7
					C320.5,274.5,326.2,281.3,325.2,289.3z"/>
				<path fill="#2B3B4E" d="M318,288.9c-0.5,4-4.2,7.1-8.3,6.9c-4.1-0.2-7-3.6-6.5-7.7c0.5-4,4.2-7.1,8.3-6.9
					C315.6,281.4,318.5,284.9,318,288.9z"/>
				<path fill="#FFFFFF" d="M316.3,279.6c1.1,1.8,0.1,3.8-2.3,4.4c-2.4,0.6-5.2-0.4-6.3-2.3c-1.1-1.8-0.1-3.8,2.3-4.4
					C312.4,276.7,315.2,277.8,316.3,279.6z"/>
			</g>
		</g>
		<g>
			<g>
				<path fill="#FFFFFF" d="M183.7,285.9c1.5,12.3,11.1,21.8,21.4,21.3c10.3-0.5,17.3-10.9,15.8-23.2c-1.5-12.3-11.1-21.8-21.4-21.3
					C189.3,263.3,182.2,273.7,183.7,285.9z"/>
				<path fill="#84DBFF" d="M186.8,289.3c1,8,8.3,14.1,16.4,13.7c8-0.4,13.8-7.2,12.8-15.2c-1-8-8.3-14.1-16.4-13.7
					C191.5,274.5,185.8,281.3,186.8,289.3z"/>
				<path fill="#2B3B4E" d="M194,288.9c0.5,4,4.2,7.1,8.3,6.9c4.1-0.2,7-3.6,6.5-7.7c-0.5-4-4.2-7.1-8.3-6.9
					C196.4,281.4,193.5,284.9,194,288.9z"/>
				<path fill="#FFFFFF" d="M195.7,279.6c-1.1,1.8-0.1,3.8,2.3,4.4c2.4,0.6,5.2-0.4,6.3-2.3c1.1-1.8,0.1-3.8-2.3-4.4
					C199.6,276.7,196.8,277.8,195.7,279.6z"/>
			</g>
		</g>
	</g>
</g>
</svg>
