<?xml version="1.0" encoding="utf-8"?>
<!-- Generator: Adobe Illustrator 18.0.0, SVG Export Plug-In . SVG Version: 6.00 Build 0)  -->
<!DOCTYPE svg PUBLIC "-//W3C//DTD SVG 1.1//EN" "http://www.w3.org/Graphics/SVG/1.1/DTD/svg11.dtd">
<svg version="1.1" id="Layer_1" xmlns="http://www.w3.org/2000/svg" xmlns:xlink="http://www.w3.org/1999/xlink" x="0px" y="0px"
	 viewBox="0 0 512 512" enable-background="new 0 0 512 512" xml:space="preserve">
<g>
	<circle fill="#324A5E" cx="256" cy="256" r="252.5"/>
	<g>
		<g>
			<path fill="#F9B54C" d="M314.9,171.6c0,0,17.1-59.7,106.7-51.2c0,0,15.1,108.6-99.1,89.6L314.9,171.6z"/>
			<path fill="#FFD05B" d="M421.6,120.4c0,0-73,2.6-98.5,89.7c-0.2,0-0.4,0-0.6-0.1l-7.7-38.4C314.9,171.5,332,111.8,421.6,120.4z"
				/>
		</g>
		<g>
			<path fill="#F9B54C" d="M197.1,171.6c0,0-17.1-59.7-106.7-51.2c0,0-15.1,108.6,99.1,89.6L197.1,171.6z"/>
			<path fill="#FFD05B" d="M90.4,120.4c0,0,73,2.6,98.5,89.7c0.2,0,0.4,0,0.6-0.1l7.7-38.4C197.1,171.5,180,111.8,90.4,120.4z"/>
		</g>
	</g>
	<path fill="#FFD05B" d="M256,410.7c-64.1,0-114.6-40.5-111.3-131.3c0.7-19.7,3.9-39.9,9.1-59.3c4.4-16.5,10.2-32.6,17.1-47.2
		c7.1-15.1,23.5-24.7,41.1-24.7h88.1c17.6,0,33.9,9.6,41.1,24.7c6.9,14.6,12.8,30.7,17.1,47.2c5.2,19.5,8.4,39.7,9.1,59.3
		C370.6,370.2,320.1,410.7,256,410.7z"/>
	<path fill="#F9B54C" d="M256,410.7c-64.1,0-114.6-40.5-111.3-131.3c0.7-19.7,3.9-39.9,9.1-59.3c23.3-0.6,76.1,9.8,51.6,123.1h101.3
		c-24.5-113.2,28.3-123.7,51.6-123.1c5.2,19.5,8.4,39.7,9.1,59.3C370.6,370.2,320.1,410.7,256,410.7z"/>
	<path fill="#E6E9EE" d="M304.9,331.1c-5.4-19.4-21.4-33.3-35.9-31.1c-0.6,0.1-1.2,0.2-1.8,0.4c-7.4,1.9-15,1.9-22.4,0
		c-0.6-0.1-1.2-0.3-1.8-0.4c-14.5-2.2-30.6,11.7-35.9,31.1c-5.4,19.4,2,36.9,16.5,39.1c4.2,0.7,8.6-0.1,12.8-1.9
		c12.2-5.4,27-5.4,39.2,0c4.2,1.8,8.5,2.6,12.8,1.9C302.9,368,310.3,350.5,304.9,331.1z"/>
	<g>
		<path fill="#324A5E" d="M287,332c2.9,6.9,0.5,12.3-4.5,14.3c-4.9,2.1-10.5,0.1-13.4-6.8c-2.9-6.9-2.1-16,2.9-18.1
			C276.9,319.3,284.1,325.1,287,332z"/>
		<path fill="#324A5E" d="M225,332c-2.9,6.9-0.5,12.3,4.5,14.3c4.9,2.1,10.5,0.1,13.4-6.8c2.9-6.9,2.1-16-2.9-18.1
			C235.1,319.3,227.9,325.1,225,332z"/>
	</g>
	<g>
		<path fill="#F9B54C" d="M293.1,254.4c-0.4-0.5-0.9-1.3-1.7-2.2c-0.8-0.9-1.8-2-2.9-3.1c-1.2-1.2-2.6-2.4-4.2-3.6
			c-3.3-2.4-7.4-5-12.3-6.7c-4.9-1.8-10.4-2.7-15.9-2.8c-5.5,0.1-11.1,1-15.9,2.8c-4.9,1.7-9,4.3-12.3,6.7c-1.7,1.2-3,2.5-4.2,3.6
			c-1.2,1.2-2.2,2.2-2.9,3.1c-0.8,0.9-1.3,1.7-1.7,2.2c-0.4,0.5-0.6,0.8-0.6,0.8s1-0.9,2.7-2.5c1.7-1.6,4.4-3.6,7.7-5.6
			c3.4-2.1,7.5-4,12.2-5.4c2.3-0.8,4.8-1.2,7.3-1.6c2.5-0.4,5-0.5,7.7-0.6c5.2,0,10.3,0.8,15,2.2c4.7,1.4,8.8,3.3,12.2,5.4
			c1.7,1.1,3.2,2.1,4.5,3c1.3,1,2.4,1.9,3.3,2.6c1.8,1.5,2.7,2.5,2.7,2.5S293.5,254.9,293.1,254.4z"/>
		<path fill="#F9B54C" d="M281.9,264.1c-0.9-0.9-2-2-3.3-3c-2.6-2-5.9-4-9.8-5.4c-3.9-1.5-8.3-2.2-12.7-2.3c-4.4,0-8.9,0.8-12.7,2.3
			c-3.9,1.4-7.2,3.4-9.8,5.4c-1.3,1-2.4,2-3.3,3c-0.9,1-1.7,1.8-2.3,2.5c-1.2,1.5-1.8,2.4-1.8,2.4s0.8-0.7,2.2-1.9
			c1.4-1.2,3.5-2.8,6.2-4.3c2.7-1.5,6-3.1,9.7-4.2c1.8-0.6,3.8-0.9,5.8-1.3c2-0.3,4-0.4,6.1-0.4c4.1,0,8.1,0.6,11.8,1.7
			c3.7,1.1,7,2.6,9.7,4.2c2.7,1.6,4.8,3.1,6.2,4.3c1.4,1.2,2.2,1.9,2.2,1.9s-0.6-0.9-1.7-2.4C283.6,265.9,282.8,265.1,281.9,264.1z"
			/>
		<path fill="#F9B54C" d="M271.2,276.9c-1.7-1.4-3.9-2.8-6.6-3.8c-2.6-1-5.6-1.5-8.6-1.6c-2.9,0-6.1,0.6-8.6,1.6
			c-2.6,1-4.9,2.4-6.6,3.8c-1.7,1.4-2.9,2.8-3.6,3.8c-0.7,1-1.1,1.7-1.1,1.7s0.6-0.4,1.6-1.2c1-0.7,2.4-1.7,4.2-2.7
			c1.8-1,4-1.9,6.4-2.6c2.4-0.7,5-1.1,7.7-1c5.3-0.1,10.5,1.6,14.1,3.6c1.8,1,3.3,2,4.2,2.7c1,0.8,1.6,1.2,1.6,1.2s-0.3-0.6-1.1-1.7
			C274.1,279.7,272.9,278.3,271.2,276.9z"/>
	</g>
	<g>
		<g>
			<g>
				<path fill="#FFFFFF" d="M319.7,254.4c1,8.1,7.4,14.5,14.2,14.1s11.5-7.2,10.5-15.4c-1-8.1-7.4-14.5-14.2-14.1
					C323.4,239.4,318.7,246.2,319.7,254.4z"/>
				<path fill="#54C0EB" d="M321.8,256.6c0.7,5.3,5.5,9.4,10.9,9.1c5.3-0.3,9.1-4.8,8.5-10.1c-0.7-5.3-5.5-9.4-10.9-9.1
					C324.9,246.8,321.1,251.3,321.8,256.6z"/>
				<path fill="#2B3B4E" d="M326.6,256.4c0.3,2.7,2.8,4.7,5.5,4.6c2.7-0.1,4.6-2.4,4.3-5.1s-2.8-4.7-5.5-4.6
					C328.2,251.4,326.2,253.7,326.6,256.4z"/>
				<path fill="#FFFFFF" d="M327.7,250.2c-0.7,1.2,0,2.5,1.5,2.9c1.6,0.4,3.4-0.3,4.2-1.5c0.7-1.2,0-2.5-1.5-2.9
					C330.3,248.3,328.4,249,327.7,250.2z"/>
			</g>
		</g>
		<g>
			<g>
				<path fill="#FFFFFF" d="M192.3,254.4c-1,8.1-7.4,14.5-14.2,14.1s-11.5-7.2-10.5-15.4c1-8.1,7.4-14.5,14.2-14.1
					C188.6,239.4,193.3,246.2,192.3,254.4z"/>
				<path fill="#54C0EB" d="M190.2,256.6c-0.7,5.3-5.5,9.4-10.9,9.1c-5.3-0.3-9.1-4.8-8.5-10.1c0.7-5.3,5.5-9.4,10.9-9.1
					C187.1,246.8,190.9,251.3,190.2,256.6z"/>
				<path fill="#2B3B4E" d="M185.5,256.4c-0.3,2.7-2.8,4.7-5.5,4.6c-2.7-0.1-4.6-2.4-4.3-5.1c0.3-2.7,2.8-4.7,5.5-4.6
					C183.9,251.4,185.8,253.7,185.5,256.4z"/>
				<path fill="#FFFFFF" d="M184.3,250.2c0.7,1.2,0,2.5-1.5,2.9c-1.6,0.4-3.4-0.3-4.2-1.5c-0.7-1.2,0-2.5,1.5-2.9
					C181.7,248.3,183.6,249,184.3,250.2z"/>
			</g>
		</g>
	</g>
</g>
</svg>
