<?xml version="1.0" encoding="utf-8"?>
<!-- Generator: Adobe Illustrator 18.0.0, SVG Export Plug-In . SVG Version: 6.00 Build 0)  -->
<!DOCTYPE svg PUBLIC "-//W3C//DTD SVG 1.1//EN" "http://www.w3.org/Graphics/SVG/1.1/DTD/svg11.dtd">
<svg version="1.1" id="Layer_1" xmlns="http://www.w3.org/2000/svg" xmlns:xlink="http://www.w3.org/1999/xlink" x="0px" y="0px"
	 viewBox="0 0 512 512" enable-background="new 0 0 512 512" xml:space="preserve">
<g>
	<circle fill="#FFD05B" cx="256" cy="256" r="252.5"/>
	<g>
		<path fill="#E6E9EE" d="M228.2,429.9h55.6c38.1,0,74.7-17.2,97.1-48c12.9-17.8,20.3-38.6,20.3-60.8c0-12.1-2.2-23.8-6.3-34.8
			c-7.1-19.3-11.5-39.4-11.5-60l0-5c0-0.5,0-0.9,0-1.4c-0.4-65-54.3-117.1-119.3-117.1h-16.2c-65,0-118.9,52.1-119.3,117.1
			c0,0.5,0,0.9,0,1.4l0,4.9c0,20.5-4.3,40.7-11.5,60c-4.1,11-6.3,22.7-6.3,34.8c0,22.2,7.4,43,20.3,60.8
			C153.4,412.7,190.1,429.9,228.2,429.9z"/>
		<path fill="#FF7058" d="M321.6,77.8c-7.9-8.1-28.9-13.5-45.1,4c-0.4-23.3-8.4-31.3-20.6-31.4c-12.1,0-20.2,8.1-20.6,31.4
			c-16.2-17.4-37.2-12-45.1-4c-11.5,11.8,11.4,35.7,32.4,59.7c16.2,18.3,27,31.8,32.9,32c0.1,0,0.1,0,0.2,0c0.1,0,0.1,0,0.2,0
			c0.1,0,0.1,0,0.2,0c0.1,0,0.1,0,0.2,0c6-0.2,16.7-13.8,32.9-32C310.3,113.5,333.1,89.6,321.6,77.8z"/>
		<path fill="#FF7058" d="M308.9,416.1c-7.1-30-34.1-75.1-52.9-69.6c-18.8-5.6-45.7,39.6-52.8,69.6c-6.3,26.4,4.4,35.5,18.2,41.7
			c13.1,6,24.8,7.3,34.7-14.9c9.9,22.2,21.6,20.9,34.7,14.9C304.4,451.6,315.1,442.5,308.9,416.1z"/>
		<g>
			<g>
				<path fill="#F9B54C" d="M316.5,331.8c0,0-23.2,59.2-47.8,55.5l13.2-55.5H316.5z"/>
				<path fill="#F9B54C" d="M195.5,331.8c0,0,23.2,59.2,47.8,55.5l-13.2-55.5H195.5z"/>
			</g>
			<path fill="#FFD05B" d="M322,332.1c0-5-6.1-9.5-16.2-13c-7.5-2.6-13.8-7.7-18.1-14.3c-6.1-9.4-18-15.8-31.7-15.8
				c-13.7,0-25.6,6.4-31.7,15.8c-4.3,6.6-10.6,11.7-18.1,14.3c-10.1,3.5-16.2,8-16.2,13c0,4.8,5.8,9.3,15.4,12.7
				c6.6,2.4,11.8,7.5,14.4,14c13.9,35.6,26.5,50,36.2,50c9.7,0,22.3-14.3,36.2-50c2.5-6.5,7.8-11.7,14.4-14
				C316.2,341.4,322,337,322,332.1z"/>
			<g>
				<ellipse fill="#324A5E" cx="272.7" cy="321.2" rx="5.5" ry="10.6"/>
				<ellipse fill="#324A5E" cx="239.3" cy="321.2" rx="5.5" ry="10.6"/>
			</g>
		</g>
		<g>
			<ellipse fill="#FFFFFF" cx="313.8" cy="227.9" rx="24.6" ry="38.5"/>
			<ellipse fill="#84DBFF" cx="313.8" cy="235" rx="15.7" ry="24.6"/>
			<ellipse fill="#324A5E" cx="312.4" cy="233.9" rx="7" ry="11.1"/>
			<circle fill="#FFFFFF" cx="310.2" cy="225.3" r="4.8"/>
		</g>
		<g>
			<ellipse fill="#FFFFFF" cx="198.2" cy="227.9" rx="24.6" ry="38.5"/>
			<ellipse fill="#84DBFF" cx="198.2" cy="235" rx="15.7" ry="24.6"/>
			<ellipse fill="#324A5E" cx="199.6" cy="233.9" rx="7" ry="11.1"/>
			<circle fill="#FFFFFF" cx="201.8" cy="225.3" r="4.8"/>
		</g>
	</g>
</g>
</svg>
