<?xml version="1.0" encoding="utf-8"?>
<!-- Generator: Adobe Illustrator 18.0.0, SVG Export Plug-In . SVG Version: 6.00 Build 0)  -->
<!DOCTYPE svg PUBLIC "-//W3C//DTD SVG 1.1//EN" "http://www.w3.org/Graphics/SVG/1.1/DTD/svg11.dtd">
<svg version="1.1" id="Layer_1" xmlns="http://www.w3.org/2000/svg" xmlns:xlink="http://www.w3.org/1999/xlink" x="0px" y="0px"
	 viewBox="0 0 512 512" enable-background="new 0 0 512 512" xml:space="preserve">
<g>
	<circle fill="#324A5E" cx="256" cy="256" r="252.5"/>
	<path fill="#E6E9EE" d="M259.4,213.4c0,0,5-95,147-97.2c4.8-0.1,6,6.6,1.6,8.3c-34.5,13.1-92.4,45.8-94,117.9L259.4,213.4z"/>
	<path fill="#E6E9EE" d="M252.6,213.4c0,0-5-95-147-97.2c-4.8-0.1-6,6.6-1.6,8.3c34.5,13.1,92.4,45.8,94,117.9L252.6,213.4z"/>
	<path fill="#F9B54C" d="M445.4,198.8c10.5,9.8,12,33.1-34.3,58.7c-47.7,27.3-120.2,12.3-116.6-4.9c3.1-14,58.3-25.6,91-45.6
		C418.9,188.7,433.7,187,445.4,198.8z"/>
	<path fill="#F9B54C" d="M66.6,198.8c-10.5,9.8-12,33.1,34.3,58.7c47.7,27.3,120.2,12.3,116.6-4.9c-3.1-14-58.3-25.6-91-45.6
		C93.1,188.7,78.3,187,66.6,198.8z"/>
	<path fill="#FFD05B" d="M361,299.7c0,72.7-47,165.6-105,165.6s-105-92.9-105-165.6c0-72.7,47-97.6,105-97.6S361,227,361,299.7z"/>
	<path fill="#324A5E" d="M280.3,427.3c-1.6-1.2-3.9-1-5.1,0.6c-5,6.3-10.8,9.4-15.5,10.5V397h-7.3v41.4c-4.7-1.1-10.6-4.2-15.5-10.5
		c-1.2-1.6-3.5-1.9-5.1-0.6c-1.6,1.2-1.9,3.5-0.6,5.1c6.7,8.6,16,13.7,24.9,13.7c8.8,0,18.1-5.1,24.9-13.7
		C282.1,430.8,281.9,428.5,280.3,427.3z"/>
	<path fill="#FF7058" d="M283.2,385.9c0,15-12.2,27.3-27.2,27.3c-15,0-27.2-12.3-27.2-27.3c0-15,12.2-2.5,27.2-2.5
		C271,383.4,283.2,370.9,283.2,385.9z"/>
	<g>
		<g>
			<g>
				<path fill="#FFFFFF" d="M279.7,301.5c1.4,11.1,10,19.7,19.3,19.2c9.3-0.5,15.6-9.8,14.3-20.9c-1.4-11.1-10-19.7-19.3-19.2
					C284.7,281.1,278.3,290.4,279.7,301.5z"/>
				<path fill="#84DBFF" d="M282.4,304.5c0.9,7.2,7.5,12.7,14.8,12.4c7.3-0.4,12.4-6.5,11.5-13.7c-0.9-7.2-7.5-12.7-14.8-12.4
					C286.7,291.2,281.6,297.3,282.4,304.5z"/>
				<path fill="#2B3B4E" d="M288.9,304.2c0.5,3.6,3.8,6.4,7.5,6.3c3.7-0.2,6.3-3.3,5.8-6.9c-0.5-3.6-3.8-6.4-7.5-6.3
					C291.1,297.4,288.5,300.5,288.9,304.2z"/>
				<path fill="#FFFFFF" d="M290.5,295.8c-1,1.7,0,3.4,2.1,3.9c2.1,0.5,4.7-0.4,5.7-2.1c1-1.7,0-3.4-2.1-3.9
					C294,293.2,291.4,294.1,290.5,295.8z"/>
			</g>
			<path fill="#324A5E" d="M278.3,273.2c0,0,2.6-1.1,6.1-2c0.9-0.3,1.8-0.4,2.8-0.6c1-0.1,2-0.3,3-0.3c1-0.1,2.1,0,3.2,0
				c1.1,0,2.1,0.2,3.2,0.4c1.1,0.3,2.2,0.4,3.2,0.8c1,0.4,2.1,0.6,3.1,1c1,0.4,2,0.8,3,1.2c0.9,0.5,1.8,0.9,2.7,1.2
				c1.8,0.7,3.1,1.6,4.2,2c1.1,0.5,1.8,0.7,1.8,0.7s-0.3-0.6-0.8-1.7c-0.3-0.5-0.6-1.2-1.1-1.8c-0.4-0.7-1-1.5-1.7-2.2
				c-0.7-0.8-1.5-1.6-2.3-2.4c-0.9-0.8-2-1.5-3-2.2c-1.1-0.8-2.4-1.3-3.7-1.9c-1.3-0.6-2.8-0.8-4.2-1.2c-1.5-0.2-2.9-0.4-4.4-0.3
				c-1.5,0.1-2.9,0.3-4.2,0.7c-1.3,0.3-2.5,0.9-3.7,1.4c-1.1,0.6-2.1,1.2-2.9,1.9c-1.7,1.3-2.8,2.7-3.4,3.7
				C278.5,272.5,278.3,273.2,278.3,273.2z"/>
		</g>
		<g>
			<g>
				<path fill="#FFFFFF" d="M232.3,301.5c-1.4,11.1-10,19.7-19.3,19.2c-9.3-0.5-15.6-9.8-14.3-20.9c1.4-11.1,10-19.7,19.3-19.2
					C227.3,281.1,233.7,290.4,232.3,301.5z"/>
				<path fill="#84DBFF" d="M229.6,304.5c-0.9,7.2-7.5,12.7-14.8,12.4c-7.3-0.4-12.4-6.5-11.5-13.7c0.9-7.2,7.5-12.7,14.8-12.4
					C225.3,291.2,230.4,297.3,229.6,304.5z"/>
				<path fill="#2B3B4E" d="M223.1,304.2c-0.5,3.6-3.8,6.4-7.5,6.3c-3.7-0.2-6.3-3.3-5.8-6.9c0.5-3.6,3.8-6.4,7.5-6.3
					C220.9,297.4,223.5,300.5,223.1,304.2z"/>
				<path fill="#FFFFFF" d="M221.5,295.8c1,1.7,0,3.4-2.1,3.9c-2.1,0.5-4.7-0.4-5.7-2.1c-1-1.7,0-3.4,2.1-3.9
					C218,293.2,220.6,294.1,221.5,295.8z"/>
			</g>
			<path fill="#324A5E" d="M233.7,273.2c0,0-2.6-1.1-6.1-2c-0.9-0.3-1.8-0.4-2.8-0.6c-1-0.1-2-0.3-3-0.3c-1-0.1-2.1,0-3.2,0
				c-1.1,0-2.1,0.2-3.2,0.4c-1.1,0.3-2.2,0.4-3.2,0.8c-1,0.4-2.1,0.6-3.1,1c-1,0.4-2,0.8-3,1.2c-0.9,0.5-1.8,0.9-2.7,1.2
				c-1.8,0.7-3.1,1.6-4.2,2c-1.1,0.5-1.8,0.7-1.8,0.7s0.3-0.6,0.8-1.7c0.3-0.5,0.6-1.2,1.1-1.8c0.4-0.7,1-1.5,1.7-2.2
				c0.7-0.8,1.5-1.6,2.3-2.4c0.9-0.8,2-1.5,3-2.2c1.1-0.8,2.4-1.3,3.7-1.9c1.3-0.6,2.8-0.8,4.2-1.2c1.5-0.2,2.9-0.4,4.4-0.3
				c1.5,0.1,2.9,0.3,4.2,0.7c1.3,0.3,2.5,0.9,3.7,1.4c1.1,0.6,2.1,1.2,2.9,1.9c1.7,1.3,2.7,2.7,3.4,3.7
				C233.5,272.5,233.7,273.2,233.7,273.2z"/>
		</g>
	</g>
</g>
</svg>
