<?xml version="1.0" encoding="utf-8"?>
<!-- Generator: Adobe Illustrator 18.0.0, SVG Export Plug-In . SVG Version: 6.00 Build 0)  -->
<!DOCTYPE svg PUBLIC "-//W3C//DTD SVG 1.1//EN" "http://www.w3.org/Graphics/SVG/1.1/DTD/svg11.dtd">
<svg version="1.1" id="Layer_1" xmlns="http://www.w3.org/2000/svg" xmlns:xlink="http://www.w3.org/1999/xlink" x="0px" y="0px"
	 viewBox="0 0 512 512" enable-background="new 0 0 512 512" xml:space="preserve">
<g>
	<path fill="#FF7058" d="M508.5,256c0,139.5-113,252.5-252.5,252.5C116.5,508.5,3.5,395.5,3.5,256C3.5,116.6,116.5,3.5,256,3.5
		c110.1,0,203.7,70.5,238.3,168.7c7.4,21,12.1,43.3,13.7,66.5C508.3,244.4,508.5,250.2,508.5,256z"/>
	<path fill="#FFD05B" d="M361,260.9c0,72.7-47,165.6-105,165.6c-58,0-105-92.9-105-165.6s47-97.6,105-97.6
		C314,163.3,361,188.2,361,260.9z"/>
	<path fill="#FFD05B" d="M168.4,222c2.4,8.6,2,18.3-1.5,26.9c-1.7,4.3-4.1,8.4-7.1,12.1c-0.7,0.9-1.6,1.8-2.4,2.6
		c-0.8,0.8-1.7,1.7-2.7,2.6l-1.5,1.3c-0.6,0.4-1,0.8-1.3,1.1l-0.7,0.6c-0.1-2.8-0.2-5.5-0.2-8.2c0-6.3,0.4-12.2,1.1-17.7
		c0.8-7.3,2.3-14,4.3-20.2c1.5-5,3.5-9.7,5.8-14l0.7,0.9C165.5,213.7,167.2,217.7,168.4,222z"/>
	<path fill="#FFD05B" d="M361,260.9c0,2.7-0.1,5.4-0.2,8.2l-0.7-0.6c-0.3-0.2-0.8-0.6-1.3-1.1l-1.5-1.3c-1-0.9-1.9-1.7-2.7-2.6
		c-0.8-0.9-1.7-1.7-2.4-2.6c-3-3.6-5.4-7.8-7.1-12.1c-3.5-8.7-3.9-18.3-1.5-26.9c1.2-4.3,2.9-8.3,5.6-12l0.7-0.9
		c2.3,4.3,4.2,9,5.8,14c2,6.2,3.5,12.9,4.3,20.2C360.6,248.8,361,254.7,361,260.9z"/>
	<path fill="#324A5E" d="M280.3,388.5c-1.6-1.2-3.9-1-5.1,0.6c-5,6.3-10.8,9.4-15.5,10.5v-41.4h-7.3v41.4
		c-4.7-1.1-10.6-4.2-15.5-10.5c-1.2-1.6-3.5-1.9-5.1-0.6c-1.6,1.2-1.9,3.5-0.6,5.1c6.7,8.6,16,13.7,24.9,13.7
		c8.8,0,18.1-5.1,24.9-13.7C282.1,392.1,281.9,389.8,280.3,388.5z"/>
	<path fill="#FF7058" d="M283.2,347.2c0,15-12.2,27.3-27.2,27.3c-15,0-27.2-12.3-27.2-27.3c0-15,12.2-2.5,27.2-2.5
		C271,344.7,283.2,332.2,283.2,347.2z"/>
	<path fill="#324A5E" d="M453.7,229.5c-1.1,4.9-3,9.6-5,14.1l-1.7,3.2l-0.9,1.6l-0.4,0.8l-0.3,0.5l0,0.1l-0.1,0.1l-0.2,0.3
		c-0.8,1.2-2.9,4.3-4.3,6c-6.2,7.8-14.1,14-23,18.1c-8.8,4.1-18.7,6.1-28.4,5.4c-4.9-0.3-9.6-1.3-14.2-2.9c-2.2-0.7-4.4-1.7-6.5-2.8
		c-1-0.5-2.1-1.1-3.1-1.7l-3.2-2.1l-1.5-1.2l-0.7-0.6c-0.3-0.2-0.8-0.6-1.3-1.1l-1.5-1.3c-1-0.9-1.9-1.7-2.7-2.6
		c-0.8-0.9-1.7-1.7-2.4-2.6c-3-3.6-5.4-7.8-7.1-12.1c-3.5-8.7-3.9-18.3-1.5-26.9c1.2-4.3,2.9-8.3,5.6-12l0.7-0.9
		c2.9-3.6,6.2-6,10.1-7.9c8.3-3.7,17.2-3.2,24.9-0.7l0.3,0.1c2.7,1.3,5.4,3,7.1,5.9c0.4,0.7,0.8,1.5,1,2.2l0.6,2
		c0.4,1.5,0.6,2.9,0.6,4.4c0,0.8-0.1,1.5-0.3,2.3c-0.1,0.7-0.4,1.4-0.7,2.1c-0.4,0.7-0.8,1.3-1.3,1.9c-0.6,0.5-1.1,1-1.7,1.3
		c-2.5,1.5-5.3,1.9-8,2c2.6-0.5,5.3-1.3,7.3-2.9c0.5-0.4,0.9-0.9,1.3-1.4c0.4-0.5,0.6-1,0.8-1.6c0.2-0.6,0.4-1.1,0.4-1.7
		c0.1-0.6,0-1.2,0-1.8c-0.2-1.2-0.5-2.4-0.9-3.6l-0.8-1.8c-0.2-0.5-0.6-0.9-0.9-1.4c-1.4-1.6-3.6-2.7-5.9-3.4l0.3,0.1
		c-7.1-1.1-14.5,0-19.8,3.5c-2.6,1.7-4.8,4.3-6,6.5c-1.2,2.3-1.9,5.1-2.3,7.9c-0.1,0.5-0.2,0.9-0.2,1.4c-0.7,6.4,0.7,12.7,3.9,17.8
		c0.2,0.3,0.4,0.7,0.6,1c1.4,2.2,3.1,4.1,5.1,5.8c0.5,0.5,1.1,0.9,1.7,1.4c0.6,0.5,1.1,0.9,1.7,1.1l0.8,0.5c0.2,0.2,0.5,0.4,1,0.6
		l2.4,1.3l0.1,0l0.3,0.1l0.5,0.2l1.1,0.4c0.7,0.2,1.4,0.6,2.1,0.7c1.4,0.4,2.8,0.8,4.2,1c2.8,0.5,5.7,0.6,8.5,0.3
		c5.6-0.6,11-2.7,15.5-5.9c4.6-3.2,8.4-7.5,11-12.2c0.8-1.5,0.7-1.6,1.8-3.7l1.3-3.7c0.6-2.6,1.2-5.3,1.3-7.9
		c0.3-5.2-0.4-10.4-2.3-15.3c-1.9-4.9-4.5-9.5-8.1-13.5c-0.9-1-1.9-2.1-2.6-2.7l-1.2-1.1l-2.1-1.9l-0.1,0l-0.1,0l-0.1,0l-0.4-0.3
		l-1.6-1.1c-1.1-0.6-2.2-1.3-3.3-1.8c-4.4-2.2-8.8-3.3-13.3-3.6c-9-0.6-18.7,2.5-27.5,8.2c-4.4,2.8-8.5,6.3-12.1,10.2
		c-0.2,0.2-0.3,0.4-0.5,0.6c-12.1-17.8-30.3-28.4-52-33.6c0.8-0.9,1.6-1.7,2.4-2.3c3.7-3.5,7.5-6.8,11.5-9.9c8-6,16.7-11.1,26-15
		c9.3-3.9,19.3-6.7,29.7-7.8c10.4-1.2,21.3-0.6,31.8,2c10.5,2.6,20.5,7.5,28.8,13.8c2.1,1.5,4.1,3.2,6,4.9l2.8,2.6l0.7,0.7l0.2,0.2
		l1.4,1.3l0,0.1l0.2,0.3l0.9,1.1l1.8,2.2l2.4,3.3c1.8,2.3,3,4.3,4.3,6.4c5.2,8.5,8.8,18.1,10.6,28.1
		C456.5,209.3,456.1,219.7,453.7,229.5z"/>
	<path fill="#324A5E" d="M108.1,188.7c0-0.1,0.1-0.2,0.2-0.2L108.1,188.7l-0.2,0.1l-2.1,1.9l-1.2,1.1c-0.7,0.6-1.7,1.7-2.6,2.7
		c-3.6,4-6.2,8.7-8.1,13.5c-1.9,4.9-2.6,10.1-2.3,15.3c0.1,2.6,0.7,5.2,1.3,7.9l1.3,3.7c1,2.2,1,2.3,1.8,3.7c2.6,4.7,6.4,9,11,12.2
		c4.6,3.2,10,5.3,15.5,5.9c2.8,0.3,5.7,0.2,8.5-0.3c1.4-0.2,2.8-0.6,4.2-1c0.7-0.2,1.4-0.5,2.1-0.7l1.1-0.4l0.5-0.2l0.3-0.1l0.1,0
		l2.4-1.3c0.5-0.2,0.8-0.4,1-0.6l0.8-0.5c0.6-0.3,1.1-0.7,1.7-1.1c0.6-0.5,1.2-0.9,1.7-1.4c2-1.7,3.7-3.6,5.1-5.8
		c0.2-0.3,0.4-0.7,0.6-1c3.1-5.1,4.6-11.4,3.9-17.8c0-0.5-0.1-0.9-0.2-1.4c-0.4-2.7-1.1-5.5-2.3-7.9c-1.1-2.3-3.4-4.9-6-6.5
		c-5.3-3.5-12.7-4.6-19.8-3.5l0.3-0.1c-2.3,0.7-4.5,1.7-5.9,3.4c-0.4,0.4-0.7,0.9-0.9,1.4l-0.8,1.8c-0.4,1.1-0.8,2.3-0.9,3.6
		c-0.1,0.6-0.1,1.2,0,1.8c0,0.6,0.2,1.1,0.4,1.7c0.2,0.6,0.5,1.1,0.8,1.6c0.4,0.5,0.8,1,1.3,1.4c2,1.6,4.7,2.4,7.3,2.9
		c-2.7-0.1-5.5-0.5-8-2c-0.6-0.4-1.1-0.8-1.7-1.3c-0.5-0.6-0.9-1.1-1.3-1.9c-0.3-0.7-0.6-1.4-0.7-2.1c-0.2-0.7-0.2-1.5-0.3-2.3
		c0-1.5,0.2-2.9,0.6-4.4l0.6-2c0.2-0.7,0.6-1.5,1-2.2c1.7-2.8,4.4-4.6,7.1-5.9l0.3-0.1c7.7-2.5,16.6-3,24.9,0.7
		c3.8,1.8,7.2,4.2,10.1,7.9l0.7,0.9c2.7,3.7,4.3,7.7,5.6,12c2.4,8.6,2,18.3-1.5,26.9c-1.7,4.3-4.1,8.4-7.1,12.1
		c-0.7,0.9-1.6,1.8-2.4,2.6c-0.8,0.8-1.7,1.7-2.7,2.6l-1.5,1.3c-0.6,0.4-1,0.8-1.3,1.1l-0.7,0.6l-1.5,1.2l-3.2,2.1
		c-1,0.6-2.1,1.2-3.1,1.7c-2.1,1.1-4.3,2.1-6.5,2.8c-4.5,1.6-9.3,2.6-14.2,2.9c-9.7,0.7-19.6-1.3-28.4-5.4
		c-8.9-4.1-16.8-10.3-23-18.1c-1.4-1.7-3.5-4.8-4.3-6l-0.2-0.3l-0.1-0.1l0-0.1l-0.3-0.5l-0.5-0.8l-0.9-1.6l-1.7-3.2
		c-2.1-4.5-3.9-9.2-5.1-14.1c-2.4-9.8-2.8-20.2-0.9-30.2c1.8-10,5.4-19.5,10.6-28.1c1.3-2.1,2.5-4.2,4.3-6.4l2.4-3.3l1.8-2.2
		l0.9-1.1l0.2-0.3l0-0.1l1.4-1.3l0.2-0.2l0.7-0.7l2.8-2.6c1.9-1.7,3.9-3.4,6-4.9c8.3-6.3,18.3-11.1,28.8-13.8
		c10.5-2.6,21.4-3.2,31.8-2c10.4,1.1,20.4,3.9,29.7,7.8c9.3,3.9,18,9,26,15c4,3,7.8,6.4,11.5,9.9c0.7,0.7,1.5,1.5,2.4,2.3
		c-21.7,5.2-40,15.8-52,33.6c-0.2-0.2-0.3-0.4-0.5-0.6c-3.6-3.9-7.7-7.3-12.1-10.2c-8.8-5.7-18.5-8.8-27.5-8.2
		c-4.5,0.3-9,1.4-13.3,3.6c-1.1,0.5-2.2,1.2-3.3,1.8l-1.6,1.1L108.1,188.7L108.1,188.7z"/>
	<g>
		<g>
			<g>
				<path fill="#FFFFFF" d="M268.9,265.7c1.6,13,11.8,23.2,22.7,22.6c10.9-0.6,18.4-11.6,16.8-24.6c-1.6-13-11.8-23.2-22.7-22.6
					C274.8,241.6,267.3,252.7,268.9,265.7z"/>
				<path fill="#F9B54C" d="M272.2,269.3c1.1,8.5,8.9,15,17.4,14.6c8.6-0.4,14.6-7.7,13.6-16.1c-1.1-8.5-8.9-15-17.4-14.6
					C277.2,253.6,271.1,260.8,272.2,269.3z"/>
				<path fill="#2B3B4E" d="M279.8,268.9c0.5,4.3,4.5,7.6,8.8,7.4c4.3-0.2,7.4-3.9,6.9-8.2c-0.5-4.3-4.5-7.6-8.8-7.4
					C282.4,260.9,279.3,264.6,279.8,268.9z"/>
				<path fill="#FFFFFF" d="M281.6,259c-1.2,1.9-0.1,4,2.5,4.6c2.5,0.6,5.5-0.5,6.7-2.4c1.2-1.9,0.1-4-2.5-4.6
					C285.8,256,282.8,257,281.6,259z"/>
			</g>
			<path fill="#324A5E" d="M267.3,232.3c0,0,3-1.3,7.2-2.4c1-0.3,2.2-0.4,3.3-0.7c1.2-0.1,2.3-0.4,3.6-0.4c1.2-0.1,2.5-0.1,3.7,0
				c1.3,0,2.5,0.3,3.8,0.4c1.3,0.4,2.5,0.5,3.8,0.9c1.2,0.5,2.5,0.7,3.7,1.2c1.2,0.5,2.4,0.9,3.5,1.4c1.1,0.6,2.2,1,3.2,1.5
				c2.1,0.8,3.7,1.8,5,2.3c1.3,0.5,2.1,0.8,2.1,0.8s-0.3-0.7-1-2c-0.3-0.6-0.8-1.4-1.3-2.2c-0.5-0.8-1.1-1.8-2-2.6
				c-0.8-0.9-1.7-1.9-2.7-2.9c-1.1-0.9-2.3-1.8-3.6-2.6c-1.3-0.9-2.8-1.5-4.3-2.2c-1.5-0.7-3.3-1-4.9-1.4c-1.7-0.2-3.5-0.4-5.2-0.3
				c-1.7,0.1-3.4,0.3-5,0.8c-1.6,0.3-3,1.1-4.3,1.7c-1.3,0.7-2.4,1.4-3.4,2.3c-2,1.5-3.2,3.2-4,4.4
				C267.5,231.6,267.3,232.3,267.3,232.3z"/>
		</g>
		<g>
			<g>
				<path fill="#FFFFFF" d="M243.1,265.7c-1.6,13-11.8,23.2-22.7,22.6c-10.9-0.6-18.4-11.6-16.8-24.6c1.6-13,11.8-23.2,22.7-22.6
					C237.2,241.6,244.7,252.7,243.1,265.7z"/>
				<path fill="#F9B54C" d="M239.8,269.3c-1.1,8.5-8.9,15-17.4,14.6c-8.6-0.4-14.6-7.7-13.6-16.1c1.1-8.5,8.9-15,17.4-14.6
					C234.8,253.6,240.9,260.8,239.8,269.3z"/>
				<path fill="#2B3B4E" d="M232.2,268.9c-0.5,4.3-4.5,7.6-8.8,7.4c-4.3-0.2-7.4-3.9-6.9-8.2c0.5-4.3,4.5-7.6,8.8-7.4
					C229.6,260.9,232.7,264.6,232.2,268.9z"/>
				<path fill="#FFFFFF" d="M230.4,259c1.2,1.9,0.1,4-2.5,4.6c-2.5,0.6-5.5-0.5-6.7-2.4s-0.1-4,2.5-4.6
					C226.2,256,229.2,257,230.4,259z"/>
			</g>
			<path fill="#324A5E" d="M244.8,232.3c0,0-3-1.3-7.2-2.4c-1-0.3-2.2-0.4-3.3-0.7c-1.2-0.1-2.3-0.4-3.6-0.4c-1.2-0.1-2.5-0.1-3.7,0
				c-1.3,0-2.5,0.3-3.8,0.4c-1.3,0.4-2.5,0.5-3.8,0.9c-1.2,0.5-2.5,0.7-3.7,1.2c-1.2,0.5-2.4,0.9-3.5,1.4c-1.1,0.6-2.2,1-3.2,1.5
				c-2.1,0.8-3.7,1.8-5,2.3c-1.3,0.5-2.1,0.8-2.1,0.8s0.3-0.7,1-2c0.3-0.6,0.8-1.4,1.3-2.2c0.5-0.8,1.1-1.8,2-2.6
				c0.8-0.9,1.7-1.9,2.7-2.9c1.1-0.9,2.3-1.8,3.6-2.6c1.3-0.9,2.8-1.5,4.3-2.2c1.5-0.7,3.3-1,4.9-1.4c1.7-0.2,3.5-0.4,5.2-0.3
				c1.7,0.1,3.4,0.3,5,0.8c1.6,0.3,3,1.1,4.3,1.7c1.3,0.7,2.4,1.4,3.4,2.3c2,1.5,3.2,3.2,4,4.4C244.5,231.6,244.8,232.3,244.8,232.3
				z"/>
		</g>
	</g>
</g>
</svg>
