<?xml version="1.0" encoding="utf-8"?>
<!-- Generator: Adobe Illustrator 18.0.0, SVG Export Plug-In . SVG Version: 6.00 Build 0)  -->
<!DOCTYPE svg PUBLIC "-//W3C//DTD SVG 1.1//EN" "http://www.w3.org/Graphics/SVG/1.1/DTD/svg11.dtd">
<svg version="1.1" id="Layer_1" xmlns="http://www.w3.org/2000/svg" xmlns:xlink="http://www.w3.org/1999/xlink" x="0px" y="0px"
	 viewBox="0 0 512 512" enable-background="new 0 0 512 512" xml:space="preserve">
<g>
	<circle fill="#FFD05B" cx="256" cy="256" r="252.5"/>
	<g>
		<path fill="#324A5E" d="M454.3,225.6c11-10.2,12.5-34.6-35.9-61.5c-50-28.6-126-12.9-122.1,5.2c3.3,14.6,61.1,26.9,95.3,47.7
			C426.7,236.2,442.2,238,454.3,225.6z"/>
		<path fill="#324A5E" d="M57.7,225.6c-11-10.2-12.5-34.6,35.9-61.5c50-28.6,126-12.9,122.1,5.2c-3.3,14.6-61.1,26.9-95.3,47.7
			C85.3,236.2,69.8,238,57.7,225.6z"/>
	</g>
	<path fill="#E6E9EE" d="M379.4,243.9c0,85.4-55.2,194.6-123.4,194.6c-68.1,0-123.4-109.2-123.4-194.6
		c0-85.4,55.2-114.7,123.4-114.7C324.1,129.2,379.4,158.5,379.4,243.9z"/>
	<path fill="#324A5E" d="M284.5,393.8c-1.9-1.5-4.5-1.1-6,0.7c-5.8,7.4-12.7,11.1-18.2,12.3v-48.6h-8.6v48.6
		c-5.6-1.2-12.4-4.9-18.2-12.3c-1.5-1.9-4.1-2.2-6-0.7c-1.9,1.5-2.2,4.1-0.7,6c7.9,10.1,18.9,16.1,29.2,16.1
		c10.4,0,21.3-6,29.2-16.1C286.7,397.9,286.4,395.3,284.5,393.8z"/>
	<path fill="#FF7058" d="M287.9,345.2c0,17.6-14.3,32-31.9,32c-17.6,0-31.9-14.4-31.9-32s14.3-3,31.9-3
		C273.6,342.2,287.9,327.6,287.9,345.2z"/>
	<path fill="#CED5E0" d="M371.9,135.1c-8.8-7-18.5-8.1-25.7-4.5c-2.5-9.4-9.3-18.3-18.9-22.5c-9.5-4.2-19.1-2.5-25.4,3.1
		c-3.9-8.5-12-15.2-21.9-16.6c-9.9-1.4-18.9,3-24.1,10.1c-5.2-7.2-14.2-11.5-24.1-10.1c-9.9,1.4-18,8.1-21.9,16.6
		c-6.3-5.5-15.9-7.3-25.4-3.1c-9.5,4.2-16.4,13.1-18.9,22.5c-7.2-3.6-16.9-2.5-25.7,4.5c-15,11.8-19.4,34-11.2,46.1
		c8.2,12.2,23.3,12.5,34.7,3.6c6.9-5.5,11.6-13.7,13.5-22.8c6.6,3.9,14.5,4.5,22,1.3c7.5-3.3,13.3-10,16.7-18.2
		c5.7,5.7,13.2,8.6,21,7.5c7.8-1.1,14.6-6,19.2-13.1c4.6,7.1,11.4,12,19.2,13.1c7.8,1.1,15.3-1.8,21-7.5c3.4,8.3,9.2,14.9,16.7,18.2
		c7.5,3.3,15.4,2.6,22-1.3c1.9,9.1,6.6,17.3,13.5,22.8c11.4,9,26.6,8.6,34.7-3.6C391.3,169.1,386.9,146.9,371.9,135.1z"/>
	<g>
		<g>
			<g>
				<path fill="#FFFFFF" d="M291.4,250c1.5,12.4,11.2,22,21.6,21.5c10.4-0.5,17.5-11,16-23.4c-1.5-12.4-11.2-22-21.6-21.5
					C297,227.1,289.8,237.6,291.4,250z"/>
				<path fill="#84DBFF" d="M294.5,253.3c1,8,8.4,14.2,16.5,13.8c8.1-0.4,13.9-7.3,12.9-15.3c-1-8-8.4-14.2-16.5-13.8
					C299.3,238.4,293.5,245.3,294.5,253.3z"/>
				<path fill="#2B3B4E" d="M301.7,253c0.5,4.1,4.3,7.2,8.4,7c4.1-0.2,7-3.7,6.5-7.8c-0.5-4.1-4.3-7.2-8.4-7
					C304.2,245.4,301.2,248.9,301.7,253z"/>
				<path fill="#FFFFFF" d="M303.5,243.6c-1.1,1.8-0.1,3.8,2.3,4.4c2.4,0.6,5.2-0.4,6.3-2.3s0.1-3.8-2.3-4.4
					C307.4,240.7,304.6,241.7,303.5,243.6z"/>
			</g>
			<path fill="#324A5E" d="M289.8,218.3c0,0,2.9-1.2,6.8-2.3c1-0.3,2.1-0.4,3.1-0.7c1.1-0.1,2.2-0.4,3.4-0.4c1.2-0.1,2.3-0.1,3.5,0
				c1.2,0,2.4,0.3,3.6,0.4c1.2,0.3,2.4,0.4,3.6,0.9c1.2,0.5,2.4,0.6,3.5,1.2c1.2,0.5,2.3,0.9,3.3,1.3c1,0.5,2.1,1,3,1.4
				c2,0.8,3.5,1.7,4.7,2.2c1.2,0.5,2,0.8,2,0.8s-0.3-0.7-1-1.9c-0.3-0.6-0.7-1.3-1.2-2.1c-0.5-0.8-1.1-1.7-1.9-2.5
				c-0.8-0.9-1.6-1.8-2.6-2.7c-1-0.9-2.2-1.7-3.4-2.5c-1.2-0.9-2.7-1.4-4.1-2.1c-1.4-0.7-3.1-0.9-4.7-1.4c-1.6-0.2-3.3-0.4-4.9-0.3
				c-1.6,0.1-3.2,0.3-4.7,0.8c-1.5,0.3-2.8,1-4.1,1.6c-1.2,0.7-2.3,1.4-3.2,2.2c-1.9,1.4-3.1,3-3.8,4.2
				C290.1,217.5,289.8,218.3,289.8,218.3z"/>
		</g>
		<g>
			<g>
				<path fill="#FFFFFF" d="M220.6,250c-1.5,12.4-11.2,22-21.6,21.5c-10.4-0.5-17.5-11-16-23.4c1.5-12.4,11.2-22,21.6-21.5
					C215,227.1,222.2,237.6,220.6,250z"/>
				<path fill="#84DBFF" d="M217.5,253.3c-1,8-8.4,14.2-16.5,13.8c-8.1-0.4-13.9-7.3-12.9-15.3c1-8,8.4-14.2,16.5-13.8
					C212.7,238.4,218.5,245.3,217.5,253.3z"/>
				<path fill="#2B3B4E" d="M210.3,253c-0.5,4.1-4.3,7.2-8.4,7c-4.1-0.2-7-3.7-6.5-7.8c0.5-4.1,4.3-7.2,8.4-7
					C207.8,245.4,210.8,248.9,210.3,253z"/>
				<path fill="#FFFFFF" d="M208.5,243.6c1.1,1.8,0.1,3.8-2.3,4.4c-2.4,0.6-5.2-0.4-6.3-2.3c-1.1-1.8-0.1-3.8,2.3-4.4
					C204.6,240.7,207.4,241.7,208.5,243.6z"/>
			</g>
			<path fill="#324A5E" d="M222.2,218.3c0,0-2.9-1.2-6.8-2.3c-1-0.3-2.1-0.4-3.1-0.7c-1.1-0.1-2.2-0.4-3.4-0.4
				c-1.2-0.1-2.3-0.1-3.5,0c-1.2,0-2.4,0.3-3.6,0.4c-1.2,0.3-2.4,0.4-3.6,0.9c-1.2,0.5-2.4,0.6-3.5,1.2c-1.2,0.5-2.3,0.9-3.3,1.3
				c-1,0.5-2.1,1-3,1.4c-2,0.8-3.5,1.7-4.7,2.2c-1.2,0.5-2,0.8-2,0.8s0.3-0.7,1-1.9c0.3-0.6,0.7-1.3,1.2-2.1
				c0.5-0.8,1.1-1.7,1.9-2.5c0.8-0.9,1.6-1.8,2.6-2.7c1-0.9,2.2-1.7,3.4-2.5c1.2-0.9,2.7-1.4,4.1-2.1c1.4-0.7,3.1-0.9,4.7-1.4
				c1.6-0.2,3.3-0.4,4.9-0.3c1.6,0.1,3.2,0.3,4.7,0.8c1.5,0.3,2.8,1,4.1,1.6c1.2,0.7,2.3,1.4,3.2,2.2c1.9,1.4,3.1,3,3.8,4.2
				C221.9,217.5,222.2,218.3,222.2,218.3z"/>
		</g>
	</g>
</g>
</svg>
