<?xml version="1.0" encoding="utf-8"?>
<!-- Generator: Adobe Illustrator 18.0.0, SVG Export Plug-In . SVG Version: 6.00 Build 0)  -->
<!DOCTYPE svg PUBLIC "-//W3C//DTD SVG 1.1//EN" "http://www.w3.org/Graphics/SVG/1.1/DTD/svg11.dtd">
<svg version="1.1" id="Layer_1" xmlns="http://www.w3.org/2000/svg" xmlns:xlink="http://www.w3.org/1999/xlink" x="0px" y="0px"
	 viewBox="0 0 512 512" enable-background="new 0 0 512 512" xml:space="preserve">
<g>
	<path fill="#FFD05B" d="M508.5,256c0,70.2-28.6,133.7-74.9,179.4C388,480.6,325.2,508.5,256,508.5c-69.2,0-132-27.9-177.6-73
		C32.1,389.7,3.5,326.2,3.5,256C3.5,116.6,116.5,3.5,256,3.5C395.4,3.5,508.5,116.6,508.5,256z"/>
	<g>
		<path fill="#2B3B4E" d="M314.2,210.8L314.2,210.8L314.2,210.8c13.3,53.7,67.7,86.5,121.4,73.2l0,0l0,0
			C422.3,230.3,368,197.5,314.2,210.8z"/>
		<path fill="#2B3B4E" d="M197.8,210.8L197.8,210.8L197.8,210.8c-13.3,53.7-67.7,86.5-121.4,73.2l0,0l0,0
			C89.7,230.3,144,197.5,197.8,210.8z"/>
	</g>
	<g>
		<path fill="#FFFFFF" d="M208,190.8c-1.2,0-3.1,0.1-5.6,0.1c-5,0-12.2-0.2-20.8-1.1c-4.3-0.5-8.9-1-13.7-1.8
			c-4.8-0.8-9.7-1.9-14.6-3.2c-4.8-1.4-9.7-3-14.1-5.1c-4.4-2.1-8.3-4.5-11.6-7.2c-3.1-2.8-5.3-5.9-6.7-9.8c-1.6-3.8-1.4-8.7-1-13.6
			c0.6-2.4,0.9-5,1.7-7.4c0.9-2.4,1.7-4.9,2.7-7.3c1.1-2.4,2.2-4.6,3.3-6.9c1.1-2.2,2.5-4.3,3.6-6.3c2.3-4.1,4.9-7.6,7.1-10.8
			c2.2-3.2,4.3-5.9,6.1-8.1c3.5-4.4,5.5-6.9,5.5-6.9s-2.7,1.8-7.4,4.9c-2.4,1.6-5.3,3.5-8.4,5.9c-3.2,2.4-6.9,5.1-10.6,8.5
			c-1.9,1.7-3.9,3.3-5.8,5.3c-1.9,2-3.9,4.1-5.9,6.2c-2,2.3-3.8,4.8-5.8,7.4c-1.9,2.6-3.5,5.7-5.3,8.7c-0.8,1.6-1.4,3.3-2.2,5.1
			c-0.7,1.7-1.5,3.5-1.9,5.4c-0.5,1.9-0.9,3.9-1.4,5.9c-0.2,2.1-0.3,4.2-0.5,6.3c-0.2,8.6,2.2,17.8,6.3,25.6
			c4.2,7.7,9.6,14.1,15.3,19.6c5.7,5.5,11.7,9.9,17.5,13.9c5.9,3.8,11.7,7.3,17.2,10.2c5.6,3,10.9,5.4,15.8,7.6
			c9.9,4.3,18.3,7.4,24.3,9.4c3,1,5.5,1.8,7.2,2.3c1.8,0.5,2.8,0.8,2.8,0.8l8.5-63.9c0,0-0.2,0-0.6,0
			C208.9,190.7,208.6,190.7,208,190.8z"/>
		<path fill="#FFFFFF" d="M416.8,158.9c-0.4-2-0.9-4-1.4-5.9c-0.4-2-1.2-3.7-1.9-5.4c-0.7-1.7-1.4-3.5-2.2-5.1
			c-1.8-3-3.4-6.1-5.3-8.7c-2-2.6-3.8-5.1-5.8-7.4c-2-2.1-4-4.2-5.9-6.2c-1.9-2-4-3.6-5.8-5.3c-3.7-3.4-7.4-6.1-10.6-8.5
			c-3.1-2.5-6-4.4-8.4-5.9c-4.7-3.1-7.4-4.9-7.4-4.9s2,2.5,5.5,6.9c1.8,2.2,3.9,4.8,6.1,8.1c2.2,3.2,4.8,6.7,7.1,10.8
			c1.2,2,2.5,4,3.6,6.3c1.1,2.2,2.2,4.5,3.3,6.9c1,2.4,1.8,4.8,2.7,7.3c0.8,2.5,1.1,5,1.7,7.4c0.4,4.9,0.6,9.7-1,13.6
			c-1.4,3.9-3.7,7-6.7,9.8c-3.2,2.8-7.2,5.2-11.6,7.2c-4.4,2-9.3,3.7-14.1,5.1c-5,1.3-9.8,2.4-14.6,3.2c-4.8,0.8-9.4,1.4-13.7,1.8
			c-8.6,0.8-15.9,1-20.8,1.1c-2.5,0-4.4,0-5.6-0.1c-0.6,0-0.9-0.1-1.2-0.1c-0.4,0-0.6,0-0.6,0l8.5,63.9c0,0,1-0.3,2.8-0.8
			c1.7-0.5,4.2-1.2,7.2-2.3c6-2,14.4-5.1,24.3-9.4c4.9-2.2,10.3-4.7,15.8-7.6c5.5-2.9,11.4-6.3,17.2-10.2c5.9-4,11.8-8.5,17.5-13.9
			c5.7-5.5,11.1-11.9,15.3-19.6c4.1-7.8,6.5-17,6.3-25.6C417.2,163,417.1,160.9,416.8,158.9z"/>
	</g>
	<path fill="#324A5E" d="M346.9,265.4c-3.6,74.8-45.3,172.4-90.9,172.4c-45.7,0-87.4-97.6-90.9-172.4c-3.9-81.2,38.1-97.3,90.9-97.3
		S350.8,184.2,346.9,265.4z"/>
	<path fill="#ACB3BA" d="M277.6,442.3h-43.1c-20.4,0-37.6-13.6-40-31.7l-2-15.8c-2.8-21.3,15.9-39.9,40-39.9h47.2
		c24,0,42.7,18.7,40,39.9l-2,15.8C315.2,428.6,298,442.3,277.6,442.3z"/>
	<path fill="#FD8469" d="M350.8,175.2l11.6,4.8c-3.4-13.5-34.2-23.6-34.2-23.6l12.3,2c-18.5-23.7-52.1-13.3-52.1-13.3l13.2-5
		c-30.1-9.7-45.6,8.6-45.6,8.6s-15.5-18.3-45.6-8.6l13.2,5c0,0-33.7-10.4-52.1,13.3l12.3-2c0,0-30.8,10.1-34.2,23.6l11.6-4.8
		c0,0-32.8,16.4-5.5,47.9l0.7-5.9c0,0,6,26.2,52.7,10.8c0,0,15-1.6,26-15.1l-4.8,8.6c0,0,11.2-3.2,25.8-18.9
		c14.6,15.6,25.8,18.9,25.8,18.9l-4.8-8.6c10.9,13.5,26,15.1,26,15.1c46.6,15.4,52.7-10.8,52.7-10.8l0.7,5.9
		C383.7,191.6,350.8,175.2,350.8,175.2z"/>
	<g>
		
			<ellipse transform="matrix(0.8242 0.5663 -0.5663 0.8242 271.4972 -93.1659)" fill="#324A5E" cx="285.8" cy="390.7" rx="9.5" ry="15.2"/>
		
			<ellipse transform="matrix(-0.8242 0.5663 -0.5663 -0.8242 633.8746 584.6429)" fill="#324A5E" cx="226.2" cy="390.7" rx="9.5" ry="15.2"/>
	</g>
	<g>
		<g>
			<g>
				<path fill="#FFFFFF" d="M278.8,275.6c1.3,10.2,9.3,18.2,17.8,17.8c8.6-0.4,14.5-9.1,13.2-19.3c-1.3-10.2-9.3-18.2-17.8-17.8
					C283.5,256.7,277.6,265.4,278.8,275.6z"/>
				<path fill="#F9B54C" d="M281.4,278.4c0.8,6.6,6.9,11.8,13.7,11.4c6.7-0.3,11.5-6,10.7-12.7c-0.8-6.6-6.9-11.8-13.7-11.4
					S280.6,271.7,281.4,278.4z"/>
				<path fill="#2B3B4E" d="M287.4,278.1c0.4,3.4,3.5,6,6.9,5.8c3.4-0.2,5.8-3,5.4-6.4c-0.4-3.4-3.5-6-6.9-5.8
					C289.4,271.8,287,274.7,287.4,278.1z"/>
				<path fill="#FFFFFF" d="M288.8,270.3c-0.9,1.5,0,3.2,1.9,3.6c2,0.5,4.3-0.4,5.2-1.9c0.9-1.5,0-3.2-1.9-3.6
					C292.1,267.9,289.7,268.8,288.8,270.3z"/>
			</g>
			<path fill="#ACB3BA" d="M277.5,249.4c0,0,2.4-1,5.6-1.9c0.8-0.2,1.7-0.3,2.6-0.6c0.9-0.1,1.8-0.3,2.8-0.3c1-0.1,1.9,0,2.9,0
				c1,0,2,0.2,3,0.3c1,0.3,2,0.4,3,0.7c1,0.4,2,0.5,2.9,1c1,0.4,1.9,0.7,2.8,1.1c0.9,0.4,1.7,0.8,2.5,1.1c1.6,0.7,2.9,1.4,3.9,1.8
				c1,0.4,1.6,0.6,1.6,0.6s-0.3-0.6-0.8-1.5c-0.3-0.5-0.6-1.1-1-1.7c-0.4-0.7-0.9-1.4-1.6-2.1c-0.6-0.7-1.3-1.5-2.1-2.2
				c-0.8-0.7-1.8-1.4-2.8-2.1c-1-0.7-2.2-1.2-3.4-1.7c-1.2-0.6-2.6-0.8-3.9-1.1c-1.4-0.1-2.7-0.3-4.1-0.2c-1.4,0.1-2.7,0.2-3.9,0.6
				c-1.2,0.3-2.3,0.9-3.4,1.3c-1,0.6-1.9,1.1-2.7,1.8c-1.6,1.2-2.5,2.5-3.2,3.4C277.8,248.8,277.5,249.4,277.5,249.4z"/>
		</g>
		<g>
			<g>
				<path fill="#FFFFFF" d="M233.2,275.6c-1.3,10.2-9.3,18.2-17.8,17.8c-8.6-0.4-14.5-9.1-13.2-19.3c1.3-10.2,9.3-18.2,17.8-17.8
					C228.5,256.7,234.4,265.4,233.2,275.6z"/>
				<path fill="#F9B54C" d="M230.6,278.4c-0.8,6.6-6.9,11.8-13.7,11.4c-6.7-0.3-11.5-6-10.7-12.7c0.8-6.6,6.9-11.8,13.7-11.4
					S231.4,271.7,230.6,278.4z"/>
				<path fill="#2B3B4E" d="M224.6,278.1c-0.4,3.4-3.5,6-6.9,5.8c-3.4-0.2-5.8-3-5.4-6.4c0.4-3.4,3.5-6,6.9-5.8
					C222.6,271.8,225,274.7,224.6,278.1z"/>
				<path fill="#FFFFFF" d="M223.2,270.3c0.9,1.5,0,3.2-1.9,3.6s-4.3-0.4-5.2-1.9c-0.9-1.5,0-3.2,1.9-3.6
					C219.9,267.9,222.3,268.8,223.2,270.3z"/>
			</g>
			<path fill="#ACB3BA" d="M234.5,249.4c0,0-2.4-1-5.6-1.9c-0.8-0.2-1.7-0.3-2.6-0.6c-0.9-0.1-1.8-0.3-2.8-0.3c-1-0.1-1.9,0-2.9,0
				c-1,0-2,0.2-3,0.3c-1,0.3-2,0.4-3,0.7c-1,0.4-2,0.5-2.9,1c-1,0.4-1.9,0.7-2.8,1.1c-0.9,0.4-1.7,0.8-2.5,1.1
				c-1.6,0.7-2.9,1.4-3.9,1.8c-1,0.4-1.6,0.6-1.6,0.6s0.3-0.6,0.8-1.5c0.3-0.5,0.6-1.1,1-1.7c0.4-0.7,0.9-1.4,1.6-2.1
				c0.6-0.7,1.3-1.5,2.1-2.2c0.8-0.7,1.8-1.4,2.8-2.1c1-0.7,2.2-1.2,3.4-1.7c1.2-0.6,2.6-0.8,3.9-1.1c1.4-0.1,2.7-0.3,4.1-0.2
				c1.4,0.1,2.7,0.2,3.9,0.6c1.2,0.3,2.3,0.9,3.4,1.3c1,0.6,1.9,1.1,2.7,1.8c1.6,1.2,2.5,2.5,3.2,3.4
				C234.2,248.8,234.5,249.4,234.5,249.4z"/>
		</g>
	</g>
</g>
</svg>
