<?xml version="1.0" encoding="utf-8"?>
<!-- Generator: Adobe Illustrator 18.0.0, SVG Export Plug-In . SVG Version: 6.00 Build 0)  -->
<!DOCTYPE svg PUBLIC "-//W3C//DTD SVG 1.1//EN" "http://www.w3.org/Graphics/SVG/1.1/DTD/svg11.dtd">
<svg version="1.1" id="Layer_1" xmlns="http://www.w3.org/2000/svg" xmlns:xlink="http://www.w3.org/1999/xlink" x="0px" y="0px"
	 viewBox="0 0 512 512" enable-background="new 0 0 512 512" xml:space="preserve">
<g>
	<circle fill="#FD8469" cx="256" cy="256" r="252.5"/>
	<path fill="#E6E9EE" d="M273.2,123.3h-33.4c-56.2,0-102.5,45.1-102.9,101.3c0,0.5,0,1,0,1.5c0,83.9,53.6,182,119.7,182
		s119.7-98.1,119.7-182c0-0.5,0-1,0-1.5C375.7,168.4,329.4,123.3,273.2,123.3z"/>
	<path fill="#2B3B4E" d="M173.4,350.8c21.5,33.8,50.8,57.3,83.2,57.3c32.3,0,61.6-23.5,83.2-57.3H173.4z"/>
	<path fill="#324A5E" d="M342.2,150.5c0,0,35.4-17.8,69,6.9c0,0,5.8,2.3,13.2,4.5c13.4,4,19.9,19.1,13.7,31.6
		c-12.3,24.7-31.4,60-51.8,84.2c-11.9,14.1-35,3.4-31.7-14.9C361.1,226.3,364.9,175.5,342.2,150.5z"/>
	<path fill="#324A5E" d="M169.8,150.5c0,0-35.4-17.8-69,6.9c0,0-5.8,2.3-13.2,4.5c-13.4,4-19.9,19.1-13.7,31.6
		c12.3,24.7,31.4,60,51.8,84.2c11.9,14.1,35,3.4,31.7-14.9C150.9,226.3,147.1,175.5,169.8,150.5z"/>
	<path fill="#ACB3BA" d="M346.4,341.3c0.3,21.5-8.3,41-22.4,55.1c-5.4,5.4-11.5,9.9-18.2,13.5c-8.3,4.4-18.8,0.9-22.8-7.7
		c-4.7-10.1-12.5-17.4-21.7-19.2c-1.6-0.4-3.1-0.5-4.8-0.5c-1.6,0-3.2,0.2-4.7,0.5c-9.1,1.9-17,9.1-21.7,19.2
		c-4,8.6-14.5,12.1-22.8,7.7c-24.2-12.9-40.7-38.3-40.7-67.6c0-21.2,8.5-40.3,22.4-54.2c13.9-13.9,33-22.4,54.1-22.4h24.7
		C310.1,265.7,345.9,299.1,346.4,341.3z"/>
	<path fill="#324A5E" d="M289.2,309.3c0-14.3-14.6-18.7-32.7-18.7c-18.1,0-32.7,4.4-32.7,18.7c0,9.4,6.3,20.8,15.8,27.4
		c7.4,5.2,12.1,13.3,12.1,22.3v23.9c1.5-0.3,3.1-0.5,4.7-0.5c1.6,0,3.2,0.2,4.8,0.5v-24c0-9,4.8-17.1,12.1-22.3
		C282.9,330.1,289.2,318.8,289.2,309.3z"/>
	<g>
		<g>
			<g>
				<path fill="#FFFFFF" d="M287.3,225.1C289,238,299,248,309.8,247.4c10.8-0.5,18.2-11.4,16.6-24.3c-1.6-12.9-11.7-22.9-22.4-22.4
					C293.2,201.3,285.7,212.2,287.3,225.1z"/>
				<path fill="#F9B54C" d="M290.6,228.6c1,8.4,8.7,14.8,17.2,14.4c8.5-0.4,14.5-7.6,13.4-15.9c-1-8.4-8.7-14.8-17.2-14.4
					C295.5,213.1,289.5,220.2,290.6,228.6z"/>
				<path fill="#2B3B4E" d="M298.1,228.2c0.5,4.2,4.4,7.5,8.7,7.3c4.3-0.2,7.3-3.8,6.8-8.1c-0.5-4.2-4.4-7.5-8.7-7.3
					C300.6,220.3,297.6,224,298.1,228.2z"/>
				<path fill="#FFFFFF" d="M299.9,218.4c-1.1,1.9-0.1,4,2.4,4.6c2.5,0.6,5.4-0.5,6.6-2.4c1.1-1.9,0.1-4-2.4-4.6
					C304,215.4,301.1,216.5,299.9,218.4z"/>
			</g>
			<path fill="#324A5E" d="M285.7,192.1c0,0,3-1.3,7.1-2.4c1-0.3,2.1-0.4,3.3-0.7c1.2-0.1,2.3-0.4,3.5-0.4c1.2-0.1,2.4-0.1,3.7,0
				c1.2,0,2.5,0.3,3.7,0.4c1.2,0.3,2.5,0.5,3.7,0.9c1.2,0.5,2.5,0.6,3.6,1.2c1.2,0.5,2.4,0.9,3.5,1.4c1.1,0.5,2.2,1,3.2,1.4
				c2,0.8,3.6,1.8,4.9,2.3c1.3,0.5,2.1,0.8,2.1,0.8s-0.3-0.7-1-2c-0.3-0.6-0.8-1.4-1.3-2.2c-0.5-0.8-1.1-1.8-2-2.6
				c-0.8-0.9-1.7-1.9-2.7-2.8c-1.1-0.9-2.3-1.7-3.5-2.6c-1.2-0.9-2.8-1.5-4.3-2.2c-1.5-0.7-3.2-1-4.9-1.4c-1.7-0.2-3.4-0.4-5.1-0.3
				c-1.7,0.1-3.4,0.3-4.9,0.8c-1.6,0.3-3,1.1-4.3,1.7c-1.2,0.7-2.4,1.4-3.3,2.3c-2,1.5-3.2,3.2-4,4.3
				C286,191.3,285.7,192.1,285.7,192.1z"/>
		</g>
		<g>
			<g>
				<path fill="#FFFFFF" d="M225.7,225.1c-1.6,12.9-11.7,22.9-22.4,22.4c-10.8-0.5-18.2-11.4-16.6-24.3
					c1.6-12.9,11.7-22.9,22.4-22.4C219.9,201.3,227.3,212.2,225.7,225.1z"/>
				<path fill="#F9B54C" d="M222.5,228.6c-1,8.4-8.7,14.8-17.2,14.4c-8.5-0.4-14.5-7.6-13.4-15.9c1-8.4,8.7-14.8,17.2-14.4
					C217.5,213.1,223.5,220.2,222.5,228.6z"/>
				<path fill="#2B3B4E" d="M214.9,228.2c-0.5,4.2-4.4,7.5-8.7,7.3c-4.3-0.2-7.3-3.8-6.8-8.1c0.5-4.2,4.4-7.5,8.7-7.3
					C212.4,220.3,215.5,224,214.9,228.2z"/>
				<path fill="#FFFFFF" d="M213.2,218.4c1.1,1.9,0.1,4-2.4,4.6c-2.5,0.6-5.4-0.5-6.6-2.4c-1.1-1.9-0.1-4,2.4-4.6
					C209,215.4,212,216.5,213.2,218.4z"/>
			</g>
			<path fill="#324A5E" d="M227.4,192.1c0,0-3-1.3-7.1-2.4c-1-0.3-2.1-0.4-3.3-0.7c-1.2-0.1-2.3-0.4-3.5-0.4c-1.2-0.1-2.4-0.1-3.7,0
				c-1.2,0-2.5,0.3-3.7,0.4c-1.2,0.3-2.5,0.5-3.7,0.9c-1.2,0.5-2.5,0.6-3.6,1.2c-1.2,0.5-2.4,0.9-3.5,1.4c-1.1,0.5-2.2,1-3.2,1.4
				c-2,0.8-3.6,1.8-4.9,2.3c-1.3,0.5-2.1,0.8-2.1,0.8s0.3-0.7,1-2c0.3-0.6,0.8-1.4,1.3-2.2c0.5-0.8,1.1-1.8,2-2.6
				c0.8-0.9,1.7-1.9,2.7-2.8c1.1-0.9,2.3-1.7,3.5-2.6c1.2-0.9,2.8-1.5,4.3-2.2c1.5-0.7,3.2-1,4.9-1.4c1.7-0.2,3.4-0.4,5.1-0.3
				c1.7,0.1,3.4,0.3,4.9,0.8c1.6,0.3,3,1.1,4.3,1.7c1.2,0.7,2.4,1.4,3.3,2.3c2,1.5,3.2,3.2,4,4.3
				C227.1,191.3,227.4,192.1,227.4,192.1z"/>
		</g>
	</g>
</g>
</svg>
