<?xml version="1.0" encoding="utf-8"?>
<!-- Generator: Adobe Illustrator 18.0.0, SVG Export Plug-In . SVG Version: 6.00 Build 0)  -->
<!DOCTYPE svg PUBLIC "-//W3C//DTD SVG 1.1//EN" "http://www.w3.org/Graphics/SVG/1.1/DTD/svg11.dtd">
<svg version="1.1" id="Layer_1" xmlns="http://www.w3.org/2000/svg" xmlns:xlink="http://www.w3.org/1999/xlink" x="0px" y="0px"
	 viewBox="0 0 512 512" enable-background="new 0 0 512 512" xml:space="preserve">
<g>
	<circle fill="#90DFAA" cx="256" cy="256" r="252.5"/>
	<path fill="#FFFFFF" d="M228.8,355.6h56.8c38.8,0,74-23.4,88.2-59.5c9.8-25,15.4-53.5,15.4-83.7c0-29.5-5.3-43.3-14.7-67.8
		c-13.9-36.4-49.4-74-88.4-74h-57.9c-39,0-74.4,37.6-88.4,74c-9.4,24.5-14.7,38.3-14.7,67.8c0,30.3,5.6,58.8,15.4,83.7
		C154.9,332.1,190.1,355.6,228.8,355.6z"/>
	<g>
		<path fill="#FFFFFF" d="M325.6,295.6c0,0,0.1,0.7,0.2,1.9c0.2,1.5,0.3,3.4,0.5,5.6c0.2,4.6,0.4,11.1,0,18.7
			c-0.1,3.8-0.5,7.9-1,12.2c-0.5,4.3-1.2,8.8-1.9,13.4c-1,4.6-1.7,9.4-3.1,14.1c-0.6,2.4-1.3,4.7-1.9,7.1l-2.3,7.1
			c-1.4,4.7-3.4,9.3-5.3,13.7c-1.7,4.5-4.1,8.7-6.1,12.8c-1.9,4.1-4.5,7.8-6.6,11.3c-2.1,3.6-4.4,6.8-6.6,9.6
			c-2.2,2.9-4,5.6-5.9,7.8c-1.9,2.2-3.6,4.1-5,5.6c-2.8,3.1-4.3,4.9-4.3,4.9s1.2-2.1,3.2-5.7c1-1.8,2.2-4,3.6-6.5
			c1.4-2.5,2.6-5.5,4.1-8.7c1.5-3.2,3-6.6,4.3-10.4c1.2-3.8,2.9-7.6,3.9-11.9c1-4.2,2.4-8.4,3.1-12.9c0.8-4.4,1.7-8.9,2.1-13.4
			l0.7-6.7c0.1-2.2,0.2-4.5,0.3-6.7c0.3-4.4,0-8.8,0-12.9c-0.2-4.2-0.5-8.2-0.9-12c-0.4-3.8-0.8-7.3-1.4-10.6
			c-1-6.5-2.4-11.8-3.3-15.3c-0.5-1.8-0.9-3.1-1.2-3.8c-0.3-0.9-0.5-1.4-0.5-1.4L325.6,295.6z"/>
		<path fill="#FFFFFF" d="M220.3,302.7c0,0-0.2,0.5-0.5,1.4c-0.3,0.7-0.7,2-1.2,3.8c-1,3.5-2.3,8.8-3.3,15.3
			c-0.6,3.2-1,6.8-1.4,10.6c-0.4,3.8-0.6,7.8-0.9,12c0,4.2-0.3,8.5,0,12.9c0.1,2.2,0.2,4.5,0.3,6.7l0.7,6.7c0.4,4.5,1.3,9,2.1,13.4
			c0.7,4.5,2.1,8.7,3.1,12.9c0.9,4.2,2.6,8.1,3.9,11.9c1.2,3.8,2.8,7.2,4.3,10.4c1.5,3.2,2.7,6.2,4.1,8.7c1.4,2.5,2.6,4.7,3.6,6.5
			c2,3.6,3.2,5.7,3.2,5.7s-1.6-1.8-4.3-4.9c-1.4-1.6-3.1-3.5-5-5.6c-1.9-2.2-3.7-4.9-5.9-7.8c-2.2-2.9-4.5-6-6.6-9.6
			c-2.1-3.6-4.7-7.2-6.6-11.3c-2-4.1-4.4-8.2-6.1-12.8c-1.9-4.5-3.8-9-5.3-13.7l-2.3-7.1c-0.6-2.4-1.3-4.8-1.9-7.1
			c-1.4-4.7-2.1-9.5-3.1-14.1c-0.8-4.6-1.5-9.1-1.9-13.4c-0.4-4.3-0.8-8.4-1-12.2c-0.4-7.6-0.2-14.1,0-18.7c0.1-2.3,0.3-4.2,0.5-5.6
			c0.1-1.2,0.2-1.9,0.2-1.9L220.3,302.7z"/>
	</g>
	<path fill="#ACB3BA" d="M343.1,274.8c-0.1-0.1-0.2-0.3-0.3-0.4c-14.1-20.3-39.5-32.3-66.5-32.3h-38.2c-27,0-52.4,12-66.5,32.3
		c-0.1,0.1-0.2,0.3-0.3,0.4c-22.5,32.7-23.6,68.3-2.5,79.6c15.8,8.5,39.7,0.8,60.1-17.4c7.9-7.1,17.9-11.1,28.2-11.1l0,0
		c10.4,0,20.3,4,28.2,11.1c20.4,18.2,44.3,25.9,60.1,17.4C366.7,343.2,365.6,307.5,343.1,274.8z"/>
	<path fill="#324A5E" d="M291.3,234.1c0,13.5-15.2,32.5-34,32.5s-34-18.9-34-32.5s15.2-16.6,34-16.6S291.3,220.6,291.3,234.1z"/>
	<g>
		<circle fill="#FFFFFF" cx="315.8" cy="297.2" r="6.3"/>
		<circle fill="#FFFFFF" cx="339" cy="308.4" r="6.3"/>
		<circle fill="#FFFFFF" cx="328.4" cy="327.1" r="6.3"/>
		<circle fill="#FFFFFF" cx="296.3" cy="308.4" r="6.3"/>
		<circle fill="#FFFFFF" cx="302.6" cy="329.7" r="6.3"/>
		<g>
			<path fill="#324A5E" d="M339,308.4c0,0,1.6,0.2,4.4,0.7c2.8,0.6,6.7,1.3,11.4,2.6c4.7,1.3,10.1,2.8,15.8,4.7
				c5.7,2,11.7,4.3,17.6,6.9c5.9,2.7,11.7,5.5,16.9,8.6c2.6,1.5,5.2,3,7.5,4.6c2.3,1.5,4.5,2.9,6.5,4.4c4,2.8,7,5.4,9.2,7.3
				c2.1,1.9,3.3,2.9,3.3,2.9s-1.4-0.9-3.8-2.3c-1.2-0.8-2.6-1.7-4.2-2.7c-1.7-1-3.6-2.1-5.6-3.3c-2-1.3-4.3-2.5-6.7-3.8
				c-2.4-1.4-5-2.6-7.6-4c-2.6-1.4-5.4-2.7-8.3-4.1c-2.8-1.4-5.7-2.7-8.6-4c-5.8-2.6-11.7-5-17.2-7.3c-5.6-2.2-10.8-4.3-15.3-5.9
				c-4.5-1.6-8.3-3-10.9-3.9C340.5,308.9,339,308.4,339,308.4z"/>
			<path fill="#324A5E" d="M328.4,327.1c0,0,5.3,0.6,13.2,2.5c3.9,0.9,8.4,2.3,13.2,3.9c4.8,1.6,9.8,3.6,14.7,5.7
				c4.9,2.2,9.7,4.6,14.1,7.2c2.2,1.2,4.3,2.5,6.2,3.8c1.9,1.3,3.8,2.4,5.4,3.7c3.3,2.4,5.8,4.6,7.5,6.2c1.7,1.6,2.7,2.5,2.7,2.5
				s-1.2-0.7-3.2-1.9c-1-0.6-2.2-1.4-3.6-2.2c-1.4-0.8-3-1.7-4.7-2.7c-1.7-1-3.6-2-5.6-3.1c-2-1.1-4.1-2.2-6.3-3.3
				c-2.2-1.2-4.5-2.2-6.9-3.3c-2.3-1.2-4.8-2.2-7.2-3.3c-4.8-2.2-9.7-4.2-14.3-6.1c-4.6-1.8-8.9-3.5-12.7-4.9
				c-3.7-1.4-6.8-2.6-9-3.4C329.6,327.5,328.4,327.1,328.4,327.1z"/>
			<path fill="#324A5E" d="M302.6,329.7c0,0,1.5,0.2,4.2,0.7c2.6,0.5,6.4,1.2,10.8,2.4c4.4,1.2,9.6,2.6,15.1,4.5
				c5.4,1.9,11.2,4.1,16.8,6.6c5.6,2.6,11.1,5.2,16.1,8.2c2.5,1.4,4.9,2.8,7.1,4.3c2.2,1.5,4.3,2.8,6.2,4.2c3.8,2.7,6.7,5.2,8.7,7
				c2,1.8,3.1,2.8,3.1,2.8s-1.3-0.8-3.6-2.2c-1.1-0.7-2.5-1.6-4.1-2.6c-1.6-0.9-3.4-1.9-5.4-3.1c-1.9-1.2-4.1-2.3-6.4-3.6
				c-2.3-1.3-4.7-2.5-7.3-3.8c-2.5-1.4-5.2-2.5-7.9-3.9c-2.7-1.3-5.5-2.5-8.2-3.8c-5.5-2.5-11.1-4.8-16.4-6.9
				c-5.3-2.1-10.2-4.1-14.5-5.6c-4.3-1.6-7.9-2.8-10.4-3.8C304,330.2,302.6,329.7,302.6,329.7z"/>
		</g>
	</g>
	<g>
		<circle fill="#FFFFFF" cx="196.2" cy="297.2" r="6.3"/>
		<circle fill="#FFFFFF" cx="173" cy="308.4" r="6.3"/>
		<circle fill="#FFFFFF" cx="183.6" cy="327.1" r="6.3"/>
		<circle fill="#FFFFFF" cx="215.7" cy="308.4" r="6.3"/>
		<circle fill="#FFFFFF" cx="209.4" cy="329.7" r="6.3"/>
		<g>
			<path fill="#324A5E" d="M173,308.4c0,0-1.6,0.2-4.4,0.7c-2.8,0.6-6.7,1.3-11.4,2.6c-4.7,1.3-10.1,2.8-15.8,4.7
				c-5.7,2-11.7,4.3-17.6,6.9c-5.9,2.7-11.7,5.5-16.9,8.6c-2.6,1.5-5.2,3-7.5,4.6c-2.3,1.5-4.5,2.9-6.5,4.4c-4,2.8-7,5.4-9.2,7.3
				c-2.1,1.9-3.3,2.9-3.3,2.9s1.4-0.9,3.8-2.3c1.2-0.8,2.6-1.7,4.2-2.7c1.7-1,3.6-2.1,5.6-3.3c2-1.3,4.3-2.5,6.7-3.8
				c2.4-1.4,5-2.6,7.6-4c2.6-1.4,5.4-2.7,8.3-4.1c2.8-1.4,5.7-2.7,8.6-4c5.8-2.6,11.7-5,17.2-7.3c5.6-2.2,10.8-4.3,15.3-5.9
				c4.5-1.6,8.3-3,10.9-3.9C171.5,308.9,173,308.4,173,308.4z"/>
			<path fill="#324A5E" d="M183.6,327.1c0,0-5.3,0.6-13.2,2.5c-3.9,0.9-8.4,2.3-13.2,3.9c-4.8,1.6-9.8,3.6-14.7,5.7
				c-4.9,2.2-9.7,4.6-14.1,7.2c-2.2,1.2-4.3,2.5-6.2,3.8c-1.9,1.3-3.8,2.4-5.4,3.7c-3.3,2.4-5.8,4.6-7.5,6.2
				c-1.7,1.6-2.7,2.5-2.7,2.5s1.2-0.7,3.2-1.9c1-0.6,2.2-1.4,3.6-2.2c1.4-0.8,3-1.7,4.7-2.7c1.7-1,3.6-2,5.6-3.1
				c2-1.1,4.1-2.2,6.3-3.3c2.2-1.2,4.5-2.2,6.9-3.3c2.3-1.2,4.8-2.2,7.2-3.3c4.8-2.2,9.7-4.2,14.3-6.1c4.6-1.8,8.9-3.5,12.7-4.9
				c3.7-1.4,6.8-2.6,9-3.4C182.4,327.5,183.6,327.1,183.6,327.1z"/>
			<path fill="#324A5E" d="M209.4,329.7c0,0-1.5,0.2-4.2,0.7c-2.6,0.5-6.4,1.2-10.8,2.4c-4.4,1.2-9.6,2.6-15.1,4.5
				c-5.4,1.9-11.2,4.1-16.8,6.6c-5.6,2.6-11.1,5.2-16.1,8.2c-2.5,1.4-4.9,2.8-7.1,4.3c-2.2,1.5-4.3,2.8-6.2,4.2
				c-3.8,2.7-6.7,5.2-8.7,7c-2,1.8-3.1,2.8-3.1,2.8s1.3-0.8,3.6-2.2c1.1-0.7,2.5-1.6,4.1-2.6c1.6-0.9,3.4-1.9,5.4-3.1
				c1.9-1.2,4.1-2.3,6.4-3.6c2.3-1.3,4.7-2.5,7.3-3.8c2.5-1.4,5.2-2.5,7.9-3.9c2.7-1.3,5.5-2.5,8.2-3.8c5.5-2.5,11.1-4.8,16.4-6.9
				c5.3-2.1,10.2-4.1,14.5-5.6c4.3-1.6,7.9-2.8,10.4-3.8C208,330.2,209.4,329.7,209.4,329.7z"/>
		</g>
	</g>
	<g>
		<g>
			<g>
				<path fill="#FFFFFF" d="M290.2,182.5c2.2,17.9,16.2,31.8,31.1,31c15-0.8,25.3-15.9,23-33.8c-2.2-17.9-16.2-31.8-31.1-31
					C298.3,149.5,288,164.6,290.2,182.5z"/>
				<path fill="#84DBFF" d="M294.7,187.4c1.5,11.6,12.1,20.5,23.9,20s20.1-10.5,18.6-22.1c-1.5-11.6-12.1-20.5-23.9-20
					C301.6,165.9,293.3,175.8,294.7,187.4z"/>
				<path fill="#2B3B4E" d="M305.2,186.8c0.7,5.9,6.1,10.4,12.1,10.1c5.9-0.3,10.2-5.3,9.4-11.2c-0.7-5.9-6.1-10.4-12.1-10.1
					C308.7,175.9,304.5,181,305.2,186.8z"/>
				<path fill="#FFFFFF" d="M307.7,173.3c-1.6,2.7-0.1,5.5,3.4,6.4c3.5,0.8,7.6-0.6,9.2-3.3c1.6-2.7,0.1-5.5-3.4-6.4
					C313.4,169.1,309.3,170.6,307.7,173.3z"/>
			</g>
		</g>
		<g>
			<g>
				<path fill="#FFFFFF" d="M224.3,182.5c-2.2,17.9-16.2,31.8-31.1,31c-15-0.8-25.3-15.9-23-33.8c2.2-17.9,16.2-31.8,31.1-31
					C216.2,149.5,226.5,164.6,224.3,182.5z"/>
				<path fill="#84DBFF" d="M219.8,187.4c-1.5,11.6-12.1,20.5-23.9,20c-11.7-0.6-20.1-10.5-18.6-22.1c1.5-11.6,12.1-20.5,23.9-20
					C212.9,165.9,221.2,175.8,219.8,187.4z"/>
				<path fill="#2B3B4E" d="M209.3,186.8c-0.7,5.9-6.1,10.4-12.1,10.1c-5.9-0.3-10.2-5.3-9.4-11.2c0.7-5.9,6.1-10.4,12.1-10.1
					C205.8,175.9,210,181,209.3,186.8z"/>
				<path fill="#FFFFFF" d="M206.8,173.3c1.6,2.7,0.1,5.5-3.4,6.4c-3.5,0.8-7.6-0.6-9.2-3.3c-1.6-2.7-0.1-5.5,3.4-6.4
					C201.1,169.1,205.2,170.6,206.8,173.3z"/>
			</g>
		</g>
	</g>
</g>
</svg>
