<?xml version="1.0" encoding="utf-8"?>
<!-- Generator: Adobe Illustrator 18.0.0, SVG Export Plug-In . SVG Version: 6.00 Build 0)  -->
<!DOCTYPE svg PUBLIC "-//W3C//DTD SVG 1.1//EN" "http://www.w3.org/Graphics/SVG/1.1/DTD/svg11.dtd">
<svg version="1.1" id="Layer_1" xmlns="http://www.w3.org/2000/svg" xmlns:xlink="http://www.w3.org/1999/xlink" x="0px" y="0px"
	 viewBox="0 0 512 512" enable-background="new 0 0 512 512" xml:space="preserve">
<g>
	<circle fill="#FFD05B" cx="256" cy="256" r="252.5"/>
	<path fill="#FD8469" d="M399.3,213.3c0,86.2-63.8,197.5-142.5,197.5S114.4,299.5,114.4,213.3c0-86.2,63.8-114.6,142.5-114.6
		S399.3,127.1,399.3,213.3z"/>
	<path fill="#CED5E0" d="M153.6,359.6c28.8,31.5,64.5,52.4,103.3,52.4c38.7,0,74.5-21,103.3-52.4H153.6z"/>
	<path fill="#FFFFFF" d="M339.4,314.2c-14.7-11.5-40-27.7-42.9-46.2c-8.4-53.2-14.6-111.6-39.7-111.6s-31.2,58.3-39.7,111.6
		c-2.9,18.4-28.2,34.7-42.9,46.2c-12.3,9.6-20.5,24.3-21.3,40.6c-1.5,31.4,23.5,57.3,54.6,57.3c9.8,0,18.9-2.6,26.8-7
		c14-7.9,30.9-7.9,44.8,0c7.9,4.5,17.1,7,26.8,7c31.1,0,56.1-25.9,54.6-57.3C359.9,338.4,351.7,323.7,339.4,314.2z"/>
	<path fill="#324A5E" d="M298.5,318.1c0,15.2-18.6,38-41.7,38c-23,0-41.7-22.7-41.7-38c0-15.2,18.6-17.1,41.7-17.1
		C279.8,301,298.5,302.9,298.5,318.1z"/>
	<path fill="#324A5E" d="M359.5,125.2c0,0,50.7,85.6,6.9,184.1c-5.8,13.1-6.4,28.3,0.2,41c5.6,10.6,15.4,18.9,32.6,12.4
		c14.2-5.4,24.5-17.9,28.4-32.6C438.6,288.4,453.5,185.7,359.5,125.2z"/>
	<path fill="#324A5E" d="M152.5,125.2c0,0-50.7,85.6-6.9,184.1c5.8,13.1,6.4,28.3-0.2,41c-5.6,10.6-15.4,18.9-32.6,12.4
		c-14.2-5.4-24.5-17.9-28.4-32.6C73.4,288.4,58.5,185.7,152.5,125.2z"/>
	<g>
		<g>
			<g>
				<path fill="#FFFFFF" d="M307.8,223.4c1.6,12.8,11.6,22.8,22.3,22.2c10.7-0.5,18.1-11.4,16.5-24.2c-1.6-12.8-11.6-22.8-22.3-22.2
					C313.6,199.7,306.2,210.6,307.8,223.4z"/>
				<path fill="#F9B54C" d="M311,226.9c1,8.3,8.7,14.7,17.1,14.3c8.4-0.4,14.4-7.5,13.3-15.9c-1-8.3-8.7-14.7-17.1-14.3
					C315.9,211.5,309.9,218.6,311,226.9z"/>
				<path fill="#2B3B4E" d="M318.5,226.5c0.5,4.2,4.4,7.5,8.7,7.3c4.3-0.2,7.3-3.8,6.8-8c-0.5-4.2-4.4-7.5-8.7-7.3
					C321,218.7,318,222.3,318.5,226.5z"/>
				<path fill="#FFFFFF" d="M320.3,216.8c-1.1,1.9-0.1,4,2.4,4.6c2.5,0.6,5.4-0.5,6.6-2.4c1.1-1.9,0.1-4-2.4-4.6
					C324.4,213.8,321.4,214.9,320.3,216.8z"/>
			</g>
			<path fill="#324A5E" d="M306.1,190.6c0,0,3-1.3,7.1-2.3c1-0.3,2.1-0.4,3.2-0.7c1.2-0.1,2.3-0.4,3.5-0.4c1.2-0.1,2.4-0.1,3.7,0
				c1.2,0,2.5,0.3,3.7,0.4c1.2,0.3,2.5,0.5,3.7,0.9c1.2,0.5,2.5,0.6,3.6,1.2c1.2,0.5,2.4,0.9,3.5,1.4c1.1,0.5,2.1,1,3.1,1.4
				c2,0.8,3.6,1.8,4.9,2.3c1.3,0.5,2,0.8,2,0.8s-0.3-0.7-1-1.9c-0.3-0.6-0.8-1.3-1.3-2.1c-0.5-0.8-1.1-1.7-2-2.6
				c-0.8-0.9-1.7-1.8-2.7-2.8c-1-0.9-2.3-1.7-3.5-2.6c-1.2-0.9-2.8-1.5-4.3-2.2c-1.5-0.7-3.2-1-4.8-1.4c-1.7-0.2-3.4-0.4-5.1-0.3
				c-1.7,0.1-3.3,0.3-4.9,0.8c-1.6,0.3-2.9,1.1-4.2,1.6c-1.2,0.7-2.4,1.4-3.3,2.2c-1.9,1.5-3.2,3.2-4,4.3
				C306.4,189.8,306.1,190.6,306.1,190.6z"/>
		</g>
		<g>
			<g>
				<path fill="#FFFFFF" d="M205.9,223.4c-1.6,12.8-11.6,22.8-22.3,22.2c-10.7-0.5-18.1-11.4-16.5-24.2
					c1.6-12.8,11.6-22.8,22.3-22.2C200.1,199.7,207.5,210.6,205.9,223.4z"/>
				<path fill="#F9B54C" d="M202.7,226.9c-1,8.3-8.7,14.7-17.1,14.3c-8.4-0.4-14.4-7.5-13.3-15.9c1-8.3,8.7-14.7,17.1-14.3
					C197.8,211.5,203.7,218.6,202.7,226.9z"/>
				<path fill="#2B3B4E" d="M195.2,226.5c-0.5,4.2-4.4,7.5-8.7,7.3c-4.3-0.2-7.3-3.8-6.8-8c0.5-4.2,4.4-7.5,8.7-7.3
					C192.7,218.7,195.7,222.3,195.2,226.5z"/>
				<path fill="#FFFFFF" d="M193.4,216.8c1.1,1.9,0.1,4-2.4,4.6c-2.5,0.6-5.4-0.5-6.6-2.4c-1.1-1.9-0.1-4,2.4-4.6
					C189.3,213.8,192.3,214.9,193.4,216.8z"/>
			</g>
			<path fill="#324A5E" d="M207.5,190.6c0,0-3-1.3-7.1-2.3c-1-0.3-2.1-0.4-3.2-0.7c-1.2-0.1-2.3-0.4-3.5-0.4c-1.2-0.1-2.4-0.1-3.7,0
				c-1.2,0-2.5,0.3-3.7,0.4c-1.2,0.3-2.5,0.5-3.7,0.9c-1.2,0.5-2.5,0.6-3.6,1.2c-1.2,0.5-2.4,0.9-3.5,1.4c-1.1,0.5-2.1,1-3.1,1.4
				c-2,0.8-3.6,1.8-4.9,2.3c-1.3,0.5-2,0.8-2,0.8s0.3-0.7,1-1.9c0.3-0.6,0.8-1.3,1.3-2.1c0.5-0.8,1.1-1.7,2-2.6
				c0.8-0.9,1.7-1.8,2.7-2.8c1-0.9,2.3-1.7,3.5-2.6c1.2-0.9,2.8-1.5,4.3-2.2c1.5-0.7,3.2-1,4.8-1.4c1.7-0.2,3.4-0.4,5.1-0.3
				c1.7,0.1,3.3,0.3,4.9,0.8c1.6,0.3,2.9,1.1,4.2,1.6c1.2,0.7,2.4,1.4,3.3,2.2c1.9,1.5,3.2,3.2,4,4.3
				C207.3,189.8,207.5,190.6,207.5,190.6z"/>
		</g>
	</g>
</g>
</svg>
