<?xml version="1.0" encoding="utf-8"?>
<!-- Generator: Adobe Illustrator 18.0.0, SVG Export Plug-In . SVG Version: 6.00 Build 0)  -->
<!DOCTYPE svg PUBLIC "-//W3C//DTD SVG 1.1//EN" "http://www.w3.org/Graphics/SVG/1.1/DTD/svg11.dtd">
<svg version="1.1" id="Layer_1" xmlns="http://www.w3.org/2000/svg" xmlns:xlink="http://www.w3.org/1999/xlink" x="0px" y="0px"
	 viewBox="0 0 512 512" enable-background="new 0 0 512 512" xml:space="preserve">
<g>
	<circle fill="#324A5E" cx="256" cy="256" r="252.5"/>
	<circle fill="#FFD05B" cx="381.2" cy="164.4" r="52.1"/>
	<circle fill="#F9B54C" cx="373.3" cy="172.2" r="39"/>
	<circle fill="#FFD05B" cx="130.8" cy="164.4" r="52.1"/>
	<circle fill="#F9B54C" cx="138.7" cy="172.2" r="39"/>
	<ellipse fill="#FF7058" cx="256" cy="264.6" rx="147.8" ry="168.5"/>
	<path fill="#E6E9EE" d="M307.7,179c-21.2,0-40,14.7-51.7,37.4c-11.6-22.7-30.5-37.4-51.7-37.4c-35.4,0-64,40.8-64,91.2
		s28.7,91.2,64,91.2c21.2,0,40-14.7,51.7-37.4c11.6,22.7,30.5,37.4,51.7,37.4c35.4,0,64-40.8,64-91.2S343,179,307.7,179z"/>
	<ellipse fill="#FFD05B" cx="256" cy="362.7" rx="115.4" ry="80.9"/>
	<ellipse fill="#F9B54C" cx="281.3" cy="315" rx="10.7" ry="14.1"/>
	<ellipse fill="#F9B54C" cx="230.7" cy="315" rx="10.7" ry="14.1"/>
	<path fill="#324A5E" d="M325,366.3c-11.5,26.7-38.1,45.3-69,45.3c-30.9,0-57.5-18.7-69-45.4c17.3,18.3,41.8,29.7,69,29.7
		S307.7,384.6,325,366.3z"/>
	<g>
		<g>
			<g>
				<path fill="#FFFFFF" d="M286.7,254.2c2,15.8,14.2,28,27.4,27.3c13.2-0.7,22.3-14,20.3-29.7c-2-15.8-14.2-28-27.4-27.3
					C293.8,225.1,284.7,238.4,286.7,254.2z"/>
				<path fill="#84DBFF" d="M290.6,258.5c1.3,10.2,10.7,18.1,21,17.6c10.3-0.5,17.7-9.2,16.4-19.5c-1.3-10.2-10.7-18.1-21-17.6
					C296.7,239.5,289.4,248.3,290.6,258.5z"/>
				<path fill="#2B3B4E" d="M299.9,258c0.6,5.2,5.4,9.2,10.7,8.9c5.2-0.3,9-4.7,8.3-9.9c-0.6-5.2-5.4-9.2-10.7-8.9
					C302.9,248.4,299.2,252.8,299.9,258z"/>
				<path fill="#FFFFFF" d="M302,246.1c-1.4,2.4-0.1,4.9,3,5.6c3,0.7,6.7-0.6,8.1-2.9c1.4-2.4,0.1-4.9-3-5.6
					C307.1,242.4,303.5,243.7,302,246.1z"/>
			</g>
			<path fill="#324A5E" d="M284.7,213.9c0,0,3.7-1.6,8.7-2.9c1.2-0.4,2.6-0.5,4-0.9c1.4-0.1,2.8-0.5,4.3-0.5c1.5-0.2,3-0.1,4.5,0
				c1.5,0.1,3,0.3,4.6,0.5c1.5,0.4,3.1,0.6,4.6,1.1c1.5,0.6,3,0.8,4.5,1.5c1.5,0.6,2.9,1.1,4.2,1.7c1.3,0.7,2.6,1.2,3.9,1.8
				c2.5,1,4.5,2.2,6,2.8c1.5,0.7,2.5,1,2.5,1s-0.4-0.9-1.2-2.4c-0.4-0.7-0.9-1.6-1.6-2.6c-0.6-1-1.4-2.1-2.4-3.2
				c-1-1.1-2.1-2.3-3.3-3.4c-1.3-1.1-2.8-2.1-4.3-3.2c-1.5-1.1-3.4-1.8-5.2-2.7c-1.8-0.9-3.9-1.2-5.9-1.7c-2.1-0.2-4.2-0.5-6.3-0.4
				c-2.1,0.1-4.1,0.4-6,1c-1.9,0.4-3.6,1.3-5.2,2c-1.5,0.9-2.9,1.8-4.1,2.8c-2.4,1.8-3.9,3.9-4.9,5.3
				C285,212.9,284.7,213.9,284.7,213.9z"/>
		</g>
		<g>
			<g>
				<path fill="#FFFFFF" d="M225.3,254.2c-2,15.8-14.2,28-27.4,27.3c-13.2-0.7-22.3-14-20.3-29.7c2-15.8,14.2-28,27.4-27.3
					C218.2,225.1,227.3,238.4,225.3,254.2z"/>
				<path fill="#84DBFF" d="M221.4,258.5c-1.3,10.2-10.7,18.1-21,17.6c-10.3-0.5-17.7-9.2-16.4-19.5c1.3-10.2,10.7-18.1,21-17.6
					C215.3,239.5,222.6,248.3,221.4,258.5z"/>
				<path fill="#2B3B4E" d="M212.1,258c-0.6,5.2-5.4,9.2-10.7,8.9c-5.2-0.3-9-4.7-8.3-9.9c0.6-5.2,5.4-9.2,10.7-8.9
					C209.1,248.4,212.8,252.8,212.1,258z"/>
				<path fill="#FFFFFF" d="M210,246.1c1.4,2.4,0.1,4.9-3,5.6c-3,0.7-6.7-0.6-8.1-2.9c-1.4-2.4-0.1-4.9,3-5.6
					C204.9,242.4,208.5,243.7,210,246.1z"/>
			</g>
			<path fill="#324A5E" d="M227.3,213.9c0,0-3.7-1.6-8.7-2.9c-1.2-0.4-2.6-0.5-4-0.9c-1.4-0.1-2.8-0.5-4.3-0.5c-1.5-0.2-3-0.1-4.5,0
				c-1.5,0.1-3,0.3-4.6,0.5c-1.5,0.4-3.1,0.6-4.6,1.1c-1.5,0.6-3,0.8-4.5,1.5c-1.5,0.6-2.9,1.1-4.2,1.7c-1.3,0.7-2.6,1.2-3.9,1.8
				c-2.5,1-4.5,2.2-6,2.8c-1.5,0.7-2.5,1-2.5,1s0.4-0.9,1.2-2.4c0.4-0.7,0.9-1.6,1.6-2.6c0.6-1,1.4-2.1,2.4-3.2
				c1-1.1,2.1-2.3,3.3-3.4c1.3-1.1,2.8-2.1,4.3-3.2c1.5-1.1,3.4-1.8,5.2-2.7c1.8-0.9,3.9-1.2,5.9-1.7c2.1-0.2,4.2-0.5,6.3-0.4
				c2.1,0.1,4.1,0.4,6,1c1.9,0.4,3.6,1.3,5.2,2c1.5,0.9,2.9,1.8,4.1,2.8c2.4,1.8,3.9,3.9,4.9,5.3C227,212.9,227.3,213.9,227.3,213.9
				z"/>
		</g>
	</g>
</g>
</svg>
