<?xml version="1.0" encoding="utf-8"?>
<!-- Generator: Adobe Illustrator 18.0.0, SVG Export Plug-In . SVG Version: 6.00 Build 0)  -->
<!DOCTYPE svg PUBLIC "-//W3C//DTD SVG 1.1//EN" "http://www.w3.org/Graphics/SVG/1.1/DTD/svg11.dtd">
<svg version="1.1" id="Layer_1" xmlns="http://www.w3.org/2000/svg" xmlns:xlink="http://www.w3.org/1999/xlink" x="0px" y="0px"
	 viewBox="0 0 512 512" enable-background="new 0 0 512 512" xml:space="preserve">
<g>
	<circle fill="#54C0EB" cx="256" cy="256" r="252.5"/>
	<circle fill="#FF7058" cx="382.6" cy="161.3" r="52.6"/>
	<circle fill="#F1543F" cx="376" cy="167.9" r="38.2"/>
	<circle fill="#FF7058" cx="129.4" cy="161.3" r="52.6"/>
	<circle fill="#F1543F" cx="136" cy="167.9" r="38.2"/>
	<path fill="#FF7058" d="M386.9,230.2c-11.4-11-20.4-23.9-25.7-38c-14.3-37.7-56-64.9-105.2-64.9s-90.9,27.3-105.2,64.9
		c-5.3,14.1-14.3,26.9-25.7,38c-20.7,20-33.1,44.9-33.1,71.9c0,66,73.4,119.4,164,119.4c90.6,0,164-53.5,164-119.4
		C420,275.2,407.7,250.2,386.9,230.2z"/>
	<ellipse fill="#FFD05B" cx="256" cy="362.5" rx="101.8" ry="66.3"/>
	<path fill="#324A5E" d="M293.1,340.2c0,14.6-16.6,31.4-37.1,31.4c-20.5,0-37.1-16.8-37.1-31.4c0-14.6,16.6-21.5,37.1-21.5
		C276.5,318.7,293.1,325.6,293.1,340.2z"/>
	<path fill="#324A5E" d="M292.5,380.2c-0.2,0.3-0.4,0.6-0.6,1c-0.3,0.4-0.6,0.8-1,1.3c-0.2,0.2-0.4,0.5-0.6,0.8
		c-0.2,0.2-0.5,0.5-0.7,0.8c-0.5,0.5-1,1.1-1.6,1.7c-0.6,0.6-1.2,1.2-2,1.8c-0.4,0.3-0.7,0.6-1.1,0.9c-0.4,0.3-0.8,0.6-1.2,0.9
		c-1.6,1.2-3.5,2.3-5.6,3.3c-1.1,0.5-2.1,1-3.2,1.4c-0.6,0.2-1.1,0.4-1.7,0.6c-0.6,0.2-1.2,0.4-1.8,0.6c-0.6,0.2-1.2,0.3-1.8,0.5
		c-0.6,0.2-1.2,0.3-1.9,0.5c-1.3,0.2-2.5,0.5-3.8,0.7c-0.6,0.1-1.3,0.2-2,0.3c-0.6,0.1-1.3,0.1-1.9,0.2c-0.5,0.1-1.1,0.1-1.7,0.1
		v-43.3h-4.8v43.3c-1.9-0.1-3.7-0.2-5.5-0.5c-1.3-0.1-2.6-0.5-3.8-0.7c-0.6-0.1-1.2-0.3-1.9-0.5c-0.6-0.2-1.2-0.3-1.8-0.5
		c-0.6-0.2-1.2-0.4-1.8-0.6c-0.6-0.2-1.1-0.4-1.7-0.6c-1.1-0.4-2.2-0.9-3.2-1.4c-2-1-4-2.1-5.6-3.3c-0.4-0.3-0.8-0.6-1.2-0.9
		c-0.4-0.3-0.7-0.6-1.1-0.9c-0.7-0.6-1.4-1.2-2-1.8c-0.6-0.6-1.1-1.2-1.6-1.7c-0.2-0.3-0.5-0.5-0.7-0.8c-0.2-0.3-0.4-0.5-0.6-0.8
		c-0.3-0.5-0.7-0.9-1-1.3c-0.3-0.4-0.5-0.8-0.6-1c-0.4-0.6-0.6-0.9-0.6-0.9s0.1,0.3,0.3,1c0.1,0.3,0.2,0.7,0.3,1.2
		c0.1,0.5,0.4,1,0.6,1.6c0.1,0.3,0.3,0.6,0.4,0.9c0.2,0.3,0.3,0.6,0.5,1c0.4,0.7,0.7,1.4,1.3,2.2c0.5,0.7,1,1.6,1.7,2.3
		c0.3,0.4,0.7,0.8,1,1.2c0.4,0.4,0.8,0.8,1.1,1.2c1.6,1.6,3.5,3.1,5.6,4.5c1.1,0.7,2.2,1.4,3.4,2c0.6,0.3,1.2,0.6,1.8,0.9
		c0.6,0.3,1.3,0.5,1.9,0.8c2.6,1,5.4,1.8,8.3,2.4c2.9,0.6,5.9,0.8,8.8,0.8l2.2-0.1l1.1,0c0.4,0,0.8-0.1,1.1-0.1
		c0.8-0.1,1.5-0.2,2.3-0.2c0.7-0.1,1.5-0.3,2.2-0.4c2.9-0.5,5.7-1.3,8.3-2.4c0.6-0.3,1.3-0.5,1.9-0.8c0.6-0.3,1.2-0.6,1.8-0.9
		c1.2-0.6,2.3-1.3,3.4-2c0.5-0.3,1-0.7,1.6-1.1c0.5-0.4,1-0.7,1.5-1.1c0.9-0.8,1.8-1.5,2.6-2.3c0.4-0.4,0.8-0.8,1.1-1.2
		c0.3-0.4,0.7-0.8,1-1.2c0.7-0.8,1.2-1.6,1.7-2.3c0.5-0.7,0.9-1.5,1.3-2.2c0.2-0.3,0.3-0.7,0.5-1c0.1-0.3,0.3-0.6,0.4-0.9
		c0.2-0.6,0.5-1.1,0.6-1.6c0.1-0.5,0.2-0.9,0.3-1.2c0.2-0.6,0.2-1,0.2-1S292.8,379.6,292.5,380.2z"/>
	<g>
		<g>
			<g>
				<path fill="#FFFFFF" d="M284.2,247.1c2,15.8,14.2,28,27.4,27.3c13.2-0.7,22.3-14,20.3-29.7c-2-15.8-14.2-28-27.4-27.3
					C291.3,218,282.2,231.4,284.2,247.1z"/>
				<path fill="#F9B54C" d="M288.1,251.4c1.3,10.2,10.7,18.1,21,17.6c10.3-0.5,17.7-9.2,16.4-19.5c-1.3-10.2-10.7-18.1-21-17.6
					C294.2,232.5,286.9,241.2,288.1,251.4z"/>
				<path fill="#2B3B4E" d="M297.4,250.9c0.6,5.2,5.4,9.2,10.7,8.9c5.2-0.3,9-4.7,8.3-9.9c-0.6-5.2-5.4-9.2-10.7-8.9
					C300.4,241.3,296.7,245.8,297.4,250.9z"/>
				<path fill="#FFFFFF" d="M299.5,239c-1.4,2.4-0.1,4.9,3,5.6c3,0.7,6.7-0.6,8.1-2.9c1.4-2.4,0.1-4.9-3-5.6
					C304.6,235.3,301,236.6,299.5,239z"/>
			</g>
			<path fill="#324A5E" d="M282.2,206.8c0,0,3.7-1.6,8.7-2.9c1.2-0.4,2.6-0.5,4-0.9c1.4-0.1,2.8-0.5,4.3-0.5c1.5-0.2,3-0.1,4.5,0
				c1.5,0.1,3,0.3,4.6,0.5c1.5,0.4,3.1,0.6,4.6,1.1c1.5,0.6,3,0.8,4.5,1.5c1.5,0.6,2.9,1.1,4.2,1.7c1.3,0.7,2.6,1.2,3.9,1.8
				c2.5,1,4.5,2.2,6,2.8c1.5,0.7,2.5,1,2.5,1s-0.4-0.9-1.2-2.4c-0.4-0.7-0.9-1.7-1.6-2.6c-0.6-1-1.4-2.1-2.4-3.2
				c-1-1.1-2.1-2.3-3.3-3.4c-1.3-1.1-2.8-2.1-4.3-3.2c-1.5-1.1-3.4-1.8-5.2-2.7c-1.8-0.9-3.9-1.2-5.9-1.7c-2.1-0.2-4.2-0.5-6.3-0.4
				c-2.1,0.1-4.1,0.4-6,1c-1.9,0.4-3.6,1.3-5.2,2c-1.5,0.9-2.9,1.8-4.1,2.8c-2.4,1.8-3.9,3.9-4.9,5.3
				C282.5,205.9,282.2,206.8,282.2,206.8z"/>
		</g>
		<g>
			<g>
				<path fill="#FFFFFF" d="M227.8,247.1c-2,15.8-14.2,28-27.4,27.3c-13.2-0.7-22.3-14-20.3-29.7c2-15.8,14.2-28,27.4-27.3
					C220.7,218,229.8,231.4,227.8,247.1z"/>
				<path fill="#F9B54C" d="M223.9,251.4c-1.3,10.2-10.7,18.1-21,17.6c-10.3-0.5-17.7-9.2-16.4-19.5c1.3-10.2,10.7-18.1,21-17.6
					C217.8,232.5,225.1,241.2,223.9,251.4z"/>
				<path fill="#2B3B4E" d="M214.6,250.9c-0.6,5.2-5.4,9.2-10.7,8.9c-5.2-0.3-9-4.7-8.3-9.9c0.6-5.2,5.4-9.2,10.7-8.9
					C211.6,241.3,215.3,245.8,214.6,250.9z"/>
				<path fill="#FFFFFF" d="M212.5,239c1.4,2.4,0.1,4.9-3,5.6c-3,0.7-6.7-0.6-8.1-2.9c-1.4-2.4-0.1-4.9,3-5.6
					C207.4,235.3,211,236.6,212.5,239z"/>
			</g>
			<path fill="#324A5E" d="M229.8,206.8c0,0-3.7-1.6-8.7-2.9c-1.2-0.4-2.6-0.5-4-0.9c-1.4-0.1-2.8-0.5-4.3-0.5c-1.5-0.2-3-0.1-4.5,0
				c-1.5,0.1-3,0.3-4.6,0.5c-1.5,0.4-3.1,0.6-4.6,1.1c-1.5,0.6-3,0.8-4.5,1.5c-1.5,0.6-2.9,1.1-4.2,1.7c-1.3,0.7-2.6,1.2-3.9,1.8
				c-2.5,1-4.5,2.2-6,2.8c-1.5,0.7-2.5,1-2.5,1s0.4-0.9,1.2-2.4c0.4-0.7,0.9-1.7,1.6-2.6c0.6-1,1.4-2.1,2.4-3.2
				c1-1.1,2.1-2.3,3.3-3.4c1.3-1.1,2.8-2.1,4.3-3.2c1.5-1.1,3.4-1.8,5.2-2.7c1.8-0.9,3.9-1.2,5.9-1.7c2.1-0.2,4.2-0.5,6.3-0.4
				c2.1,0.1,4.1,0.4,6,1c1.9,0.4,3.6,1.3,5.2,2c1.5,0.9,2.9,1.8,4.1,2.8c2.4,1.8,3.9,3.9,4.9,5.3
				C229.5,205.9,229.8,206.8,229.8,206.8z"/>
		</g>
	</g>
</g>
</svg>
