<?xml version="1.0" encoding="utf-8"?>
<!-- Generator: Adobe Illustrator 18.0.0, SVG Export Plug-In . SVG Version: 6.00 Build 0)  -->
<!DOCTYPE svg PUBLIC "-//W3C//DTD SVG 1.1//EN" "http://www.w3.org/Graphics/SVG/1.1/DTD/svg11.dtd">
<svg version="1.1" id="Layer_1" xmlns="http://www.w3.org/2000/svg" xmlns:xlink="http://www.w3.org/1999/xlink" x="0px" y="0px"
	 viewBox="0 0 512 512" enable-background="new 0 0 512 512" xml:space="preserve">
<g>
	<circle fill="#324A5E" cx="256" cy="256" r="252.5"/>
	<g>
		<path fill="#FF7058" d="M435.3,200.1c-28-166.6-163.8-99.6-179.3-91.5c-15.5-8.1-151.3-75.1-179.3,91.5l16.7-12.8
			c0,0-27.9,58.6,1.5,116.8l4.2-14c0,0,4.4,59.6,22.8,72.2l-0.9-13.5c0,0,26.1,36.3,46.1,45.8l1.8-13.3c0,0,20.9,35.6,42.2,37.3
			l-0.4-16.7c0,0,19.5,28.2,44.4,35.6v0.6c0.4-0.1,0.7-0.2,1.1-0.3c0.4,0.1,0.7,0.2,1.1,0.3v-0.6c24.9-7.4,44.4-35.6,44.4-35.6
			l-0.4,16.7c21.3-1.7,42.2-37.3,42.2-37.3l1.8,13.3c19.9-9.4,46.1-45.8,46.1-45.8l-0.9,13.5c18.3-12.6,22.8-72.2,22.8-72.2l4.2,14
			c29.4-58.2,1.5-116.8,1.5-116.8L435.3,200.1z"/>
		<circle fill="#FFD05B" cx="355.9" cy="166.5" r="42.7"/>
		<circle fill="#F9B54C" cx="347.9" cy="174.5" r="28.4"/>
		<circle fill="#FFD05B" cx="156.1" cy="166.5" r="42.7"/>
		<circle fill="#F9B54C" cx="164.1" cy="174.5" r="28.4"/>
		<path fill="#FFD05B" d="M389.2,275.3c0-21.9-10-42.2-26.9-58.4c-9.3-9-16.6-19.4-20.9-30.8c-11.6-30.6-45.5-52.8-85.5-52.8
			c-40,0-73.9,22.2-85.5,52.8c-4.3,11.4-11.6,21.9-20.9,30.8c-16.9,16.3-26.9,36.5-26.9,58.4c0,31.7,20.8,59.8,53.1,77.5
			c13.3,7.3,25.6,16.3,37.2,26c10.2,8.5,25.6,13.9,43,13.9c17.3,0,32.8-5.4,43-13.9c11.7-9.7,23.9-18.7,37.2-26
			C368.4,335.1,389.2,307,389.2,275.3z"/>
		<ellipse fill="#F9B54C" cx="256" cy="319.9" rx="68.9" ry="44.9"/>
		<path fill="#324A5E" d="M281.1,283.3c0,8.6-11.2,18.6-25.1,18.6c-13.9,0-25.1-9.9-25.1-18.6c0-8.6,11.2-12.7,25.1-12.7
			C269.9,270.5,281.1,274.6,281.1,283.3z"/>
		<path fill="#324A5E" d="M299.4,321.7c-0.2,0.3-0.5,0.7-0.8,1.2c-0.3,0.5-0.7,1-1.1,1.6c-0.2,0.3-0.4,0.6-0.7,0.9
			c-0.3,0.3-0.5,0.6-0.8,0.9c-0.6,0.6-1.2,1.4-1.9,2c-0.7,0.7-1.4,1.4-2.3,2.1c-0.4,0.4-0.9,0.7-1.3,1.1c-0.5,0.3-1,0.7-1.4,1
			c-1.9,1.4-4.2,2.7-6.6,3.9c-1.3,0.5-2.5,1.2-3.9,1.7c-0.7,0.2-1.3,0.5-2,0.8c-0.7,0.2-1.4,0.4-2.1,0.7c-0.7,0.2-1.4,0.4-2.2,0.6
			c-0.7,0.2-1.5,0.4-2.2,0.6c-1.5,0.3-3,0.6-4.6,0.8c-0.8,0.1-1.6,0.2-2.3,0.3c-0.8,0.1-1.5,0.1-2.3,0.2c-0.6,0.1-1.3,0.1-2,0.1
			v-51.4h-5.7v51.4c-2.2-0.1-4.4-0.3-6.6-0.6c-1.6-0.2-3.1-0.6-4.6-0.8c-0.7-0.2-1.5-0.4-2.2-0.6c-0.7-0.2-1.5-0.4-2.2-0.6
			c-0.7-0.2-1.4-0.4-2.1-0.7c-0.7-0.3-1.4-0.5-2-0.8c-1.4-0.5-2.6-1.1-3.9-1.7c-2.4-1.2-4.7-2.5-6.6-3.9c-0.5-0.3-1-0.7-1.4-1
			c-0.4-0.4-0.9-0.7-1.3-1.1c-0.9-0.7-1.6-1.4-2.3-2.1c-0.7-0.7-1.3-1.4-1.9-2c-0.3-0.3-0.6-0.6-0.8-0.9c-0.2-0.3-0.5-0.6-0.7-0.9
			c-0.4-0.6-0.8-1.1-1.1-1.6c-0.3-0.5-0.6-0.9-0.8-1.2c-0.4-0.7-0.7-1-0.7-1s0.1,0.4,0.3,1.2c0.1,0.4,0.2,0.9,0.4,1.4
			c0.2,0.6,0.4,1.2,0.7,1.9c0.1,0.4,0.3,0.7,0.5,1.1c0.2,0.4,0.4,0.8,0.6,1.2c0.4,0.8,0.9,1.7,1.5,2.6c0.6,0.9,1.2,1.8,2,2.8
			c0.4,0.5,0.8,0.9,1.2,1.4c0.4,0.5,0.9,0.9,1.4,1.4c1.9,1.9,4.1,3.7,6.7,5.4c1.3,0.8,2.6,1.6,4.1,2.3c0.7,0.4,1.4,0.7,2.2,1.1
			c0.8,0.3,1.5,0.6,2.3,0.9c3.1,1.2,6.4,2.2,9.8,2.8c3.4,0.7,7,0.9,10.5,1l2.6-0.1l1.3,0c0.4,0,0.9-0.1,1.3-0.1
			c0.9-0.1,1.8-0.2,2.7-0.3c0.9-0.1,1.7-0.3,2.6-0.4c3.4-0.6,6.7-1.6,9.8-2.8c0.8-0.3,1.5-0.6,2.3-0.9c0.7-0.3,1.5-0.7,2.2-1.1
			c1.4-0.7,2.8-1.5,4.1-2.3c0.6-0.4,1.2-0.9,1.8-1.3c0.6-0.4,1.2-0.8,1.7-1.3c1.1-0.9,2.2-1.8,3.1-2.8c0.5-0.5,0.9-0.9,1.4-1.4
			c0.4-0.5,0.8-1,1.2-1.4c0.8-0.9,1.4-1.9,2-2.8c0.6-0.9,1.1-1.7,1.5-2.6c0.2-0.4,0.4-0.8,0.6-1.2c0.2-0.4,0.3-0.8,0.5-1.1
			c0.3-0.7,0.6-1.3,0.7-1.9c0.2-0.6,0.3-1,0.4-1.4c0.2-0.8,0.3-1.2,0.3-1.2S299.8,321,299.4,321.7z"/>
		<g>
			<g>
				<g>
					
						<ellipse transform="matrix(0.9037 0.4282 -0.4282 0.9037 122.0676 -65.5541)" fill="#FFFFFF" cx="206.8" cy="238.6" rx="16.9" ry="31.7"/>
					
						<ellipse transform="matrix(0.9037 0.4282 -0.4282 0.9037 124.1213 -64.6417)" fill="#54C0EB" cx="205.8" cy="243.6" rx="13.2" ry="20.6"/>
					
						<ellipse transform="matrix(0.9037 0.4282 -0.4282 0.9037 124.1159 -64.6403)" fill="#2B3B4E" cx="205.8" cy="243.6" rx="6.7" ry="10.4"/>
					<ellipse fill="#FFFFFF" cx="210.9" cy="233.5" rx="4.2" ry="5.1"/>
				</g>
				<path fill="#324A5E" d="M237.3,190.3c0,0-3-1.3-7.2-2.4c-1-0.3-2.2-0.4-3.3-0.7c-1.2-0.1-2.3-0.4-3.6-0.4
					c-1.2-0.1-2.5-0.1-3.7,0c-1.2,0-2.5,0.3-3.8,0.4c-1.2,0.4-2.5,0.5-3.8,0.9c-1.2,0.5-2.5,0.7-3.7,1.2c-1.2,0.5-2.4,0.9-3.5,1.4
					c-1.1,0.6-2.2,1-3.2,1.5c-2.1,0.8-3.7,1.8-5,2.3c-1.3,0.5-2.1,0.8-2.1,0.8s0.3-0.7,1-2c0.3-0.6,0.8-1.4,1.3-2.2
					c0.5-0.8,1.1-1.8,2-2.6c0.8-0.9,1.7-1.9,2.7-2.8c1.1-0.9,2.3-1.8,3.6-2.6c1.2-0.9,2.8-1.5,4.3-2.2c1.5-0.7,3.3-1,4.9-1.4
					c1.7-0.2,3.5-0.4,5.2-0.3c1.7,0.1,3.4,0.3,4.9,0.8c1.6,0.3,3,1.1,4.3,1.7c1.3,0.7,2.4,1.4,3.4,2.3c2,1.5,3.2,3.2,4,4.4
					C237,189.6,237.3,190.3,237.3,190.3z"/>
			</g>
			<g>
				<g>
					
						<ellipse transform="matrix(-0.9037 0.4282 -0.4282 -0.9037 683.238 323.4815)" fill="#FFFFFF" cx="305.2" cy="238.6" rx="16.9" ry="31.7"/>
					
						<ellipse transform="matrix(-0.9037 0.4282 -0.4282 -0.9037 687.2973 332.6032)" fill="#54C0EB" cx="306.2" cy="243.6" rx="13.2" ry="20.6"/>
					
						<ellipse transform="matrix(-0.9037 0.4282 -0.4282 -0.9037 687.2943 332.6149)" fill="#2B3B4E" cx="306.2" cy="243.6" rx="6.7" ry="10.4"/>
					<ellipse fill="#FFFFFF" cx="301.1" cy="233.5" rx="4.2" ry="5.1"/>
				</g>
				<path fill="#324A5E" d="M274.7,190.3c0,0,3-1.3,7.2-2.4c1-0.3,2.2-0.4,3.3-0.7c1.2-0.1,2.3-0.4,3.6-0.4c1.2-0.1,2.5-0.1,3.7,0
					c1.2,0,2.5,0.3,3.8,0.4c1.2,0.4,2.5,0.5,3.8,0.9c1.2,0.5,2.5,0.7,3.7,1.2c1.2,0.5,2.4,0.9,3.5,1.4c1.1,0.6,2.2,1,3.2,1.5
					c2.1,0.8,3.7,1.8,5,2.3c1.3,0.5,2.1,0.8,2.1,0.8s-0.3-0.7-1-2c-0.3-0.6-0.8-1.4-1.3-2.2c-0.5-0.8-1.1-1.8-2-2.6
					c-0.8-0.9-1.7-1.9-2.7-2.8c-1.1-0.9-2.3-1.8-3.6-2.6c-1.2-0.9-2.8-1.5-4.3-2.2c-1.5-0.7-3.3-1-4.9-1.4c-1.7-0.2-3.5-0.4-5.2-0.3
					c-1.7,0.1-3.4,0.3-4.9,0.8c-1.6,0.3-3,1.1-4.3,1.7c-1.3,0.7-2.4,1.4-3.4,2.3c-2,1.5-3.2,3.2-4,4.4
					C275,189.6,274.7,190.3,274.7,190.3z"/>
			</g>
		</g>
	</g>
</g>
</svg>
