<?xml version="1.0" encoding="utf-8"?>
<!-- Generator: Adobe Illustrator 18.0.0, SVG Export Plug-In . SVG Version: 6.00 Build 0)  -->
<!DOCTYPE svg PUBLIC "-//W3C//DTD SVG 1.1//EN" "http://www.w3.org/Graphics/SVG/1.1/DTD/svg11.dtd">
<svg version="1.1" id="Layer_1" xmlns="http://www.w3.org/2000/svg" xmlns:xlink="http://www.w3.org/1999/xlink" x="0px" y="0px"
	 viewBox="0 0 512 512" enable-background="new 0 0 512 512" xml:space="preserve">
<g>
	<circle fill="#90DFAA" cx="256" cy="256" r="252.5"/>
	<path fill="#324A5E" d="M274.3,104.6c3.8,6.4,5.1,14,6,21.4c1.6,13.7,1.7,28.5-5.5,40.3c-2.7,4.5-6.4,8.3-10.2,12
		c-7.7,7.4-16.4,14.2-26.4,17.8c-0.6-2.1,0.2-4.3,0.9-6.4c5.2-16,2.6-34-5.2-48.9c-7.8-14.9-20.6-26.8-35.1-35.4
		c19.5,1.3,37.5,15.6,43.1,34.4c-1-9.9-3-19.7-7.4-28.6s-11.3-16.7-20.3-21c13.7-1.8,27.7,5.7,35.4,17.1c7.8,11.4,9.8,26.1,7.7,39.7
		c5-5.1,6-12.8,6.7-19.9c0.9-8.7,1.6-17.9-2.1-25.9c-4.5-9.5-14.4-15.1-23.8-20C252,86.2,266.9,92,274.3,104.6z"/>
	<path fill="#E6E9EE" d="M461.1,135.1c0,0-21.3,81.5-121.7,118.8l-6.1-9.2l-20.2-30.2C313.1,214.6,345.9,118.8,461.1,135.1z"/>
	<path fill="#ACB3BA" d="M461.1,135.1c0,0-21.3,81.5-121.7,118.8l-6.1-9.2C369.6,136.5,461.1,135.1,461.1,135.1z"/>
	<path fill="#E6E9EE" d="M50.9,135.1c0,0,21.3,81.5,121.7,118.8l6.1-9.2l20.2-30.2C198.9,214.6,166.1,118.8,50.9,135.1z"/>
	<path fill="#ACB3BA" d="M50.9,135.1c0,0,21.3,81.5,121.7,118.8l6.1-9.2C142.4,136.5,50.9,135.1,50.9,135.1z"/>
	<path fill="#E6E9EE" d="M377.8,302.5c-7.7-10.8-12.4-23.3-14.6-36.2c-10-58.2-54.2-102-107.1-102c-53,0-97.1,43.8-107.1,102
		c-2.2,12.9-6.9,25.4-14.6,36.2c-10.1,14.1-15.9,30.2-15.9,47.3c0,56,61.6,101.5,137.6,101.5s137.6-45.4,137.6-101.5
		C393.6,332.7,387.9,316.7,377.8,302.5z"/>
	<path fill="#ACB3BA" d="M392.2,334.9c-5.4,7.1-11.5,14.6-19,20.8c-2,1.8-4.4,3.5-6.8,5.1c-2.4,1.6-4.7,3.1-7.2,4.3
		c-4.8,2.7-10,4.6-14.9,6.3c-5,1.6-10,2.6-14.7,3.3c-2.4,0.4-4.7,0.5-6.9,0.7c-2.2,0.1-4.4,0.2-6.5,0.2c-4.2-0.1-8-0.4-11.3-0.8
		c-1.7-0.2-3.2-0.5-4.7-0.7c-1.4-0.3-2.7-0.6-3.9-0.8c-2.3-0.5-4.1-1.1-5.4-1.4c-0.9-0.3-1.6-0.4-1.8-0.5c0.3,0,0.8,0.2,1.8,0.4
		c1.2,0.2,3.1,0.8,5.4,1.1c1.2,0.2,2.5,0.4,3.9,0.6c1.4,0.1,3,0.3,4.7,0.4c3.3,0.2,7.1,0.3,11.1,0c2-0.1,4.2-0.4,6.4-0.6
		c2.2-0.4,4.4-0.6,6.7-1.1c4.5-0.9,9.3-2.3,14-4.1c4.7-1.9,9.4-4,13.8-6.8c2.3-1.3,4.4-3,6.5-4.5c2-1.6,4-3.2,6-5.2
		c3.9-3.6,7.3-7.7,10.4-11.9c3.2-4.2,6.1-8.6,8.9-12.9c0.3-0.5,0.6-0.9,0.9-1.3C390.7,328.5,391.5,331.7,392.2,334.9z"/>
	<path fill="#ACB3BA" d="M391.5,367.8c-0.9,3.6-2,7-3.3,10.5v0c-4,2.4-8.3,4.6-12.8,6.4c-2.5,1.1-5.3,2-8,2.8
		c-2.8,0.7-5.4,1.5-8.2,1.9c-5.4,1.1-10.9,1.3-16.2,1.4c-5.3-0.1-10.3-0.6-15-1.4c-2.3-0.4-4.6-1-6.8-1.4c-2.2-0.6-4.2-1.2-6.2-1.8
		c-4-1.3-7.5-2.8-10.5-4.2c-3-1.5-5.6-2.8-7.7-4.1c-2.1-1.2-3.6-2.3-4.7-3c-0.8-0.5-1.3-0.9-1.5-1c0.2,0.1,0.8,0.5,1.6,0.9
		c1.1,0.6,2.7,1.7,4.9,2.7c2.1,1.1,4.7,2.3,7.8,3.6c3.1,1.2,6.7,2.4,10.6,3.5c2,0.5,4,0.9,6.2,1.4c2.2,0.3,4.4,0.8,6.7,0.9
		c4.6,0.5,9.5,0.7,14.6,0.4c5-0.3,10.2-0.9,15.3-2.3c2.6-0.6,5.1-1.5,7.6-2.3c2.4-0.9,4.8-1.8,7.3-3.1c4.7-2.2,9.3-5.1,13.5-8.1
		C388.3,370.2,389.9,369,391.5,367.8z"/>
	<path fill="#ACB3BA" d="M372.7,294.4C372.7,294.4,372.7,294.4,372.7,294.4c-2.6,8.6-5.6,17.7-10.5,26.2c-1.2,2.4-2.9,4.8-4.5,7.2
		c-1.7,2.3-3.3,4.5-5.2,6.6c-3.6,4.2-7.7,7.9-11.8,11.2c-4.1,3.2-8.4,6-12.6,8.2c-2.1,1.2-4.2,2.1-6.2,3.1c-2.1,0.8-4.1,1.7-6,2.5
		c-3.9,1.4-7.6,2.5-10.9,3.3c-3.3,0.8-6.1,1.3-8.6,1.6c-2.4,0.4-4.3,0.5-5.6,0.6c-1.2,0.1-2,0.2-2,0.2s0.7-0.1,2-0.3
		c1.3-0.2,3.1-0.3,5.5-0.9c2.3-0.5,5.2-1.2,8.4-2.1c3.2-1,6.7-2.2,10.4-3.9c1.9-0.8,3.7-1.8,5.7-2.8c1.9-1.1,3.9-2.2,5.9-3.4
		c3.9-2.5,7.9-5.4,11.6-8.7c3.7-3.4,7.4-7.1,10.5-11.3c1.7-2,3.1-4.3,4.5-6.5c1.3-2.2,2.6-4.4,3.8-7c2.3-4.7,4-9.8,5.5-14.8
		c1.5-5.1,2.6-10.2,3.8-15.2c0.4-1.6,0.7-3.2,1.1-4.7C369.1,287.1,370.7,290.8,372.7,294.4z"/>
	<path fill="#ACB3BA" d="M222.9,371.3c-0.3,0.1-0.8,0.2-1.8,0.5c-1.2,0.3-3,1-5.4,1.4c-1.2,0.3-2.5,0.5-3.9,0.8
		c-1.4,0.2-3,0.5-4.7,0.7c-3.3,0.4-7.1,0.7-11.3,0.8c-2.1,0-4.2-0.1-6.5-0.2c-2.2-0.2-4.6-0.3-6.9-0.7c-4.8-0.6-9.7-1.7-14.7-3.3
		c-5-1.7-10.1-3.6-15-6.3c-2.5-1.2-4.8-2.8-7.2-4.3c-2.4-1.6-4.8-3.3-6.8-5.1c-7.5-6.2-13.5-13.7-19-20.8c0.6-3.3,1.5-6.4,2.6-9.6
		c0.3,0.5,0.6,0.9,0.9,1.3c2.8,4.3,5.8,8.6,8.9,12.9c3.2,4.2,6.6,8.4,10.4,11.9c2,2,4,3.6,6,5.2c2.1,1.6,4.2,3.2,6.5,4.5
		c4.4,2.8,9.2,5,13.8,6.8c4.7,1.8,9.4,3.1,14,4.1c2.3,0.5,4.5,0.8,6.7,1.1c2.2,0.2,4.3,0.5,6.3,0.6c4.1,0.2,7.8,0.2,11.2,0
		c1.6-0.2,3.2-0.3,4.6-0.4c1.4-0.2,2.8-0.4,3.9-0.6c2.4-0.3,4.2-0.8,5.4-1.1C222,371.5,222.7,371.3,222.9,371.3z"/>
	<path fill="#ACB3BA" d="M221.5,373.7c-0.2,0.2-0.7,0.5-1.6,1c-1.1,0.7-2.6,1.9-4.7,3c-2,1.3-4.6,2.6-7.6,4.1
		c-3.1,1.4-6.6,2.9-10.5,4.2c-2,0.6-4.1,1.2-6.2,1.8c-2.2,0.5-4.4,1.1-6.8,1.4c-4.7,0.8-9.8,1.3-15,1.4c-5.3,0-10.7-0.3-16.2-1.4
		c-2.8-0.4-5.4-1.2-8.2-1.9c-2.7-0.8-5.5-1.7-8-2.8c-4.5-1.8-8.7-4-12.8-6.4c-1.4-3.4-2.5-6.9-3.3-10.5c1.6,1.2,3.2,2.4,4.8,3.6
		c4.3,3,8.8,5.9,13.6,8.1c2.5,1.3,4.9,2.2,7.3,3.1c2.5,0.8,5,1.7,7.6,2.3c5.1,1.3,10.3,1.9,15.3,2.3c5,0.3,9.9,0.1,14.6-0.4
		c2.3-0.2,4.5-0.6,6.7-0.9c2.1-0.5,4.2-0.9,6.2-1.4c3.9-1.1,7.5-2.3,10.6-3.5c3.1-1.2,5.7-2.4,7.8-3.6c2.2-1,3.7-2.1,4.9-2.7
		C220.7,374.2,221.3,373.8,221.5,373.7z"/>
	<path fill="#ACB3BA" d="M223,364.9c0,0-0.7-0.1-2-0.2c-1.3-0.2-3.2-0.2-5.6-0.6c-2.4-0.3-5.3-0.8-8.6-1.6
		c-3.3-0.8-6.9-1.9-10.8-3.3c-2-0.7-3.9-1.6-6-2.5c-2-1-4.1-1.9-6.2-3.1c-4.2-2.3-8.5-5-12.6-8.2c-4-3.3-8.2-6.9-11.8-11.2
		c-1.9-2-3.5-4.3-5.3-6.6c-1.6-2.4-3.2-4.8-4.5-7.2c-4.8-8.4-7.8-17.6-10.4-26.1c0,0,0,0,0,0c2-3.6,3.7-7.3,5-11.2
		c0.4,1.6,0.7,3.1,1.1,4.7c1.2,5,2.3,10.1,3.8,15.2c1.5,5.1,3.2,10.1,5.6,14.8c1.1,2.6,2.5,4.8,3.8,7c1.4,2.2,2.8,4.5,4.5,6.5
		c3.1,4.2,6.8,7.9,10.5,11.3c3.8,3.3,7.7,6.3,11.7,8.7c1.9,1.3,4,2.3,5.8,3.4c2,0.9,3.9,2,5.8,2.8c3.7,1.7,7.3,2.9,10.4,3.9
		c3.2,0.9,6,1.7,8.4,2.1c2.3,0.6,4.2,0.7,5.4,0.9C222.4,364.8,223,364.9,223,364.9z"/>
	<path fill="#ACB3BA" d="M243.8,323.5c-0.4,5.5-0.7,10.6-1,15.1c-0.2,4.5-1.2,8.3-1.6,11.5c-1.1,6.4-1.7,10-1.7,10s0.5-3.6,1.2-10
		c0.3-3.2,1.1-7,1.1-11.5c0.1-4.5,0.2-9.5,0.3-15c-0.3-5.5-0.7-11.4-1.1-17.7c-0.8-6.2-1.7-12.8-2.5-19.6c-1.3-6.7-2.5-13.7-4-20.7
		c-1.7-7-3.2-14.2-5.3-21.2c-2-7-3.9-14.1-6.2-20.9c-1.1-3.4-2.2-6.8-3.3-10.2c-1.2-3.3-2.3-6.6-3.5-9.8c-2.2-6.5-4.7-12.6-6.9-18.5
		c-0.9-2.3-1.8-4.6-2.7-6.8c2.6-1.6,5.3-3,8.1-4.3c0.9,2.6,1.9,5.4,2.8,8.2c2,6.1,4.2,12.4,6.1,19c1,3.3,2,6.7,3.1,10.1
		c0.9,3.4,1.9,7,2.8,10.4c2,7,3.6,14.3,5.3,21.5c1.7,7.2,2.8,14.5,4.3,21.6c1.2,7.2,2,14.3,3,21.1c0.6,6.9,1.1,13.6,1.6,19.9
		C243.7,312,243.7,318,243.8,323.5z"/>
	<path fill="#ACB3BA" d="M305.5,178c-0.9,2.2-1.8,4.5-2.7,6.8c-2.2,5.9-4.7,12-6.9,18.5c-1.1,3.2-2.3,6.5-3.5,9.8
		c-1.1,3.4-2.2,6.8-3.3,10.2c-2.3,6.8-4.2,13.9-6.2,20.9c-2.1,7-3.5,14.2-5.3,21.2c-1.5,7-2.7,14-4,20.7c-0.9,6.8-1.7,13.4-2.5,19.6
		c-0.4,6.3-0.8,12.2-1.1,17.7c0.1,5.5,0.2,10.5,0.3,15c-0.1,4.5,0.7,8.3,1,11.5c0.7,5.6,1.1,9.1,1.2,9.9c-0.1-0.8-0.8-4.2-1.7-9.8
		c-0.5-3.2-1.5-7-1.6-11.5c-0.3-4.5-0.6-9.5-1-15.1c0.1-5.5,0.2-11.5,0.2-17.9c0.5-6.3,1.1-13,1.6-19.9c1-6.8,1.9-14,3.1-21.1
		c1.4-7.2,2.5-14.5,4.3-21.6c1.7-7.2,3.3-14.5,5.2-21.5c0.9-3.5,1.9-7,2.8-10.4c1-3.4,2-6.8,3-10.1c1.9-6.7,4.1-13,6.1-19
		c0.9-2.8,1.9-5.5,2.8-8.2C300.1,175,302.8,176.5,305.5,178z"/>
	<path fill="#ACB3BA" d="M260.7,164.4L256,351.2l-4.7-186.8c1.6-0.1,3.1-0.1,4.7-0.1C257.5,164.3,259.1,164.3,260.7,164.4z"/>
	<ellipse fill="#324A5E" cx="256" cy="402" rx="83.8" ry="60.7"/>
	<ellipse fill="#2B3B4E" cx="288.7" cy="380.7" rx="11.3" ry="14.9"/>
	<ellipse fill="#2B3B4E" cx="223.3" cy="380.7" rx="11.3" ry="14.9"/>
	<path fill="#2B3B4E" d="M293.7,418.6c-5.9,15-20.5,25.6-37.7,25.6c-17.1,0-31.7-10.6-37.7-25.6c9.8,9.2,23.1,14.9,37.7,14.9
		C270.6,433.6,283.8,427.9,293.7,418.6z"/>
	<path fill="#FFFFFF" d="M293.7,306.6c1.5,11.7,10.6,20.8,20.3,20.3c9.8-0.5,16.5-10.4,15-22.1c-1.5-11.7-10.6-20.8-20.3-20.3
		S292.3,294.9,293.7,306.6z"/>
	<path fill="#84DBFF" d="M296.7,309.7c0.9,7.6,7.9,13.4,15.6,13c7.7-0.4,13.1-6.9,12.2-14.4c-0.9-7.6-7.9-13.4-15.6-13
		C301.1,295.7,295.7,302.2,296.7,309.7z"/>
	<path fill="#2B3B4E" d="M303.5,309.4c0.5,3.8,4,6.8,7.9,6.6c3.9-0.2,6.6-3.5,6.2-7.3c-0.5-3.8-4-6.8-7.9-6.6
		C305.8,302.3,303,305.6,303.5,309.4z"/>
	<path fill="#FFFFFF" d="M305.1,300.5c-1,1.7-0.1,3.6,2.2,4.1c2.3,0.5,4.9-0.4,6-2.2c1-1.7,0.1-3.6-2.2-4.1
		C308.8,297.8,306.2,298.8,305.1,300.5z"/>
	<path fill="#324A5E" d="M292.2,276.7c0,0,2.7-1.2,6.4-2.1c0.9-0.3,1.9-0.4,3-0.6c1.1-0.1,2.1-0.3,3.2-0.3c1.1-0.1,2.2,0,3.3,0
		c1.1,0,2.3,0.2,3.4,0.4c1.1,0.3,2.3,0.4,3.4,0.8c1.1,0.4,2.3,0.6,3.3,1.1c1.1,0.4,2.1,0.8,3.1,1.2c1,0.5,1.9,0.9,2.9,1.3
		c1.9,0.8,3.3,1.6,4.5,2.1c1.1,0.5,1.9,0.7,1.9,0.7s-0.3-0.7-0.9-1.8c-0.3-0.5-0.7-1.2-1.2-1.9c-0.5-0.8-1-1.6-1.8-2.3
		c-0.7-0.8-1.5-1.7-2.4-2.6c-1-0.8-2.1-1.6-3.2-2.4c-1.1-0.8-2.5-1.3-3.9-2c-1.4-0.7-2.9-0.9-4.4-1.3c-1.5-0.2-3.1-0.4-4.6-0.3
		c-1.5,0.1-3,0.3-4.4,0.7c-1.4,0.3-2.7,1-3.9,1.5c-1.1,0.7-2.2,1.3-3,2c-1.8,1.4-2.9,2.9-3.6,3.9C292.5,276,292.2,276.7,292.2,276.7
		z"/>
	<path fill="#FFFFFF" d="M218.3,306.6c-1.5,11.7-10.6,20.8-20.3,20.3c-9.8-0.5-16.5-10.4-15-22.1c1.5-11.7,10.6-20.8,20.3-20.3
		C213,285,219.7,294.9,218.3,306.6z"/>
	<path fill="#84DBFF" d="M215.3,309.7c-0.9,7.6-7.9,13.4-15.6,13c-7.7-0.4-13.1-6.9-12.2-14.4c0.9-7.6,7.9-13.4,15.6-13
		C210.9,295.7,216.3,302.2,215.3,309.7z"/>
	<path fill="#2B3B4E" d="M208.5,309.4c-0.5,3.8-4,6.8-7.9,6.6c-3.9-0.2-6.6-3.5-6.2-7.3c0.5-3.8,4-6.8,7.9-6.6
		C206.2,302.3,209,305.6,208.5,309.4z"/>
	<path fill="#FFFFFF" d="M206.9,300.5c1,1.7,0.1,3.6-2.2,4.1c-2.3,0.5-4.9-0.4-6-2.2c-1-1.7-0.1-3.6,2.2-4.1
		S205.8,298.8,206.9,300.5z"/>
	<path fill="#324A5E" d="M219.8,276.7c0,0-2.7-1.2-6.4-2.1c-0.9-0.3-1.9-0.4-3-0.6c-1.1-0.1-2.1-0.3-3.2-0.3c-1.1-0.1-2.2,0-3.3,0
		c-1.1,0-2.3,0.2-3.4,0.4c-1.1,0.3-2.3,0.4-3.4,0.8c-1.1,0.4-2.3,0.6-3.3,1.1c-1.1,0.4-2.1,0.8-3.1,1.2c-1,0.5-1.9,0.9-2.9,1.3
		c-1.9,0.8-3.3,1.6-4.5,2.1c-1.1,0.5-1.9,0.7-1.9,0.7s0.3-0.7,0.9-1.8c0.3-0.5,0.7-1.2,1.2-1.9c0.5-0.8,1-1.6,1.8-2.3
		c0.7-0.8,1.5-1.7,2.4-2.6c1-0.8,2.1-1.6,3.2-2.4c1.1-0.8,2.5-1.3,3.9-2c1.4-0.7,2.9-0.9,4.4-1.3c1.5-0.2,3.1-0.4,4.6-0.3
		c1.5,0.1,3,0.3,4.4,0.7c1.4,0.3,2.7,1,3.9,1.5c1.1,0.7,2.2,1.3,3,2c1.8,1.4,2.9,2.9,3.6,3.9C219.5,276,219.8,276.7,219.8,276.7z"/>
</g>
</svg>
