<?xml version="1.0" encoding="utf-8"?>
<!-- Generator: Adobe Illustrator 18.0.0, SVG Export Plug-In . SVG Version: 6.00 Build 0)  -->
<!DOCTYPE svg PUBLIC "-//W3C//DTD SVG 1.1//EN" "http://www.w3.org/Graphics/SVG/1.1/DTD/svg11.dtd">
<svg version="1.1" id="Layer_1" xmlns="http://www.w3.org/2000/svg" xmlns:xlink="http://www.w3.org/1999/xlink" x="0px" y="0px"
	 viewBox="0 0 512 512" enable-background="new 0 0 512 512" xml:space="preserve">
<g>
	<circle fill="#FD8469" cx="256" cy="256" r="252.5"/>
	<path fill="#F9B54C" d="M409.3,110.5c-3.1,5-7.6,9.2-12.1,13.1c-8.2,7.1-16.8,13.6-25.7,19.1c-8,5-16.5,9.6-23.3,16.7
		c-9.1,9.6-13.4,22-17.1,33.4c-0.5,1.5-1,3-0.8,4.3c0.1,1,0.6,1.8,0.9,2.7c0.5,1.5,0.5,3.3,0.4,5.1c-0.3,5.1-1.7,10.6-4.1,16
		c-1.4,3.2-3.1,7.3-1.1,8.8c1.2,0.9,3.3,0.3,5.2-0.3c10.3-3.3,20.6-6.9,30.9-10.8c4.8-1.8,9.5-3.7,14.3-6.2
		c12.1-6.4,23.6-16.9,31.6-28.9c2.7-4,5-8.2,6.7-12.4c2.1-5.4,3-10.8,3.8-16c1.7-11.1,3.2-22.2,3.2-32.8c0.1-10.5-1.3-20.5-4-29.5
		C414.5,98.5,413,104.7,409.3,110.5z"/>
	<path fill="#F9B54C" d="M102.7,110.5c3.1,5,7.6,9.2,12.1,13.1c8.2,7.1,16.8,13.6,25.7,19.1c8,5,16.5,9.6,23.3,16.7
		c9.1,9.6,13.4,22,17.1,33.4c0.5,1.5,1,3,0.8,4.3c-0.1,1-0.6,1.8-0.9,2.7c-0.5,1.5-0.5,3.3-0.4,5.1c0.3,5.1,1.7,10.6,4.1,16
		c1.4,3.2,3.1,7.3,1.1,8.8c-1.2,0.9-3.3,0.3-5.2-0.3c-10.3-3.3-20.6-6.9-30.9-10.8c-4.8-1.8-9.5-3.7-14.3-6.2
		c-12.1-6.4-23.6-16.9-31.6-28.9c-2.7-4-5-8.2-6.7-12.4c-2.1-5.4-3-10.8-3.8-16c-1.7-11.1-3.2-22.2-3.2-32.8
		c-0.1-10.5,1.3-20.5,4-29.5C97.5,98.5,99,104.7,102.7,110.5z"/>
	<path fill="#FFD05B" d="M367,234.2c0-56.1-49.7-101.7-111-101.7c-61.3,0-111,45.5-111,101.7c0,20,6.3,38.6,17.2,54.4
		c10.9,15.7,18.6,33.6,22.6,52.3c11,51.2,38.7,87.6,71.2,87.6s60.2-36.4,71.2-87.6c4-18.7,11.7-36.6,22.6-52.3
		C360.7,272.9,367,254.2,367,234.2z"/>
	<g>
		<path fill="#FFD05B" d="M333.3,161.1c-1.7-4.4-2.4-9.2-2.4-13.9c0.2-45.1-10.2-56.3-17.7-58.5c-7.6,1.7-18.6,12.2-20.9,57.2
			c-0.2,4.7-1.2,9.4-3.1,13.7c-2.8,6.1-8,12.9-17.4,13.3l39.1,1.3l39.1,1.3C340.6,174.5,335.8,167.3,333.3,161.1z"/>
		<path fill="#FFD05B" d="M178.7,161.1c1.7-4.4,2.4-9.2,2.4-13.9c-0.2-45.1,10.2-56.3,17.7-58.5c7.6,1.7,18.6,12.2,20.9,57.2
			c0.2,4.7,1.2,9.4,3.1,13.7c2.8,6.1,8,12.9,17.4,13.3l-39.1,1.3l-39.1,1.3C171.4,174.5,176.2,167.3,178.7,161.1z"/>
	</g>
	<g>
		<path fill="#F9B54C" d="M335,106.5c-0.3,0.9-1.1,1.4-1.8,1.8c-1.6,0.9-3.3,1.7-5,2.4c-0.9,0.3-1.8,0.6-2.7,0.3s-1.7-1.4-1.4-2.4
			c-1,0.5-2,0.9-3,1.4c-0.9,0.4-2.3,0.5-2.4-0.6c0.4-0.2,0.8,0.5,0.6,0.9c-1.3,0.4-2.5-1.1-3.8-1.1c-0.6,0-1.1,0.4-1.7,0.5
			c-0.6,0.1-1.3-0.4-1.2-1.1c-0.6,0.1-1.2,0.4-1.7,0.9c-0.3-0.9-0.5-1.8-0.8-2.7c-0.1-0.2-0.1-0.4-0.3-0.5c-0.1-0.1-0.3,0-0.4,0
			c-0.7,0.3-1.4,1-2.2,1.1c-0.8,0.1-1.7-0.8-1.4-1.6c-1.1,0.8-2.9-0.1-3-1.7c-1.2,0.8-2.5,1.3-3.8,1.4c-0.3,0-0.5,0-0.7-0.1
			c-0.3-0.2-0.4-0.7-0.5-1.1c-0.6-3.2-0.8-6.6-0.6-9.9c0-0.8,0.1-1.6,0.4-2.2c0.3-0.7,0.9-1.3,1.5-1.8c4-3.3,9.3-3.6,14.2-3.8
			c1.3,0,2.6-0.1,3.9,0.2c1.4,0.3,2.8,1,4.1,1.7c3.6,1.9,7.3,3.9,10.5,6.7c1.2,1.1,2.4,2.3,3,4c0.7,1.7,0.6,3.7,0.6,5.5
			C335.2,105.4,335.2,106,335,106.5z"/>
		<path fill="#F9B54C" d="M177,106.5c0.3,0.9,1.1,1.4,1.8,1.8c1.6,0.9,3.3,1.7,5,2.4c0.9,0.3,1.8,0.6,2.7,0.3s1.7-1.4,1.4-2.4
			c1,0.5,2,0.9,3,1.4c0.9,0.4,2.3,0.5,2.4-0.6c-0.4-0.2-0.8,0.5-0.6,0.9c1.3,0.4,2.5-1.1,3.8-1.1c0.6,0,1.1,0.4,1.7,0.5
			c0.6,0.1,1.3-0.4,1.2-1.1c0.6,0.1,1.2,0.4,1.7,0.9c0.3-0.9,0.5-1.8,0.8-2.7c0.1-0.2,0.1-0.4,0.3-0.5c0.1-0.1,0.3,0,0.4,0
			c0.7,0.3,1.4,1,2.2,1.1c0.8,0.1,1.7-0.8,1.4-1.6c1.1,0.8,2.9-0.1,3-1.7c1.2,0.8,2.5,1.3,3.8,1.4c0.3,0,0.5,0,0.7-0.1
			c0.3-0.2,0.4-0.7,0.5-1.1c0.6-3.2,0.8-6.6,0.6-9.9c0-0.8-0.1-1.6-0.4-2.2c-0.3-0.7-0.9-1.3-1.5-1.8c-4-3.3-9.3-3.6-14.2-3.8
			c-1.3,0-2.6-0.1-3.9,0.2c-1.4,0.3-2.8,1-4.1,1.7c-3.6,1.9-7.3,3.9-10.5,6.7c-1.2,1.1-2.4,2.3-3,4c-0.7,1.7-0.6,3.7-0.6,5.5
			C176.8,105.4,176.8,106,177,106.5z"/>
	</g>
	<path fill="#F9B54C" d="M275.9,292.8l-13.3-13.3c-3.6-3.6-9.4-3.6-13,0l-13.3,13.3c-5.8,5.8-1.7,15.7,6.5,15.7l26.7,0
		C277.6,308.6,281.7,298.6,275.9,292.8z"/>
	<path fill="#F9B54C" d="M270.4,333.4l-9.6-9.6c-2.6-2.6-6.8-2.6-9.4,0l-9.6,9.6c-4.2,4.2-1.2,11.4,4.7,11.4l19.3,0
		C271.6,344.8,274.6,337.6,270.4,333.4z"/>
	<g>
		<path fill="#F9B54C" d="M308.3,341.7l-12.8,0c-3.4,0-6.2,2.8-6.2,6.2l0,12.8c0,5.6,6.7,8.4,10.7,4.4l12.8-12.8
			C316.7,348.5,313.9,341.7,308.3,341.7z"/>
		<path fill="#F9B54C" d="M289.3,305.8l0,12.8c0,3.4,2.8,6.2,6.2,6.2l12.8,0c5.6,0,8.3-6.7,4.4-10.7L300,301.4
			C296.1,297.4,289.3,300.2,289.3,305.8z"/>
	</g>
	<g>
		<path fill="#F9B54C" d="M222.7,305.8l0,12.8c0,3.4-2.8,6.2-6.2,6.2l-12.8,0c-5.6,0-8.3-6.7-4.4-10.7l12.8-12.8
			C216,297.4,222.7,300.2,222.7,305.8z"/>
		<path fill="#F9B54C" d="M203.7,341.7l12.8,0c3.4,0,6.2,2.8,6.2,6.2l0,12.8c0,5.6-6.7,8.4-10.7,4.4l-12.8-12.8
			C195.3,348.5,198.1,341.7,203.7,341.7z"/>
	</g>
	<path fill="#324A5E" d="M321.4,375.8c2.4-4.6,0.6-13.3-7.1-21.3c-8.5-9-20.4-12.2-26.1-9.4c-9.7-4.1-20.6-6.4-32.3-6.4
		c-11.7,0-22.6,2.3-32.3,6.4c-5.7-2.7-17.6,0.4-26.1,9.4c-7.6,8-9.4,16.7-7.1,21.3c-2.6,5.9-4.1,12.2-4.1,18.8
		c0,30.9,31.1,46.6,69.5,46.6c38.4,0,69.5-15.6,69.5-46.6C325.5,388,324,381.7,321.4,375.8z"/>
	<path fill="#2B3B4E" d="M288.1,370c-1.5,20.1-22.9,26.8-22.9,26.8c27.4,1,35.1-14.3,37.2-25.2c0.9-5-3.6-9.2-8.5-8.2l0,0
		C290.6,364,288.3,366.7,288.1,370z"/>
	<path fill="#2B3B4E" d="M223.9,370c1.5,20.1,22.9,26.8,22.9,26.8c-27.4,1-35.1-14.3-37.2-25.2c-0.9-5,3.6-9.2,8.5-8.2l0,0
		C221.4,364,223.7,366.7,223.9,370z"/>
	<path fill="#2B3B4E" d="M296.9,400.5c-2.7,16.6-20,29.5-40.9,29.5c-20.9,0-38.1-12.9-40.9-29.5c10.3,8.8,24.8,14.3,40.9,14.3
		S286.5,409.3,296.9,400.5z"/>
	<g>
		<g>
			<g>
				
					<ellipse transform="matrix(-0.9037 0.4282 -0.4282 -0.9037 680.1802 319.9535)" fill="#FFFFFF" cx="304.1" cy="236.5" rx="15.8" ry="29.7"/>
				
					<ellipse transform="matrix(-0.9037 0.4282 -0.4282 -0.9037 683.9863 328.5017)" fill="#54C0EB" cx="305" cy="241.2" rx="12.4" ry="19.3"/>
				
					<ellipse transform="matrix(-0.9037 0.4282 -0.4282 -0.9037 683.9849 328.5077)" fill="#2B3B4E" cx="305" cy="241.2" rx="6.3" ry="9.8"/>
				<ellipse fill="#FFFFFF" cx="300.2" cy="231.7" rx="3.9" ry="4.7"/>
			</g>
			<path fill="#324A5E" d="M275.5,191.3c0,0,2.8-1.2,6.7-2.2c0.9-0.3,2-0.4,3.1-0.7c1.1-0.1,2.2-0.4,3.3-0.4c1.1-0.1,2.3-0.1,3.5,0
				c1.2,0,2.4,0.3,3.5,0.4c1.2,0.3,2.4,0.4,3.5,0.8c1.1,0.5,2.4,0.6,3.4,1.1c1.1,0.4,2.2,0.9,3.3,1.3c1,0.5,2,1,3,1.4
				c1.9,0.8,3.4,1.7,4.7,2.2c1.2,0.5,1.9,0.8,1.9,0.8s-0.3-0.7-0.9-1.8c-0.3-0.6-0.7-1.3-1.2-2c-0.5-0.8-1.1-1.7-1.9-2.4
				c-0.8-0.8-1.6-1.8-2.5-2.7c-1-0.9-2.2-1.6-3.4-2.5c-1.2-0.9-2.6-1.4-4.1-2.1c-1.4-0.7-3.1-0.9-4.6-1.4c-1.6-0.2-3.2-0.4-4.9-0.3
				c-1.6,0.1-3.2,0.3-4.6,0.8c-1.5,0.3-2.8,1-4,1.6c-1.2,0.7-2.3,1.4-3.2,2.1c-1.9,1.4-3,3-3.8,4.1
				C275.8,190.5,275.5,191.3,275.5,191.3z"/>
		</g>
		<g>
			<g>
				
					<ellipse transform="matrix(0.9037 0.4282 -0.4282 0.9037 121.2725 -66.2416)" fill="#FFFFFF" cx="207.9" cy="236.5" rx="15.8" ry="29.7"/>
				
					<ellipse transform="matrix(0.9037 0.4282 -0.4282 0.9037 123.1993 -65.3866)" fill="#54C0EB" cx="207" cy="241.2" rx="12.4" ry="19.3"/>
				
					<ellipse transform="matrix(0.9037 0.4282 -0.4282 0.9037 123.1945 -65.3853)" fill="#2B3B4E" cx="207" cy="241.2" rx="6.3" ry="9.8"/>
				<ellipse fill="#FFFFFF" cx="211.8" cy="231.7" rx="3.9" ry="4.7"/>
			</g>
			<path fill="#324A5E" d="M236.5,191.3c0,0-2.8-1.2-6.7-2.2c-0.9-0.3-2-0.4-3.1-0.7c-1.1-0.1-2.2-0.4-3.3-0.4
				c-1.1-0.1-2.3-0.1-3.5,0c-1.2,0-2.4,0.3-3.5,0.4c-1.2,0.3-2.4,0.4-3.5,0.8c-1.1,0.5-2.4,0.6-3.4,1.1c-1.1,0.4-2.2,0.9-3.3,1.3
				c-1,0.5-2,1-3,1.4c-1.9,0.8-3.4,1.7-4.7,2.2c-1.2,0.5-1.9,0.8-1.9,0.8s0.3-0.7,0.9-1.8c0.3-0.6,0.7-1.3,1.2-2
				c0.5-0.8,1.1-1.7,1.9-2.4c0.8-0.8,1.6-1.8,2.5-2.7c1-0.9,2.2-1.6,3.4-2.5c1.2-0.9,2.6-1.4,4.1-2.1c1.4-0.7,3.1-0.9,4.6-1.4
				c1.6-0.2,3.2-0.4,4.9-0.3c1.6,0.1,3.2,0.3,4.6,0.8c1.5,0.3,2.8,1,4,1.6c1.2,0.7,2.3,1.4,3.2,2.1c1.9,1.4,3,3,3.8,4.1
				C236.2,190.5,236.5,191.3,236.5,191.3z"/>
		</g>
	</g>
</g>
</svg>
