<?xml version="1.0" encoding="utf-8"?>
<!-- Generator: Adobe Illustrator 18.0.0, SVG Export Plug-In . SVG Version: 6.00 Build 0)  -->
<!DOCTYPE svg PUBLIC "-//W3C//DTD SVG 1.1//EN" "http://www.w3.org/Graphics/SVG/1.1/DTD/svg11.dtd">
<svg version="1.1" id="Layer_1" xmlns="http://www.w3.org/2000/svg" xmlns:xlink="http://www.w3.org/1999/xlink" x="0px" y="0px"
	 viewBox="0 0 512 512" enable-background="new 0 0 512 512" xml:space="preserve">
<g>
	<circle fill="#84DBFF" cx="256" cy="256" r="252.5"/>
	<g>
		<g>
			<path fill="#F9B54C" d="M448.9,196.2l12.1,1.3c-1-31.3-34.9-30.3-34.9-30.3l16.1-1.3c-36.7-26.2-73.1,17-80.6,26.8
				c-0.9,1.2-1.4,1.9-1.4,1.9l-0.9,3.4l16.9,61.6c25.2-0.8,42.5-19.2,42.5-19.2l-5.4,10.4c21.1-1.9,24.9-12.1,24.9-12.1l-3,9.2
				c21.1-1.9,20.7-23.1,20.7-23.1l3.5,9.6C473.2,205.1,448.9,196.2,448.9,196.2z"/>
			<path fill="#FF7058" d="M418,184.4c2.8-0.8,5.8-1.6,8.7-0.8c3.1,0.9,5.4,3.6,6.6,6.7c1.2,3,1.4,6.3,1.5,9.6
				c0.2,4.1,0.3,8.4-0.9,12.4c-2.1,7.3-8.4,12.9-15.4,16c-7,3.1-14.7,4.2-22.3,5.2c-3.9,0.5-7.9,1.1-11.8,1.6
				c-1.1,0.1-2.3,0.2-3.1-0.5c-0.5-0.5-0.6-1.3-0.7-2.1c-0.7-5-1.1-10.8,2.4-14.3c0.6-0.6,1.3-1.1,1.7-1.7c0.6-0.8,0.9-1.9,1.1-2.9
				c1.1-4.2,3-8.1,4.9-12c1.9-3.9,4.1-8,7.7-10.4c2.3-1.6,5.1-2.4,7.9-3.2C410.2,186.7,414.1,185.5,418,184.4z"/>
		</g>
		<g>
			<path fill="#F9B54C" d="M63.1,196.2L51,197.6c1-31.3,34.9-30.3,34.9-30.3l-16.1-1.3c36.7-26.2,73.1,17,80.6,26.8
				c0.9,1.2,1.4,1.9,1.4,1.9l0.9,3.4l-16.9,61.6c-25.2-0.8-42.5-19.2-42.5-19.2l5.4,10.4c-21.1-1.9-24.9-12.1-24.9-12.1l3,9.2
				C55.6,246,56,224.8,56,224.8l-3.5,9.6C38.8,205.1,63.1,196.2,63.1,196.2z"/>
			<path fill="#FF7058" d="M94,184.4c-2.8-0.8-5.8-1.6-8.7-0.8c-3.1,0.9-5.4,3.6-6.6,6.7c-1.2,3-1.4,6.3-1.5,9.6
				c-0.2,4.1-0.3,8.4,0.9,12.4c2.1,7.3,8.4,12.9,15.4,16c7,3.1,14.7,4.2,22.3,5.2c3.9,0.5,7.9,1.1,11.8,1.6c1.1,0.1,2.3,0.2,3.1-0.5
				c0.5-0.5,0.6-1.3,0.7-2.1c0.7-5,1.1-10.8-2.4-14.3c-0.6-0.6-1.3-1.1-1.7-1.7c-0.6-0.8-0.9-1.9-1.1-2.9c-1.1-4.2-3-8.1-4.9-12
				c-1.9-3.9-4.1-8-7.7-10.4c-2.3-1.6-5.1-2.4-7.9-3.2C101.8,186.7,97.9,185.5,94,184.4z"/>
		</g>
		<path fill="#FFD05B" d="M401.9,232.5c-1.4-15.1-9.4-28.8-22-37.2c-5.5-3.7-9.8-6-9.8-6l6.9,1.5c0.6-10.1-29.9-28-29.9-28l5.8,1.7
			c-0.8-10.5-40.3-20.9-40.3-20.9h6.3c-6.1-8.9-37.6-9.6-37.6-9.6l11.1-3.3c-17.3-5.1-36,3.3-36,3.3c-3-0.9,3-9.6,3-9.6
			c-3.9,0.4-7.7,3.2-10,5.1c-2.2-1.9-6.1-4.7-10-5.1c0,0,5.9,8.7,3,9.6c0,0-18.6-8.4-36-3.3l11.1,3.3c0,0-31.5,0.8-37.6,9.6h6.3
			c0,0-39.4,10.4-40.3,20.9l5.8-1.7c0,0-30.5,17.9-29.9,28l6.9-1.5c0,0-4.3,2.3-9.8,6c-12.5,8.5-20.6,22.2-22,37.2
			c-3.4,37-6.6,119.3,28.9,142.3c0,0,47.4,34.3,75.9,41.1c12.5,3,27.3,14.3,47.6,14.6c20.4-0.3,35.2-11.6,47.6-14.6
			c28.5-6.8,75.9-41.1,75.9-41.1C408.6,351.9,405.3,269.5,401.9,232.5z"/>
		<path fill="#324A5E" d="M276.2,320c0,14.9-12,25.6-26.8,25.6c-14.8,0-26.8-10.7-26.8-25.6c0-14.9,12-15.4,26.8-15.4
			C264.2,304.6,276.2,305.2,276.2,320z"/>
		<g>
			<g>
				<g>
					<g>
						<path fill="#FFFFFF" d="M295.5,282.7c3.1-1.3,6.3-1.9,9.7-1.9c6.5,0.1,13.3,1.7,18.7,5.5c0,0,0.1,0.1,0.1,0.1
							c2,0.5,3.7,1.4,5.1,2.6c6-7.1,9.8-17.5,9.8-29.1c0-21.4-12.8-38.7-28.5-38.7c-15.7,0-28.5,17.3-28.5,38.7
							c0,9.3,2.4,17.8,6.4,24.5C291.1,283.9,293.8,283.4,295.5,282.7z"/>
						<path fill="#F9B54C" d="M283.6,287.1c0,0,0.6-0.7,1.9-1.7c0.7-0.5,1.5-1.1,2.5-1.7c1-0.6,2.1-1.2,3.4-1.8
							c1.3-0.6,2.8-1.1,4.3-1.6c1.6-0.3,3.3-0.9,5.1-1c0.9-0.1,1.8-0.2,2.7-0.3c0.9,0,1.9,0,2.8,0c1,0,1.9,0.1,2.9,0.3l2.9,0.4
							c1.8,0.6,3.7,1,5.5,1.6c0.9,0.4,1.7,0.7,2.6,1.1c0.8,0.4,1.7,0.7,2.5,1.2c1.5,0.9,3,1.8,4.4,2.7c1.3,1,2.5,2,3.6,2.9
							c0.5,0.4,1.1,0.9,1.6,1.3c0.4,0.5,0.9,0.9,1.3,1.3c0.8,0.8,1.5,1.6,2,2.2c1.1,1.2,1.7,1.9,1.7,1.9s-0.8-0.5-2.2-1.4
							c-0.7-0.5-1.5-1-2.4-1.6c-0.5-0.3-0.9-0.7-1.5-1c-0.5-0.3-1.1-0.6-1.7-1c-1.2-0.7-2.4-1.4-3.8-2.2c-1.4-0.7-2.9-1.3-4.4-2.1
							c-1.5-0.7-3.2-1.2-4.8-1.9c-1.6-0.6-3.4-0.9-5.1-1.4l-2.6-0.4c-0.9-0.1-1.7-0.3-2.6-0.3c-0.9,0-1.7-0.1-2.6-0.2
							c-0.8-0.1-1.7,0-2.5,0.1c-1.7,0-3.2,0.3-4.8,0.4c-0.8,0.1-1.5,0.3-2.2,0.4c-0.7,0.1-1.4,0.3-2,0.5c-1.3,0.3-2.5,0.7-3.5,1.1
							c-1,0.4-2,0.7-2.7,1c-0.7,0.3-1.3,0.6-1.7,0.8C283.8,287,283.6,287.1,283.6,287.1z"/>
					</g>
				</g>
				<g>
					<ellipse fill="#84DBFF" cx="308.9" cy="255.1" rx="14" ry="17.8"/>
					<ellipse fill="#324A5E" cx="308" cy="255.3" rx="6.6" ry="9.2"/>
					<ellipse fill="#FFFFFF" cx="303.7" cy="249.6" rx="2.2" ry="3"/>
				</g>
			</g>
			<g>
				<g>
					<g>
						<path fill="#FFFFFF" d="M203.3,282.7c-3.1-1.3-6.3-1.9-9.7-1.9c-6.5,0.1-13.3,1.7-18.7,5.5c0,0-0.1,0.1-0.1,0.1
							c-2,0.5-3.7,1.4-5.1,2.6c-6-7.1-9.8-17.5-9.8-29.1c0-21.4,12.8-38.7,28.5-38.7s28.5,17.3,28.5,38.7c0,9.3-2.4,17.8-6.4,24.5
							C207.7,283.9,205,283.4,203.3,282.7z"/>
						<path fill="#F9B54C" d="M215.3,287.1c0,0-0.6-0.7-1.9-1.7c-0.7-0.5-1.5-1.1-2.5-1.7c-1-0.6-2.1-1.2-3.4-1.8
							c-1.3-0.6-2.8-1.1-4.3-1.6c-1.6-0.3-3.3-0.9-5.1-1c-0.9-0.1-1.8-0.2-2.7-0.3c-0.9,0-1.9,0-2.8,0c-1,0-1.9,0.1-2.9,0.3
							l-2.9,0.4c-1.8,0.6-3.7,1-5.5,1.6c-0.9,0.4-1.7,0.7-2.6,1.1c-0.8,0.4-1.7,0.7-2.5,1.2c-1.5,0.9-3,1.8-4.4,2.7
							c-1.3,1-2.5,2-3.6,2.9c-0.5,0.4-1.1,0.9-1.6,1.3c-0.4,0.5-0.9,0.9-1.3,1.3c-0.8,0.8-1.5,1.6-2,2.2c-1.1,1.2-1.7,1.9-1.7,1.9
							s0.8-0.5,2.2-1.4c0.7-0.5,1.5-1,2.4-1.6c0.5-0.3,0.9-0.7,1.5-1c0.5-0.3,1.1-0.6,1.7-1c1.2-0.7,2.4-1.4,3.8-2.2
							c1.4-0.7,2.9-1.3,4.4-2.1c1.5-0.7,3.2-1.2,4.8-1.9c1.6-0.6,3.4-0.9,5.1-1.4l2.6-0.4c0.9-0.1,1.7-0.3,2.6-0.3
							c0.9,0,1.7-0.1,2.6-0.2c0.8-0.1,1.7,0,2.5,0.1c1.7,0,3.2,0.3,4.8,0.4c0.8,0.1,1.5,0.3,2.2,0.4c0.7,0.1,1.4,0.3,2,0.5
							c1.3,0.3,2.5,0.7,3.5,1.1c1,0.4,2,0.7,2.7,1c0.7,0.3,1.3,0.6,1.7,0.8C215.1,287,215.3,287.1,215.3,287.1z"/>
					</g>
				</g>
				<g>
					<ellipse fill="#84DBFF" cx="190" cy="255.1" rx="14" ry="17.8"/>
					<ellipse fill="#324A5E" cx="190.8" cy="255.3" rx="6.6" ry="9.2"/>
					<ellipse fill="#FFFFFF" cx="195.1" cy="249.6" rx="2.2" ry="3"/>
				</g>
			</g>
		</g>
		<g>
			<path fill="#324A5E" d="M153.3,222c0,0,0.3-0.8,0.9-2.1c0.3-0.7,0.7-1.4,1.1-2.3c0.5-0.9,1-1.9,1.7-2.9c0.6-1,1.4-2.1,2.2-3.3
				c0.8-1.2,1.8-2.3,2.8-3.5c1.1-1.1,2.1-2.4,3.3-3.5c1.2-1.1,2.4-2.3,3.8-3.3c0.7-0.5,1.3-1.1,2-1.6c0.7-0.5,1.4-1,2.1-1.5
				c1.3-1,2.8-1.8,4.3-2.5c1.4-0.7,3-1,4.4-1.4c0.7-0.2,1.4-0.3,2.1-0.4c0.7,0,1.4-0.1,2-0.1c1.3,0,2.5-0.1,3.5,0.1
				c1.1,0.2,2,0.4,2.7,0.5c1.5,0.4,2.3,0.7,2.3,0.7l0.1,0.8c0,0-0.8,0.5-2,1.3c-0.6,0.4-1.4,0.7-2.3,1.2c-0.9,0.4-1.8,1-2.8,1.5
				c-1,0.5-2.1,1-3.3,1.6c-1.1,0.6-2.4,1-3.6,1.6c-1.2,0.5-2.6,0.9-4,1.5c-0.7,0.3-1.4,0.5-2.1,0.8c-0.7,0.3-1.3,0.7-2,1
				c-1.3,0.7-2.6,1.5-3.8,2.3c-1.3,0.8-2.4,1.7-3.6,2.6c-1.1,0.9-2.2,1.8-3.2,2.7c-1,0.9-1.9,1.7-2.7,2.6c-1.7,1.6-2.9,3.1-3.8,4.2
				c-0.9,1.1-1.3,1.7-1.3,1.7L153.3,222z"/>
			<path fill="#324A5E" d="M344.9,222.4c0,0-0.4-0.6-1.3-1.7c-0.9-1.1-2.2-2.5-3.8-4.2c-0.8-0.8-1.7-1.7-2.7-2.6
				c-1-0.9-2.1-1.8-3.2-2.7c-1.2-0.8-2.3-1.8-3.6-2.6c-1.2-0.8-2.5-1.6-3.8-2.3c-0.7-0.3-1.3-0.7-2-1c-0.7-0.3-1.4-0.5-2.1-0.8
				c-1.3-0.6-2.7-0.9-4-1.5c-1.2-0.6-2.5-1-3.6-1.6c-1.1-0.6-2.2-1.1-3.3-1.6c-1-0.5-2-1.1-2.8-1.5c-0.9-0.4-1.6-0.8-2.3-1.2
				c-1.3-0.7-2-1.3-2-1.3l0.1-0.8c0,0,0.8-0.4,2.3-0.7c0.7-0.2,1.6-0.4,2.7-0.5c1.1-0.2,2.2-0.1,3.5-0.1c0.6,0,1.3,0.1,2,0.1
				c0.7,0.1,1.4,0.2,2.1,0.4c1.4,0.3,3,0.6,4.4,1.4c1.5,0.7,2.9,1.5,4.3,2.5c0.7,0.5,1.4,1,2.1,1.5c0.7,0.5,1.3,1.1,2,1.6
				c1.4,1,2.6,2.1,3.8,3.3c1.2,1.1,2.3,2.4,3.3,3.5c1,1.2,2,2.3,2.8,3.5c0.8,1.1,1.6,2.2,2.2,3.3c0.7,1,1.2,2,1.7,2.9
				c0.5,0.9,0.8,1.6,1.1,2.3c0.6,1.3,0.9,2.1,0.9,2.1L344.9,222.4z"/>
		</g>
		<path fill="#324A5E" d="M305.6,358.4c-8.3,23-30.3,39.5-56.1,39.5c-25.9,0-47.9-16.5-56.1-39.5c16.2,5.9,35.5,9.3,56.1,9.3
			C270.1,367.7,289.3,364.3,305.6,358.4z"/>
	</g>
</g>
</svg>
