<?xml version="1.0" encoding="utf-8"?>
<!-- Generator: Adobe Illustrator 18.0.0, SVG Export Plug-In . SVG Version: 6.00 Build 0)  -->
<!DOCTYPE svg PUBLIC "-//W3C//DTD SVG 1.1//EN" "http://www.w3.org/Graphics/SVG/1.1/DTD/svg11.dtd">
<svg version="1.1" id="Layer_1" xmlns="http://www.w3.org/2000/svg" xmlns:xlink="http://www.w3.org/1999/xlink" x="0px" y="0px"
	 viewBox="0 0 512 512" enable-background="new 0 0 512 512" xml:space="preserve">
<g>
	<circle fill="#324A5E" cx="256" cy="256" r="252.5"/>
	<g>
		<path fill="#CED5E0" d="M437.4,122.6c-6.1,15.1-19.5,23-28.7,26.8c-4.7,1.9-9.9,2.8-15,3c-47,1.9-65.3,54.9-65.3,54.9l54.8,62.3
			C486.2,235.7,437.4,122.6,437.4,122.6z"/>
		<path fill="#CED5E0" d="M74.6,122.6c6.1,15.1,19.5,23,28.7,26.8c4.7,1.9,9.9,2.8,15,3c47,1.9,65.3,54.9,65.3,54.9l-54.8,62.3
			C25.8,235.7,74.6,122.6,74.6,122.6z"/>
		<path fill="#E6E9EE" d="M286.5,147.3c-0.5-2.1-7.2-16.8-7.2-16.8c-1.9,2-4.1,12-4.8,15.5c0.6-5.7-5.7-15.5-5.7-15.5
			c-4.6,3.7-8,16.8-8,16.8c-1.3-8.9-4.2-13.4-4.8-14.2c-0.6,0.8-3.5,5.3-4.8,14.2c0,0-3.5-13.1-8-16.8c0,0-6.3,9.9-5.7,15.5
			c-0.7-3.5-2.9-13.5-4.8-15.5c0,0-6.7,14.7-7.2,16.8c-0.5,2.1-132.1,7-125.2,168.6l6.4-12.4c0,0-5.1,22.5,7.5,48.2l3.9-13.8
			c0,0,2.1,33.4,41.6,49.8l0-5.3c2,10.9,16,32.1,96.4,22.5c80.4,9.7,94.4-11.6,96.4-22.5l0,5.3c39.5-16.4,41.6-49.8,41.6-49.8
			l3.9,13.8c12.5-25.6,7.5-48.2,7.5-48.2l6.4,12.4C418.6,154.3,287,149.3,286.5,147.3z"/>
		<ellipse fill="#ACB3BA" cx="256" cy="377.6" rx="72.9" ry="59"/>
		<path fill="#324A5E" d="M290.9,336.2c0,14.2-15.6,33.8-34.9,33.8c-19.2,0-34.9-19.6-34.9-33.8s15.6-20.5,34.9-20.5
			C275.2,315.8,290.9,322,290.9,336.2z"/>
		<path fill="#324A5E" d="M211.9,382.1c0.3,1.2,0.7,2.5,1.2,3.7c0.5,1.1,0.9,2.3,1.6,3.3c1.2,2.1,2.7,4,4.5,5.6
			c0.9,0.8,1.8,1.5,2.7,2.2c1,0.6,2,1.2,3,1.7c1,0.5,2.1,0.9,3.2,1.2c1.1,0.3,2.2,0.5,3.3,0.7c1.1,0.1,2.2,0.2,3.3,0.1
			c0.3,0,1.2-0.1,1.7-0.1c0.6-0.1,1-0.2,1.5-0.2c2.1-0.4,4.2-1.2,6-2.3c1.8-1.1,3.6-2.3,5-3.9c1.4-1.6,2.6-3.4,3.5-5.3
			c0.9-2,3.2-2.9,5.2-2c0.9,0.4,1.6,1.1,2,2c0.9,1.9,2.1,3.7,3.5,5.3c1.4,1.6,3.2,2.9,5,3.9c1.9,1.1,3.9,1.8,6,2.3
			c1,0.2,2.3,0.3,3.1,0.3l1.9,0l1.5-0.1c1.1-0.1,2.2-0.3,3.2-0.7c1.1-0.3,2.1-0.7,3.2-1.2c1-0.4,2-1,3-1.7c1-0.6,1.9-1.4,2.7-2.2
			c1.8-1.6,3.2-3.5,4.5-5.6c0.7-1,1.1-2.2,1.6-3.3c0.5-1.2,0.8-2.4,1.2-3.6c0.1,1.3,0.1,2.6,0,3.9c-0.1,1.3-0.3,2.6-0.7,3.9
			c-0.3,1.3-0.9,2.6-1.5,3.8c-0.6,1.2-1.3,2.4-2.1,3.5c-1.7,2.2-3.7,4.2-6.1,5.7c-1.2,0.8-2.4,1.5-3.8,2c-1.3,0.6-2.7,1-4.1,1.4
			l-2.3,0.4l-1.9,0.2c-1.7,0.1-3,0-4.5-0.1c-2.9-0.3-5.8-1.2-8.5-2.5c-5.3-2.6-9.7-7.2-12.2-12.5h7.2c-2.6,5.4-6.9,9.9-12.2,12.5
			c-2.7,1.3-5.5,2.1-8.5,2.5c-0.8,0.1-1.6,0.1-2.3,0.2c-0.7,0-1.1,0-2.1,0c-1.5-0.1-2.9-0.3-4.3-0.7c-1.4-0.4-2.8-0.8-4.1-1.4
			c-1.3-0.5-2.6-1.2-3.8-2c-2.4-1.6-4.4-3.5-6.1-5.7c-0.8-1.1-1.5-2.3-2.1-3.5c-0.6-1.2-1.1-2.5-1.5-3.8c-0.4-1.3-0.6-2.6-0.7-3.9
			C211.8,384.7,211.9,383.4,211.9,382.1z"/>
		<g>
			<g>
				<g>
					
						<ellipse transform="matrix(0.9037 0.4282 -0.4282 0.9037 137.5848 -57.3777)" fill="#FFFFFF" cx="196.3" cy="277.2" rx="20.5" ry="38.4"/>
					
						<ellipse transform="matrix(0.9037 0.4282 -0.4282 0.9037 140.0725 -56.2718)" fill="#54C0EB" cx="195.1" cy="283.2" rx="16" ry="25"/>
					
						<ellipse transform="matrix(0.9037 0.4282 -0.4282 0.9037 140.0692 -56.2714)" fill="#2B3B4E" cx="195.1" cy="283.2" rx="8.1" ry="12.6"/>
					<ellipse fill="#FFFFFF" cx="201.4" cy="271" rx="5" ry="6.1"/>
				</g>
				<path fill="#324A5E" d="M233.3,218.7c0,0-3.7-1.6-8.7-2.9c-1.2-0.4-2.6-0.5-4-0.9c-1.4-0.1-2.8-0.5-4.3-0.5
					c-1.5-0.2-3-0.1-4.5,0c-1.5,0.1-3,0.3-4.6,0.5c-1.5,0.4-3.1,0.6-4.6,1.1c-1.5,0.6-3,0.8-4.5,1.5c-1.5,0.6-2.9,1.1-4.2,1.7
					c-1.3,0.7-2.6,1.2-3.9,1.8c-2.5,1-4.5,2.2-6,2.8c-1.5,0.7-2.5,1-2.5,1s0.4-0.9,1.2-2.4c0.4-0.7,0.9-1.6,1.6-2.6
					c0.6-1,1.4-2.1,2.4-3.2c1-1.1,2.1-2.3,3.3-3.4c1.3-1.1,2.8-2.1,4.3-3.2c1.5-1.1,3.4-1.8,5.2-2.7c1.8-0.9,3.9-1.2,5.9-1.7
					c2.1-0.2,4.2-0.5,6.3-0.4c2.1,0.1,4.1,0.4,6,1c1.9,0.4,3.6,1.3,5.2,2c1.5,0.9,2.9,1.8,4.1,2.8c2.4,1.8,3.9,3.9,4.9,5.3
					C233,217.8,233.3,218.7,233.3,218.7z"/>
			</g>
			<g>
				<g>
					
						<ellipse transform="matrix(-0.9037 0.4282 -0.4282 -0.9037 719.5905 392.4679)" fill="#FFFFFF" cx="315.7" cy="277.2" rx="20.5" ry="38.4"/>
					
						<ellipse transform="matrix(-0.9037 0.4282 -0.4282 -0.9037 724.508 403.5194)" fill="#54C0EB" cx="316.9" cy="283.2" rx="16" ry="25"/>
					
						<ellipse transform="matrix(-0.9037 0.4282 -0.4282 -0.9037 724.5087 403.5184)" fill="#2B3B4E" cx="316.9" cy="283.2" rx="8.1" ry="12.6"/>
					<ellipse fill="#FFFFFF" cx="310.6" cy="271" rx="5" ry="6.1"/>
				</g>
				<path fill="#324A5E" d="M278.7,218.7c0,0,3.7-1.6,8.7-2.9c1.2-0.4,2.6-0.5,4-0.9c1.4-0.1,2.8-0.5,4.3-0.5c1.5-0.2,3-0.1,4.5,0
					c1.5,0.1,3,0.3,4.6,0.5c1.5,0.4,3.1,0.6,4.6,1.1c1.5,0.6,3,0.8,4.5,1.5c1.5,0.6,2.9,1.1,4.2,1.7c1.3,0.7,2.6,1.2,3.9,1.8
					c2.5,1,4.5,2.2,6,2.8c1.5,0.7,2.5,1,2.5,1s-0.4-0.9-1.2-2.4c-0.4-0.7-0.9-1.6-1.6-2.6c-0.6-1-1.4-2.1-2.4-3.2
					c-1-1.1-2.1-2.3-3.3-3.4c-1.3-1.1-2.8-2.1-4.3-3.2c-1.5-1.1-3.4-1.8-5.2-2.7c-1.8-0.9-3.9-1.2-5.9-1.7c-2.1-0.2-4.2-0.5-6.3-0.4
					c-2.1,0.1-4.1,0.4-6,1c-1.9,0.4-3.6,1.3-5.2,2c-1.5,0.9-2.9,1.8-4.1,2.8c-2.4,1.8-3.9,3.9-4.9,5.3
					C279,217.8,278.7,218.7,278.7,218.7z"/>
			</g>
		</g>
	</g>
</g>
</svg>
