<?xml version="1.0" encoding="utf-8"?>
<!-- Generator: Adobe Illustrator 18.0.0, SVG Export Plug-In . SVG Version: 6.00 Build 0)  -->
<!DOCTYPE svg PUBLIC "-//W3C//DTD SVG 1.1//EN" "http://www.w3.org/Graphics/SVG/1.1/DTD/svg11.dtd">
<svg version="1.1" id="Layer_1" xmlns="http://www.w3.org/2000/svg" xmlns:xlink="http://www.w3.org/1999/xlink" x="0px" y="0px"
	 viewBox="0 0 512 512" enable-background="new 0 0 512 512" xml:space="preserve">
<g>
	<circle fill="#FD8469" cx="256" cy="256" r="252.5"/>
	<g>
		<path fill="#324A5E" d="M363.5,95.9c17.4-17.4,27.5-12,37.1-2.4c9.6,9.6,15,19.7-2.4,37.1c-17.4,17.4-51,35.5-60.5,25.9
			C328,146.9,346.1,113.3,363.5,95.9z"/>
		<path fill="#324A5E" d="M148.6,95.9c-17.4-17.4-27.5-12-37.1-2.4s-15,19.7,2.4,37.1c17.4,17.4,51,35.5,60.5,25.9
			C184,146.9,165.9,113.3,148.6,95.9z"/>
	</g>
	<path fill="#84DBFF" d="M374.2,221.7c0,83.6-52.9,193.2-118.2,193.2S137.8,305.2,137.8,221.7S190.7,112.3,256,112.3
		S374.2,138.1,374.2,221.7z"/>
	<ellipse fill="#54C0EB" cx="256" cy="382.2" rx="98.2" ry="73.2"/>
	<path fill="#FFFFFF" d="M231,333.5c0,0.1,0,0.2,0,0.3c0.2,14.4,11,25.7,23.7,25.7h2.8c12.7,0,23.4-11.3,23.7-25.7
		c0-0.1,0-0.2,0-0.3c0-0.1,0-0.2,0-0.4c0-0.7,0-1.3,0-2c0-58.7-11.2-106.4-25-107.9c-13.9,1.5-25,49.2-25,107.9c0,0.7,0,1.4,0,2
		C231,333.3,231,333.4,231,333.5z"/>
	<g>
		<circle fill="#324A5E" cx="304.4" cy="359.5" r="14.2"/>
		<circle fill="#324A5E" cx="207.6" cy="359.5" r="14.2"/>
	</g>
	<g>
		<g>
			<g>
				<path fill="#FFFFFF" d="M294.3,229.3c1.3,10.5,9.5,18.6,18.2,18.2c8.8-0.4,14.8-9.3,13.5-19.8c-1.3-10.5-9.5-18.6-18.2-18.2
					C299,209.9,293,218.8,294.3,229.3z"/>
				<path fill="#F9B54C" d="M296.9,232.1c0.8,6.8,7.1,12,14,11.7c6.9-0.3,11.8-6.1,10.9-12.9c-0.8-6.8-7.1-12-14-11.7
					C301,219.5,296.1,225.3,296.9,232.1z"/>
				<path fill="#2B3B4E" d="M303.1,231.8c0.4,3.4,3.6,6.1,7.1,5.9c3.5-0.2,6-3.1,5.5-6.6c-0.4-3.4-3.6-6.1-7.1-5.9
					C305.1,225.4,302.6,228.4,303.1,231.8z"/>
				<path fill="#FFFFFF" d="M304.5,223.8c-0.9,1.6,0,3.2,2,3.7c2,0.5,4.4-0.4,5.4-1.9c0.9-1.6,0-3.2-2-3.7
					C307.9,221.4,305.5,222.3,304.5,223.8z"/>
			</g>
			<path fill="#324A5E" d="M293,202.5c0,0,2.4-1.1,5.8-1.9c0.8-0.3,1.7-0.3,2.6-0.6c0.9-0.1,1.9-0.3,2.9-0.3c1-0.1,2,0,3,0
				c1,0,2,0.2,3,0.3c1,0.3,2,0.4,3,0.7c1,0.4,2,0.5,3,1c1,0.4,1.9,0.8,2.8,1.1c0.9,0.4,1.7,0.8,2.6,1.2c1.7,0.7,3,1.5,4,1.9
				c1,0.4,1.7,0.7,1.7,0.7s-0.3-0.6-0.8-1.6c-0.3-0.5-0.6-1.1-1.1-1.7c-0.4-0.7-0.9-1.4-1.6-2.1c-0.7-0.7-1.4-1.5-2.2-2.3
				c-0.9-0.7-1.9-1.4-2.9-2.1c-1-0.8-2.3-1.2-3.5-1.8c-1.2-0.6-2.6-0.8-4-1.2c-1.4-0.1-2.8-0.3-4.2-0.2c-1.4,0.1-2.7,0.3-4,0.7
				c-1.3,0.3-2.4,0.9-3.5,1.3c-1,0.6-2,1.2-2.7,1.8c-1.6,1.2-2.6,2.6-3.2,3.5C293.2,201.8,293,202.5,293,202.5z"/>
		</g>
		<g>
			<g>
				<path fill="#FFFFFF" d="M217.7,229.3c-1.3,10.5-9.5,18.6-18.2,18.2c-8.8-0.4-14.8-9.3-13.5-19.8c1.3-10.5,9.5-18.6,18.2-18.2
					C213,209.9,219,218.8,217.7,229.3z"/>
				<path fill="#F9B54C" d="M215.1,232.1c-0.9,6.8-7.1,12-14,11.7s-11.8-6.1-10.9-12.9c0.9-6.8,7.1-12,14-11.7
					S215.9,225.3,215.1,232.1z"/>
				<path fill="#2B3B4E" d="M208.9,231.8c-0.4,3.4-3.6,6.1-7.1,5.9c-3.5-0.2-6-3.1-5.5-6.6c0.4-3.4,3.6-6.1,7.1-5.9
					C206.9,225.4,209.4,228.4,208.9,231.8z"/>
				<path fill="#FFFFFF" d="M207.5,223.8c0.9,1.6,0,3.2-2,3.7c-2,0.5-4.4-0.4-5.4-1.9c-0.9-1.6,0-3.2,2-3.7
					C204.1,221.4,206.5,222.3,207.5,223.8z"/>
			</g>
			<path fill="#324A5E" d="M219,202.5c0,0-2.4-1.1-5.8-1.9c-0.8-0.3-1.7-0.3-2.6-0.6c-0.9-0.1-1.9-0.3-2.9-0.3c-1-0.1-2,0-3,0
				c-1,0-2,0.2-3,0.3c-1,0.3-2,0.4-3,0.7c-1,0.4-2,0.5-3,1c-1,0.4-1.9,0.8-2.8,1.1c-0.9,0.4-1.7,0.8-2.6,1.2c-1.7,0.7-3,1.5-4,1.9
				c-1,0.4-1.7,0.7-1.7,0.7s0.3-0.6,0.8-1.6c0.3-0.5,0.6-1.1,1.1-1.7c0.4-0.7,0.9-1.4,1.6-2.1c0.7-0.7,1.4-1.5,2.2-2.3
				c0.9-0.7,1.9-1.4,2.9-2.1c1-0.8,2.3-1.2,3.5-1.8c1.2-0.6,2.6-0.8,4-1.2c1.4-0.1,2.8-0.3,4.2-0.2c1.4,0.1,2.7,0.3,4,0.7
				c1.3,0.3,2.4,0.9,3.5,1.3c1,0.6,2,1.2,2.7,1.8c1.6,1.2,2.6,2.6,3.2,3.5C218.8,201.8,219,202.5,219,202.5z"/>
		</g>
	</g>
</g>
</svg>
