<?xml version="1.0" encoding="utf-8"?>
<!-- Generator: Adobe Illustrator 18.0.0, SVG Export Plug-In . SVG Version: 6.00 Build 0)  -->
<!DOCTYPE svg PUBLIC "-//W3C//DTD SVG 1.1//EN" "http://www.w3.org/Graphics/SVG/1.1/DTD/svg11.dtd">
<svg version="1.1" id="Layer_1" xmlns="http://www.w3.org/2000/svg" xmlns:xlink="http://www.w3.org/1999/xlink" x="0px" y="0px"
	 viewBox="0 0 512 512" enable-background="new 0 0 512 512" xml:space="preserve">
<g>
	<circle fill="#FFD05B" cx="256" cy="256" r="252.5"/>
	<path fill="#324A5E" d="M436,175c0,0-69-69.1-116.6,37.7c-32.2-15.6-63.8-24.3-63.8-24.3s-31.2,8.6-63.2,24
		C144.8,105.9,76,175,76,175c29.6,25.8,43.9,67.5,48.9,104.6c0,0.5-0.1,1-0.1,1.6c0,56.9,58.6,140.4,130.8,140.4
		c65.7,0,120.1-69.1,129.4-124.4l0,0l0-0.1c0.6-3.7,1-7.4,1.3-10.9C390.3,253.9,404.5,202.5,436,175z"/>
	<g>
		<path fill="#E6E9EE" d="M322.7,313.2c0,0-6.2,71.4-66.7,76.5c-60.5-5.1-66.7-76.5-66.7-76.5c12.4,21.1,24.7,30.7,35.4,34.5
			c3.5,1.2,6.8,1.8,9.9,2c12.8,0.7,21.4-6.1,21.4-6.1s8.6,6.8,21.4,6.1c3.1-0.1,6.4-0.8,9.9-2C297.9,344,310.3,334.3,322.7,313.2z"
			/>
		<g>
			<path fill="#FFFFFF" d="M287.3,347.7c-1.9,6.5-6.3,15.7-15.6,28.1c0.4-1,5.2-13.6,5.7-26.1C280.4,349.6,283.8,348.9,287.3,347.7z
				"/>
			<path fill="#FFFFFF" d="M240.3,375.8c-9.2-12.4-13.6-21.6-15.5-28.1c3.5,1.2,6.8,1.8,9.9,2C235.1,362.2,239.9,374.8,240.3,375.8z
				"/>
		</g>
	</g>
	<path fill="#FF7058" d="M278.9,308.3c0,12.7-10.3,13.7-22.9,13.7c-12.7,0-22.9-1-22.9-13.7c0-12.7,22.9-20.4,22.9-20.4
		S278.9,295.7,278.9,308.3z"/>
	<g>
		<g>
			<path fill="#FFFFFF" d="M280.9,266.4c1.3,10.3,9.3,18.4,18,17.9c8.6-0.4,14.6-9.2,13.3-19.5c-1.3-10.3-9.3-18.4-18-17.9
				C285.5,247.3,279.6,256,280.9,266.4z"/>
			<path fill="#F9B54C" d="M283.5,269.2c0.8,6.7,7,11.9,13.8,11.5c6.8-0.3,11.6-6.1,10.8-12.8c-0.8-6.7-7-11.9-13.8-11.5
				C287.4,256.8,282.6,262.5,283.5,269.2z"/>
			<path fill="#2B3B4E" d="M289.5,268.9c0.4,3.4,3.6,6,7,5.8c3.4-0.2,5.9-3.1,5.4-6.5c-0.4-3.4-3.6-6-7-5.8
				C291.5,262.6,289.1,265.5,289.5,268.9z"/>
			<path fill="#FFFFFF" d="M290.9,261c-0.9,1.5,0,3.2,2,3.7c2,0.5,4.4-0.4,5.3-1.9c0.9-1.5,0-3.2-2-3.7
				C294.2,258.6,291.9,259.5,290.9,261z"/>
		</g>
		<path fill="#ACB3BA" d="M279.6,239.9c0,0,2.4-1,5.7-1.9c0.8-0.3,1.7-0.3,2.6-0.6c0.9-0.1,1.9-0.3,2.8-0.3c1-0.1,2,0,2.9,0
			c1,0,2,0.2,3,0.3c1,0.3,2,0.4,3,0.7c1,0.4,2,0.5,2.9,1c1,0.4,1.9,0.7,2.8,1.1c0.9,0.4,1.7,0.8,2.5,1.2c1.6,0.7,2.9,1.5,4,1.9
			c1,0.4,1.6,0.7,1.6,0.7s-0.3-0.6-0.8-1.6c-0.3-0.5-0.6-1.1-1-1.7c-0.4-0.7-0.9-1.4-1.6-2.1c-0.6-0.7-1.4-1.5-2.2-2.3
			c-0.8-0.7-1.8-1.4-2.8-2.1c-1-0.7-2.2-1.2-3.4-1.8c-1.2-0.6-2.6-0.8-3.9-1.1c-1.4-0.1-2.8-0.3-4.1-0.2c-1.4,0.1-2.7,0.2-3.9,0.6
			c-1.3,0.3-2.4,0.9-3.4,1.3c-1,0.6-1.9,1.1-2.7,1.8c-1.6,1.2-2.6,2.5-3.2,3.5C279.8,239.3,279.6,239.9,279.6,239.9z"/>
		<g>
			<path fill="#FFFFFF" d="M231.1,266.4c-1.3,10.3-9.3,18.4-18,17.9c-8.6-0.4-14.6-9.2-13.3-19.5c1.3-10.3,9.3-18.4,18-17.9
				C226.5,247.3,232.4,256,231.1,266.4z"/>
			<path fill="#F9B54C" d="M228.5,269.2c-0.8,6.7-7,11.9-13.8,11.5c-6.8-0.3-11.6-6.1-10.8-12.8c0.8-6.7,7-11.9,13.8-11.5
				C224.6,256.8,229.4,262.5,228.5,269.2z"/>
			<path fill="#2B3B4E" d="M222.5,268.9c-0.4,3.4-3.6,6-7,5.8c-3.4-0.2-5.9-3.1-5.4-6.5c0.4-3.4,3.6-6,7-5.8
				C220.5,262.6,222.9,265.5,222.5,268.9z"/>
			<path fill="#FFFFFF" d="M221.1,261c0.9,1.5,0,3.2-2,3.7c-2,0.5-4.4-0.4-5.3-1.9c-0.9-1.5,0-3.2,2-3.7
				C217.8,258.6,220.1,259.5,221.1,261z"/>
		</g>
		<path fill="#ACB3BA" d="M232.4,239.9c0,0-2.4-1-5.7-1.9c-0.8-0.3-1.7-0.3-2.6-0.6c-0.9-0.1-1.9-0.3-2.8-0.3c-1-0.1-2,0-3,0
			c-1,0-2,0.2-3,0.3c-1,0.3-2,0.4-3,0.7c-1,0.4-2,0.5-2.9,1c-1,0.4-1.9,0.7-2.8,1.1c-0.9,0.4-1.7,0.8-2.5,1.2
			c-1.6,0.7-2.9,1.5-4,1.9c-1,0.4-1.6,0.7-1.6,0.7s0.3-0.6,0.8-1.6c0.3-0.5,0.6-1.1,1-1.7c0.4-0.7,0.9-1.4,1.6-2.1
			c0.6-0.7,1.4-1.5,2.2-2.3c0.8-0.7,1.8-1.4,2.8-2.1c1-0.7,2.2-1.2,3.4-1.8c1.2-0.6,2.6-0.8,3.9-1.1c1.4-0.1,2.8-0.3,4.1-0.2
			c1.4,0.1,2.7,0.2,3.9,0.6c1.3,0.3,2.4,0.9,3.4,1.3c1,0.6,1.9,1.1,2.7,1.8c1.6,1.2,2.6,2.5,3.2,3.5
			C232.2,239.3,232.4,239.9,232.4,239.9z"/>
	</g>
</g>
</svg>
