<svg xmlns="http://www.w3.org/2000/svg" width="101.33" height="16" viewBox="0 0 101.33 16">
    <path d="M9.03 12.76H6.96v-1.047l-2.984.01.087-.852c.694-6.793 1.59-6.793 2.185-6.793h.222v-.84h3.056v.84h.222c.608 0 1.4 0 2.2 6.788l.095.858-3-.01v1.048zM6.56 5.62c-.283.66-.638 2.648-.87 4.555l1.8-.01.504.002H8.5v.002l1.8.005C10.057 8.3 9.7 6.3 9.4 5.62H6.56z"/>
    <path d="M8 16c-4.41 0-8-3.59-8-8s3.588-8 8-8 8 3.6 8 8-3.6 8-8 8zM8 1.5C4.44 1.5 1.5 4.4 1.5 8s2.9 6.5 6.5 6.457S14.457 11.6 14.5 8c-.043-3.6-2.9-6.5-6.5-6.458z"/>
    <g>
        <path d="M24.607 5.468c-.72 0-1.277.27-1.672.81-.395.542-.592 1.295-.592 2.262 0 2 .8 3 2.3 3 .633 0 1.4-.157 2.3-.475v1.604c-.74.307-1.566.46-2.48.46-1.31 0-2.314-.396-3.01-1.192-.694-.796-1.04-1.938-1.04-3.426 0-.938.17-1.76.51-2.464.342-.705.832-1.246 1.47-1.623.64-.376 1.39-.564 2.25-.564.876 0 1.8.2 2.6.636l-.613 1.57c-.337-.16-.676-.3-1.018-.42S24.936 5.5 24.6 5.47zM34.945 9.563c0 1.123-.296 2-.888 2.634-.593.633-1.417.95-2.474.95-.662 0-1.246-.146-1.75-.436-.507-.29-.896-.705-1.167-1.248s-.407-1.176-.407-1.9c0-1.126.293-2.002.88-2.627s1.416-.938 2.48-.938c.662 0 1.2.1 1.8.432.506.3.9.7 1.2 1.238.19.532.28 1.132.28 1.895zm-4.768.037c0 .7.1 1.2.3 1.548.224.3.6.5 1.1.524.5 0 .862-.174 1.083-.52.22-.35.33-.865.33-1.552 0-.683-.11-1.194-.333-1.536s-.586-.512-1.09-.512c-.503 0-.865.17-1.087.5s-.303.848-.28 1.51zM42.167 13.023l-.53-2.412-.716-3.045h-.042l-1.258 5.458h-2.023l-1.96-6.896h1.874l.797 3.1c.127.5.3 1.3.4 2.264h.037c.016-.31.088-.808.216-1.486l.1-.524.85-3.306h2.073l.808 3.3c.018.1 0 .2.1.4.036.2.1.4.1.564.034.2.1.4.1.6.027.2 0 .3 0 .46h.038c.038-.297.103-.703.197-1.22.095-.516.163-.864.204-1.045l.825-3.053H46.2l-1.987 6.896h-2.046zM51.148 5.998c.813 0 1.4.3 1.9.953.46.6.7 1.5.7 2.613 0 1.14-.236 2.02-.712 2.6s-1.12.938-1.938.938c-.81 0-1.445-.293-1.906-.88h-.13l-.314.758H47.31V3.426h1.882V5.66c0 .283-.024.737-.075 1.362h.075C49.632 6.3 50.3 6 51.1 5.998zm-.605 1.505c-.465 0-.804.143-1.018.4-.214.286-.325.758-.333 1.416v.203c0 .7.1 1.3.3 1.59.22.3.6.5 1 .5.386 0 .694-.177.922-.532.23-.354.343-.872.343-1.55 0-.68-.116-1.188-.345-1.527-.157-.303-.512-.503-.912-.5zM58.426 13.146c-1.11 0-1.98-.306-2.603-.92-.626-.61-.938-1.48-.938-2.602 0-1.155.29-2.048.866-2.68s1.377-.947 2.397-.947c.975 0 1.7.3 2.3.833s.814 1.3.8 2.3v.914H56.8c.02.5.2 1 .5 1.252.297.3.7.5 1.2.45.415 0 .81-.043 1.178-.13.37-.086.758-.223 1.16-.412v1.455c-.33.164-.68.286-1.055.366-.363.074-.783.074-1.383.12zm-.265-5.81c-.397 0-.71.126-.937.38s-.355.61-.39 1.075h2.642c-.01-.463-.13-.822-.364-1.075s-.55-.415-.91-.38zM64.65 13.023h-1.883V3.426h1.882v9.597zM68.504 13.023h-1.882V3.426h1.882v9.597zM73.908 13.023V4.006h1.91v7.438h3.66v1.58h-5.57zM85.275 13.023l-.364-.938h-.048c-.317.398-.644.675-.978.83-.336.154-.773.23-1.312.2-.662 0-1.183-.19-1.563-.568-.382-.378-.57-.917-.57-1.616 0-.73.255-1.27.767-1.618.513-.348 1.284-.54 2.316-.577l1.196-.037v-.27c0-.7-.358-1.048-1.074-1.048-.55 0-1.198.167-1.942.5l-.623-1.27c.794-.416 1.674-.623 2.64-.623.926 0 1.6.2 2.1.604.494.4.7 1 .7 1.84v4.594h-1.245zM84.72 9.83l-.73.023c-.546.016-.953.115-1.22.295-.27.182-.402.457-.402.8 0 .5.3.8.9.796.437 0 .785-.126 1.046-.377.26-.25.392-.584.392-.998v-.54zM92.362 5.998c.814 0 1.5.3 1.9.953.46.6.7 1.5.7 2.613 0 1.14-.237 2.02-.712 2.6-.476.625-1.12.938-1.94.938-.81 0-1.445-.293-1.905-.88h-.13l-.314.758h-1.437V3.426h1.882V5.66c0 .283-.024.737-.074 1.362h.075C90.845 6.3 91.5 6 92.4 5.998zm-.605 1.505c-.465 0-.804.143-1.018.4-.215.286-.326.758-.334 1.416v.203c0 .7.1 1.3.3 1.59.22.3.6.5 1 .5.387 0 .694-.177.922-.532.23-.354.343-.872.343-1.55 0-.68-.114-1.188-.344-1.527-.156-.303-.426-.503-.826-.5zM101.33 10.976c0 .708-.245 1.246-.737 1.615-.49.37-1.227.557-2.204.557-.504 0-.93-.033-1.284-.102s-.685-.168-.993-.3v-1.554c.35.2.7.3 1.2.414.438.1.8.2 1.2.2.683 0 1.024-.198 1.024-.592 0-.148-.045-.27-.136-.36-.09-.094-.245-.198-.468-.315-.222-.117-.518-.254-.89-.41-.53-.222-.918-.428-1.167-.617-.25-.19-.43-.406-.543-.65s-.17-.547-.17-.905c0-.612.238-1.086.713-1.422.475-.334 1.147-.502 2.02-.502.83 0 1.6.2 2.4.5l-.567 1.358c-.345-.148-.668-.27-.97-.364-.298-.094-.605-.142-.917-.142-.555 0-.832.15-.832.5 0 .2.1.3.3.438.18.1.6.3 1.2.55.538.2.9.4 1.2.6.25.2.4.4.6.653-.038.177-.008.477-.008.853z"/>
    </g>
</svg>
