<svg xmlns="http://www.w3.org/2000/svg" width="20" height="20" viewBox="0 0 20.506 20">
    <path fill-rule="evenodd" clip-rule="evenodd" fill="#181616" d="M10.253 0C4.59 0 0 4.6 0 10.254c0 4.5 2.9 8.4 7 9.7.512.1.7-.223.7-.494 0-.243-.01-.89-.014-1.745-2.853.62-3.454-1.374-3.454-1.374-.466-1.183-1.14-1.5-1.14-1.5-.93-.635.072-.622.072-.622 1.03.1 1.6 1.1 1.6 1.1.915 1.6 2.4 1.1 3 .852.093-.663.358-1.115.65-1.37-2.276-.26-4.67-1.14-4.67-5.068 0-1.12.4-2.035 1.057-2.75-.138-.282-.5-1.282.1-2.73 0 0 .86-.276 2.8 1.1.818-.228 1.695-.34 2.567-.345.872 0 1.7.1 2.6.345 1.958-1.327 2.817-1.05 2.817-1.05.56 1.4.2 2.5.1 2.712.657.7 1.1 1.6 1.1 2.75 0 3.94-2.397 4.807-4.682 5.1.368.3.7.9.7 1.9 0 1.37-.013 2.476-.013 2.812 0 .3.2.6.7.5 4.07-1.358 7.005-5.2 7.005-9.728C20.505 4.6 15.9 0 10.3 0z"/>
</svg>
