<svg xmlns="http://www.w3.org/2000/svg" xmlns:xlink="http://www.w3.org/1999/xlink" version="1.1" id="Layer_1" x="0px" y="0px" width="20px" height="20px" viewBox="0 0 20.506 20" enable-background="new 0 0 20.506 20" xml:space="preserve">
<path fill-rule="evenodd" clip-rule="evenodd" fill="#181616" d="M10.253 0C4.591 0 0 4.6 0 10.254c0 4.5 2.9 8.4 7 9.7 c0.512 0.1 0.7-0.223 0.7-0.494c0-0.243-0.009-0.889-0.014-1.745c-2.853 0.62-3.454-1.374-3.454-1.374 c-0.466-1.184-1.139-1.5-1.139-1.5c-0.931-0.636 0.071-0.623 0.071-0.623c1.029 0.1 1.6 1.1 1.6 1.1 c0.915 1.6 2.4 1.1 3 0.852c0.093-0.663 0.358-1.115 0.651-1.371c-2.277-0.259-4.67-1.138-4.67-5.067 c0-1.119 0.4-2.035 1.056-2.751C4.662 6.7 4.3 5.7 4.9 4.252c0 0 0.861-0.276 2.8 1.1 c0.818-0.228 1.695-0.341 2.567-0.345c0.872 0 1.7 0.1 2.6 0.345c1.958-1.327 2.817-1.051 2.817-1.051 c0.56 1.4 0.2 2.5 0.1 2.713c0.657 0.7 1.1 1.6 1.1 2.751c0 3.939-2.397 4.806-4.682 5.1 c0.368 0.3 0.7 0.9 0.7 1.899c0 1.37-0.013 2.476-0.013 2.812c0 0.3 0.2 0.6 0.7 0.5 c4.071-1.358 7.006-5.199 7.006-9.728C20.506 4.6 15.9 0 10.3 0z"/>
</svg>
