<svg xmlns="http://www.w3.org/2000/svg" width="20.766" height="16" viewBox="451.883 302.699 20.766 16">
    <path d="M466.097 302.7H452.53c-.357 0-.646.29-.646.646v14.706c0 .4.3.6.6.646h13.567l6.553-8.047-6.506-7.95zm-6.22 13.103c-3.3 0-4.41-.15-4.41-.15s.166-2.843 1.37-3.315c1.206-.473 1.468-.38 1.886-.633.01-.006-.042-.024-.03-.03l.1-.5c-.4-.352-.72-.88-.907-1.485-.217-.232-.343-.506-.343-.8 0-.2.06-.393.167-.57.07-1.48 1.014-2.58 2.17-2.58l.06-.03c1.156 0 2 1.1 2.1 2.6.108.2.2.4.2.57 0 .293-.126.567-.343.8-.187.604-.507 1.133-.908 1.483l.155.5c.002 0 0 0 0 0 .418.3.7.2 1.9.663 1.205.5 1.3 3.3 1.3 3.3s-1.165.174-4.445.177z"/>
</svg>
