<svg xmlns="http://www.w3.org/2000/svg" width="160.963" height="28" viewBox="0 0 160.963 28">
    <path d="M46.222 18.937c.21.4.5.7.8.984.35.3.8.4 1.2.6.47.1 1 .2 1.5.183.34 0 .705-.028 1.093-.086.39-.056.753-.166 1.094-.328.34-.163.622-.385.85-.67.226-.282.34-.643.34-1.08 0-.47-.15-.852-.45-1.143-.3-.292-.693-.535-1.18-.73-.485-.193-1.036-.363-1.652-.51-.615-.145-1.24-.307-1.87-.485-.65-.162-1.28-.36-1.897-.596-.615-.234-1.166-.538-1.65-.91-.487-.374-.88-.84-1.18-1.398-.3-.56-.45-1.236-.45-2.03 0-.89.19-1.665.57-2.32.38-.657.88-1.203 1.496-1.64.615-.438 1.312-.762 2.09-.973.777-.21 1.555-.316 2.332-.316.907 0 1.8.1 2.6.3.834.2 1.6.5 2.2.983.648.5 1.2 1 1.5 1.738.38.7.6 1.6.6 2.565H52.54c-.033-.52-.142-.948-.328-1.288-.187-.34-.434-.607-.74-.802-.31-.195-.66-.332-1.058-.413-.397-.08-.83-.122-1.3-.122-.308 0-.616.032-.923.097-.307.065-.586.18-.837.3-.25.162-.458.365-.62.607-.163.244-.243.55-.243.924 0 .3.1.6.2.8.13.2.4.4.8.584.38.2.9.4 1.6.534.672.2 1.6.4 2.6.7.324.1.8.2 1.3.353.575.2 1.1.4 1.7.812.567.4 1.1.9 1.5 1.5.413.6.6 1.4.6 2.394 0 .794-.154 1.53-.462 2.21-.308.68-.765 1.27-1.373 1.8-.607.495-1.36.88-2.26 1.155-.9.275-1.94.414-3.123.414-.956 0-1.883-.118-2.782-.353s-1.693-.603-2.38-1.105c-.69-.5-1.237-1.142-1.642-1.92-.405-.776-.6-1.7-.583-2.77h3.694c.026.515.12 1.015.32 1.452zM62.162 5.864V12.4h.073c.438-.73.996-1.26 1.677-1.592.68-.333 1.344-.498 1.993-.498.923 0 1.7.1 2.3.376s1.057.6 1.4 1.044c.34.4.6 1 .7 1.63.138.6.2 1.3.2 2.1v7.727h-3.45V16.09c0-1.036-.163-1.81-.487-2.32-.324-.51-.9-.765-1.725-.765-.94 0-1.62.28-2.042.8-.42.56-.63 1.48-.63 2.758v6.586h-3.45V5.863h3.442zM73.582 12.497c.356-.535.81-.964 1.36-1.288.552-.325 1.17-.555 1.86-.693.688-.137 1.38-.206 2.078-.206.632 0 1.3 0 1.9.134.648.1 1.2.3 1.8.5.535.3 1 .6 1.3 1.082.34.5.5 1.1.5 1.834v6.537c0 .6 0 1.1.1 1.6.065.5.2.9.3 1.166h-3.5c-.064-.195-.117-.394-.158-.596s-.07-.41-.084-.62c-.552.567-1.2.964-1.944 1.19-.745.228-1.507.34-2.284.34-.6 0-1.158-.072-1.677-.218s-.972-.374-1.36-.68c-.39-.31-.693-.698-.912-1.168s-.327-1.03-.327-1.677c0-.713.125-1.3.376-1.762s.574-.83.97-1.105.852-.482 1.362-.62c.51-.137 1.024-.247 1.543-.328.518-.08 1.028-.146 1.53-.195.503-.048.948-.12 1.337-.218.39-.097.696-.24.923-.425s.332-.458.316-.814c0-.373-.06-.668-.18-.887-.123-.217-.285-.388-.488-.51-.203-.12-.437-.2-.705-.242-.267-.04-.555-.06-.862-.06-.68 0-1.215.145-1.604.437-.388.29-.615.777-.68 1.457h-3.45c.103-.762.28-1.462.68-1.965zm6.816 4.872c-.22.072-.454.133-.705.2-.25.047-.515.088-.79.12-.275.033-.55.073-.826.122-.26.05-.514.114-.765.2-.25.08-.47.19-.656.328-.187.138-.336.312-.45.523-.114.21-.17.478-.17.8 0 .3.1.6.2.778.113.2.3.4.5.5.194.1.4.2.7.3.26 0 .5.1.8.072.68 0 1.207-.113 1.58-.34.372-.227.647-.498.826-.814.178-.315.287-.635.328-.96.04-.323.06-.583.06-.778v-1.288c-.23.068-.43.168-.63.237zM90.348 10.65v2.333h.05c.16-.39.38-.75.655-1.082.275-.33.592-.614.948-.85.356-.234.738-.417 1.144-.546.404-.13.826-.194 1.264-.194.226 0 .5 0 .8.122v3.208c-.162-.033-.355-.062-.582-.085-.228-.024-.445-.036-.656-.036-.633 0-1.167.104-1.604.3-.438.21-.79.498-1.057.862-.27.364-.46.79-.572 1.275s-.17 1.013-.17 1.58V23.2h-3.45V10.65h3.23zM99.778 20.2c.517.5 1.3.8 2.2.753.696 0 1.296-.174 1.8-.52.5-.35.81-.72.922-1.107h3.038c-.485 1.506-1.23 2.583-2.235 3.232-1.006.647-2.22.972-3.645.972-.99 0-1.88-.158-2.674-.475-.794-.315-1.467-.765-2.017-1.348-.552-.583-.977-1.28-1.275-2.09-.3-.81-.45-1.7-.45-2.672 0-.94.154-1.814.462-2.625.307-.81.745-1.51 1.312-2.102.566-.59 1.243-1.057 2.028-1.397.786-.34 1.656-.51 2.613-.51 1.068 0 2 .2 2.8.62.793.4 1.4 1 2 1.7.51.7.9 1.5 1.1 2.382.226.9.3 1.8.2 2.794h-9.063c.08 1.094.406 1.894.906 2.394zm3.9-6.61c-.414-.452-1.042-.68-1.884-.68-.552 0-1.01.094-1.373.28-.364.187-.655.417-.874.7s-.373.567-.462.875c-.09.308-.142.583-.158.826h5.613c-.163-.89-.44-1.59-.84-2zM116.568 5.864c2.673 0 4.7.7 6.2 2.04 1.442 1.4 2.2 3.4 2.2 6.222 0 1.458-.162 2.75-.485 3.9-.324 1.126-.827 2.074-1.507 2.844-.68.77-1.548 1.356-2.6 1.762-1.054.404-2.3.607-3.743.607h-5.953V5.863h5.888zm.194 15.406c.26 0 .584-.02.972-.062.39-.04.803-.137 1.24-.29.437-.155.87-.378 1.3-.67.43-.29.814-.687 1.153-1.19.34-.5.62-1.13.84-1.882.218-.753.326-1.665.326-2.734 0-1.037-.1-1.964-.303-2.782-.202-.817-.534-1.514-.996-2.09-.46-.574-1.057-1.012-1.787-1.312-.728-.3-1.627-.45-2.696-.45h-3.887V21.27h3.84zM129.252 10.65v2.648h.05c.5-1.02 1.116-1.773 1.846-2.26.73-.486 1.65-.712 2.77-.68v2.187c-.826 0-1.53.114-2.113.34-.584.228-1.054.56-1.41.997-.356.438-.615.968-.777 1.6-.162.624-.244 1.34-.244 2.15v5.59h-2.063V10.65h1.942zM134.745 14.356c.258-.802.647-1.498 1.166-2.09.52-.59 1.158-1.057 1.92-1.397.762-.342 1.637-.51 2.625-.51 1.004 0 1.9.2 2.6.51.753.3 1.4.8 1.9 1.4.518.6.9 1.3 1.2 2.09.26.8.4 1.7.4 2.587 0 .923-.13 1.782-.39 2.6-.26.794-.648 1.487-1.166 2.078-.52.59-1.155 1.053-1.908 1.385-.754.332-1.633.498-2.637.5-.988 0-1.863-.166-2.624-.498-.762-.332-1.4-.794-1.92-1.385-.518-.59-.907-1.284-1.165-2.078-.26-.794-.39-1.653-.39-2.576 0-.974.145-1.774.345-2.618zm2.1 4.644c.203.6.5 1.1.8 1.482.357.4.8.7 1.3.912.478.2 1 .3 1.5.3.534 0 1.04-.105 1.52-.315.477-.212.895-.516 1.25-.913.356-.397.637-.89.838-1.482.204-.59.305-1.267.305-2.03 0-.76-.1-1.437-.305-2.028-.2-.59-.48-1.09-.837-1.495-.356-.404-.774-.712-1.252-.923-.478-.21-.984-.316-1.52-.316-.534 0-1.04.105-1.518.3-.478.21-.895.52-1.252.923-.356.406-.636.903-.84 1.495-.2.592-.303 1.268-.303 2 .012.788.07 1.488.27 2.06zM151.122 10.65v1.7h.05c.34-.695.873-1.202 1.603-1.518.73-.316 1.53-.474 2.404-.474.97 0 1.8.2 2.5.535.72.4 1.3.8 1.8 1.446.477.6.8 1.3 1.1 2.1.24.8.4 1.6.4 2.526 0 .892-.12 1.734-.354 2.528-.235.793-.59 1.486-1.068 2.1-.48.592-1.078 1.058-1.8 1.397s-1.56.51-2.515.51c-.308 0-.65-.03-1.032-.097-.38-.064-.757-.17-1.13-.315-.373-.146-.724-.344-1.057-.596-.332-.25-.61-.562-.838-.936h-.05V28h-2.064V10.65h2.052zm7.423 4.46c-.154-.56-.39-1.058-.704-1.495-.315-.438-.72-.786-1.215-1.045-.493-.26-1.073-.388-1.738-.388-.695 0-1.287.138-1.773.413-.485.276-.883.636-1.19 1.1-.308.446-.53.952-.667 1.52-.14.566-.208 1.14-.208 1.725 0 .6.1 1.2.2 1.8.145.6.4 1.1.7 1.52.316.4.7.8 1.2 1.056.5.3 1.1.4 1.8.4.71 0 1.307-.138 1.784-.413s.862-.64 1.154-1.094c.292-.454.503-.973.633-1.556.13-.583.194-1.183.194-1.798.062-.656-.014-1.156-.214-1.747z"/>
    <g>
        <g fill-rule="evenodd" clip-rule="evenodd">
            <path d="M5.582 0c.64.6 1.3 1.3 1.9 1.9C4.392 5.1 2.8 9 2.7 13.468c.037 4.5 1.7 8.3 4.8 11.553-.636.636-1.272 1.273-1.912 1.9C-1.786 19.726-1.935 7.4 5.6 0z"/>
            <path d="M9.434 23.08C4.074 17.9 4.2 8.9 9.4 3.9c.638.6 1.3 1.3 1.9 1.914-2.072 2.144-3.176 4.707-3.176 7.704 0 3 1.1 5.6 3.2 7.7-.616.582-1.224 1.182-1.924 1.86z"/>
            <path d="M15.206 17.318c-.64.64-1.276 1.278-1.92 1.9-.79-.792-1.402-1.706-1.813-2.75-.65-1.652-.754-3.343-.322-5.064.39-1.557 1.246-2.87 2.134-3.724.636.6 1.3 1.3 1.9 1.917-1.025 1.062-1.58 2.34-1.58 3.84.014 1.563.596 2.763 1.596 3.88z"/>
        </g>
        <g fill-rule="evenodd" clip-rule="evenodd">
            <path d="M31.98 26.933c-.64-.638-1.276-1.275-1.912-1.912 3.103-3.217 4.733-7.056 4.77-11.555-.038-4.494-1.667-8.333-4.77-11.553C30.702 1.3 31.3.6 32 0c7.348 7.2 7.5 19.5 0 26.933z"/>
            <path d="M28.128 3.854c5.36 5.2 5.3 14.132-.004 19.2L26.21 21.14c2.073-2.144 3.177-4.707 3.177-7.704 0-2.994-1.103-5.554-3.172-7.696.64-.64 1.285-1.24 1.885-1.886z"/>
            <path d="M22.355 9.615l1.92-1.923c.79.8 1.4 1.7 1.8 2.75.652 1.7.8 3.3.3 5.064-.39 1.556-1.244 2.87-2.132 3.7-.636-.638-1.273-1.275-1.917-1.918 1.025-1.062 1.58-2.34 1.58-3.84C23.944 12 23.4 10.7 22.4 9.616z"/>
        </g>
    </g>
</svg>
