<svg xmlns="http://www.w3.org/2000/svg" xmlns:xlink="http://www.w3.org/1999/xlink" version="1.1" id="Layer_1" x="0px" y="0px" width="160.963px" height="28px" viewBox="0 0 160.963 28" enable-background="new 0 0 160.963 28" xml:space="preserve">
<g>
	<g>
		<path d="M46.222 18.937c0.21 0.4 0.5 0.7 0.8 0.984c0.349 0.3 0.8 0.4 1.2 0.6 c0.47 0.1 1 0.2 1.5 0.182c0.34 0 0.705-0.028 1.093-0.086c0.389-0.056 0.753-0.166 1.094-0.328 c0.34-0.162 0.623-0.384 0.85-0.668c0.227-0.283 0.34-0.644 0.34-1.082c0-0.469-0.15-0.851-0.449-1.142 c-0.3-0.292-0.693-0.535-1.179-0.729c-0.486-0.194-1.037-0.364-1.653-0.51c-0.615-0.146-1.239-0.308-1.871-0.486 c-0.648-0.162-1.28-0.361-1.896-0.596c-0.616-0.234-1.167-0.538-1.652-0.911c-0.486-0.373-0.879-0.838-1.179-1.397 c-0.3-0.56-0.45-1.236-0.45-2.03c0-0.89 0.19-1.665 0.571-2.321c0.38-0.656 0.878-1.202 1.495-1.64 c0.615-0.437 1.312-0.761 2.089-0.972c0.778-0.21 1.556-0.316 2.333-0.316c0.907 0 1.8 0.1 2.6 0.3 c0.834 0.2 1.6 0.5 2.2 0.984c0.648 0.5 1.2 1 1.5 1.738c0.38 0.7 0.6 1.6 0.6 2.564H52.54 c-0.033-0.519-0.142-0.948-0.328-1.288c-0.187-0.34-0.434-0.607-0.741-0.802c-0.308-0.195-0.66-0.332-1.057-0.413 c-0.397-0.081-0.831-0.122-1.3-0.122c-0.308 0-0.616 0.032-0.923 0.097c-0.308 0.065-0.587 0.179-0.838 0.3 c-0.251 0.162-0.458 0.365-0.62 0.607c-0.163 0.244-0.243 0.551-0.243 0.924c0 0.3 0.1 0.6 0.2 0.8 c0.13 0.2 0.4 0.4 0.8 0.584c0.38 0.2 0.9 0.4 1.6 0.534c0.672 0.2 1.6 0.4 2.6 0.7 c0.324 0.1 0.8 0.2 1.3 0.353c0.575 0.2 1.1 0.4 1.7 0.813c0.567 0.4 1.1 0.9 1.5 1.5 c0.413 0.6 0.6 1.4 0.6 2.394c0 0.794-0.154 1.53-0.462 2.211c-0.308 0.68-0.765 1.268-1.373 1.8 c-0.607 0.494-1.36 0.878-2.26 1.154c-0.899 0.274-1.94 0.413-3.123 0.413c-0.956 0-1.883-0.118-2.782-0.353 s-1.693-0.604-2.381-1.106c-0.689-0.501-1.236-1.142-1.641-1.919c-0.405-0.777-0.599-1.701-0.583-2.77h3.694 C45.906 18 46 18.5 46.2 18.937z"/>
		<path d="M62.162 5.864V12.4h0.073c0.438-0.729 0.996-1.26 1.677-1.592c0.68-0.333 1.344-0.498 1.993-0.498 c0.923 0 1.7 0.1 2.3 0.376s1.057 0.6 1.4 1.044c0.34 0.4 0.6 1 0.7 1.629c0.138 0.6 0.2 1.3 0.2 2.1 v7.728h-3.451v-7.096c0-1.037-0.162-1.811-0.486-2.321c-0.324-0.51-0.899-0.765-1.725-0.765c-0.94 0-1.62 0.279-2.042 0.8 c-0.421 0.559-0.632 1.479-0.632 2.758v6.586h-3.45V5.864H62.162z"/>
		<path d="M73.582 12.497c0.356-0.535 0.81-0.964 1.361-1.288c0.551-0.324 1.17-0.554 1.859-0.692 c0.688-0.137 1.381-0.206 2.078-0.206c0.632 0 1.3 0 1.9 0.133c0.648 0.1 1.2 0.3 1.8 0.5 c0.535 0.3 1 0.6 1.3 1.082c0.34 0.5 0.5 1.1 0.5 1.834v6.537c0 0.6 0 1.1 0.1 1.6 c0.065 0.5 0.2 0.9 0.3 1.166h-3.5c-0.064-0.195-0.117-0.394-0.158-0.596s-0.069-0.409-0.084-0.619 c-0.552 0.566-1.2 0.963-1.944 1.19c-0.745 0.227-1.507 0.34-2.284 0.34c-0.6 0-1.158-0.073-1.677-0.219s-0.972-0.373-1.361-0.68 c-0.389-0.309-0.692-0.697-0.911-1.167s-0.328-1.029-0.328-1.677c0-0.713 0.125-1.3 0.376-1.762s0.575-0.83 0.972-1.105 s0.851-0.482 1.361-0.62c0.51-0.137 1.024-0.247 1.543-0.328c0.518-0.081 1.028-0.146 1.531-0.195 c0.502-0.048 0.947-0.121 1.336-0.218c0.389-0.097 0.696-0.239 0.923-0.425s0.332-0.458 0.316-0.814 c0-0.373-0.061-0.668-0.182-0.887c-0.122-0.218-0.284-0.389-0.487-0.51c-0.203-0.122-0.437-0.202-0.705-0.243 c-0.267-0.041-0.555-0.061-0.862-0.061c-0.681 0-1.215 0.146-1.604 0.438c-0.389 0.291-0.616 0.777-0.681 1.457h-3.451 C73.023 13.7 73.2 13 73.6 12.497z M80.398 17.369c-0.219 0.073-0.454 0.134-0.705 0.2 c-0.251 0.048-0.515 0.089-0.79 0.121c-0.275 0.033-0.551 0.073-0.826 0.122c-0.259 0.049-0.514 0.114-0.765 0.2 c-0.251 0.081-0.47 0.19-0.656 0.328c-0.187 0.138-0.336 0.312-0.45 0.523c-0.114 0.21-0.17 0.478-0.17 0.8 c0 0.3 0.1 0.6 0.2 0.778c0.113 0.2 0.3 0.4 0.5 0.498c0.194 0.1 0.4 0.2 0.7 0.3 c0.259 0 0.5 0.1 0.8 0.073c0.681 0 1.207-0.113 1.58-0.341c0.372-0.226 0.647-0.497 0.826-0.813 c0.178-0.315 0.287-0.635 0.328-0.96c0.041-0.323 0.061-0.583 0.061-0.778v-1.288C80.799 17.2 80.6 17.3 80.4 17.369z"/>
		<path d="M90.348 10.65v2.333h0.049c0.162-0.389 0.381-0.749 0.656-1.082c0.275-0.332 0.592-0.615 0.948-0.851 c0.355-0.234 0.737-0.417 1.143-0.546c0.404-0.13 0.826-0.194 1.264-0.194c0.226 0 0.5 0 0.8 0.122v3.208 c-0.162-0.033-0.355-0.062-0.582-0.085c-0.228-0.024-0.445-0.036-0.656-0.036c-0.633 0-1.167 0.105-1.604 0.3 c-0.438 0.211-0.789 0.499-1.057 0.863c-0.268 0.364-0.458 0.79-0.571 1.275s-0.169 1.013-0.169 1.58v5.662h-3.452V10.65H90.348z"/>
		<path d="M99.778 20.2c0.517 0.5 1.3 0.8 2.2 0.753c0.696 0 1.296-0.174 1.799-0.521c0.502-0.349 0.81-0.718 0.923-1.106 h3.038c-0.485 1.506-1.231 2.583-2.235 3.232c-1.006 0.647-2.221 0.972-3.645 0.972c-0.989 0-1.88-0.158-2.674-0.475 c-0.794-0.315-1.467-0.765-2.017-1.348c-0.552-0.583-0.977-1.28-1.275-2.09c-0.301-0.809-0.45-1.701-0.45-2.672 c0-0.94 0.154-1.814 0.462-2.625c0.307-0.81 0.745-1.51 1.312-2.102c0.566-0.591 1.243-1.057 2.028-1.397 c0.786-0.34 1.656-0.51 2.613-0.51c1.068 0 2 0.2 2.8 0.619c0.793 0.4 1.4 1 2 1.7 c0.511 0.7 0.9 1.5 1.1 2.382c0.226 0.9 0.3 1.8 0.2 2.794h-9.063C98.975 18.9 99.3 19.7 99.8 20.2z M103.677 13.591c-0.413-0.453-1.041-0.68-1.883-0.68c-0.552 0-1.009 0.093-1.373 0.279c-0.365 0.187-0.656 0.417-0.875 0.7 s-0.373 0.567-0.462 0.875c-0.089 0.308-0.142 0.583-0.158 0.826h5.613C104.377 14.7 104.1 14 103.7 13.591z"/>
		<path d="M116.568 5.864c2.673 0 4.7 0.7 6.2 2.041c1.442 1.4 2.2 3.4 2.2 6.221c0 1.458-0.162 2.75-0.485 3.9 c-0.324 1.126-0.827 2.074-1.507 2.844c-0.681 0.77-1.548 1.356-2.601 1.762c-1.053 0.404-2.3 0.607-3.742 0.607h-5.953V5.864 H116.568z M116.762 21.27c0.26 0 0.584-0.021 0.972-0.062c0.39-0.039 0.803-0.137 1.24-0.291c0.437-0.154 0.87-0.377 1.301-0.668 c0.429-0.291 0.813-0.688 1.152-1.19c0.341-0.502 0.621-1.13 0.839-1.883c0.219-0.753 0.327-1.665 0.327-2.734 c0-1.037-0.1-1.964-0.303-2.782c-0.202-0.817-0.534-1.514-0.996-2.09c-0.461-0.574-1.057-1.012-1.787-1.312 c-0.728-0.3-1.627-0.45-2.696-0.45h-3.888V21.27H116.762z"/>
		<path d="M129.252 10.65v2.648h0.049c0.501-1.02 1.117-1.773 1.847-2.259c0.729-0.487 1.651-0.713 2.77-0.681v2.187 c-0.826 0-1.531 0.114-2.113 0.341c-0.584 0.227-1.054 0.559-1.409 0.996c-0.357 0.438-0.616 0.968-0.778 1.6 c-0.162 0.624-0.244 1.341-0.244 2.15v5.59h-2.063V10.65H129.252z"/>
		<path d="M134.745 14.356c0.258-0.802 0.647-1.498 1.166-2.09c0.518-0.591 1.157-1.057 1.92-1.397 c0.761-0.341 1.636-0.51 2.624-0.51c1.004 0 1.9 0.2 2.6 0.51c0.753 0.3 1.4 0.8 1.9 1.4 c0.518 0.6 0.9 1.3 1.2 2.09c0.259 0.8 0.4 1.7 0.4 2.588c0 0.923-0.13 1.782-0.389 2.6 c-0.26 0.794-0.649 1.487-1.167 2.078c-0.519 0.591-1.154 1.053-1.907 1.385c-0.754 0.332-1.633 0.498-2.637 0.5 c-0.988 0-1.863-0.166-2.624-0.498c-0.763-0.332-1.402-0.794-1.92-1.385c-0.519-0.591-0.908-1.284-1.166-2.078 c-0.26-0.793-0.39-1.652-0.39-2.575C134.355 16 134.5 15.2 134.7 14.356z M136.845 19 c0.203 0.6 0.5 1.1 0.8 1.482c0.357 0.4 0.8 0.7 1.3 0.912c0.478 0.2 1 0.3 1.5 0.3 c0.534 0 1.041-0.105 1.519-0.315c0.478-0.211 0.896-0.515 1.252-0.912c0.355-0.397 0.636-0.891 0.837-1.482 c0.204-0.591 0.305-1.267 0.305-2.029c0-0.761-0.101-1.438-0.305-2.029c-0.201-0.591-0.481-1.089-0.837-1.495 c-0.356-0.404-0.774-0.712-1.252-0.923c-0.478-0.21-0.984-0.315-1.519-0.315c-0.535 0-1.041 0.105-1.519 0.3 c-0.478 0.211-0.895 0.519-1.252 0.923c-0.356 0.406-0.636 0.903-0.839 1.495c-0.202 0.592-0.304 1.268-0.304 2 C136.542 17.7 136.6 18.4 136.8 18.973z"/>
		<path d="M151.122 10.65v1.701h0.049c0.341-0.696 0.874-1.203 1.604-1.519c0.729-0.316 1.53-0.474 2.404-0.474 c0.972 0 1.8 0.2 2.5 0.535c0.721 0.4 1.3 0.8 1.8 1.446c0.478 0.6 0.8 1.3 1.1 2.1 c0.242 0.8 0.4 1.6 0.4 2.527c0 0.892-0.118 1.734-0.353 2.528c-0.235 0.793-0.591 1.486-1.068 2.1 c-0.479 0.592-1.078 1.058-1.799 1.397s-1.561 0.51-2.516 0.51c-0.308 0-0.651-0.032-1.032-0.098 c-0.382-0.064-0.758-0.169-1.131-0.315c-0.373-0.146-0.724-0.344-1.057-0.596c-0.332-0.25-0.61-0.562-0.838-0.936h-0.049V28 h-2.065V10.65H151.122z M158.545 15.109c-0.154-0.559-0.389-1.057-0.704-1.494c-0.316-0.438-0.722-0.786-1.216-1.045 c-0.493-0.259-1.073-0.388-1.738-0.388c-0.695 0-1.287 0.138-1.773 0.413c-0.485 0.276-0.883 0.636-1.189 1.1 c-0.309 0.446-0.531 0.952-0.668 1.519c-0.139 0.567-0.208 1.142-0.208 1.726c0 0.6 0.1 1.2 0.2 1.8 c0.146 0.6 0.4 1.1 0.7 1.519c0.317 0.4 0.7 0.8 1.2 1.057c0.501 0.3 1.1 0.4 1.8 0.4 c0.712 0 1.308-0.138 1.785-0.413s0.862-0.64 1.154-1.094c0.292-0.453 0.503-0.972 0.633-1.555 c0.128-0.583 0.193-1.183 0.193-1.798C158.776 16.2 158.7 15.7 158.5 15.109z"/>
	</g>
	<g>
		<g>
			<g>
				<path fill-rule="evenodd" clip-rule="evenodd" d="M5.582 0c0.639 0.6 1.3 1.3 1.9 1.9 C4.391 5.1 2.8 9 2.7 13.468c0.037 4.5 1.7 8.3 4.8 11.553c-0.636 0.635-1.272 1.272-1.912 1.9 C-1.786 19.725-1.935 7.4 5.6 0z"/>
				<path fill-rule="evenodd" clip-rule="evenodd" d="M9.434 23.079C4.074 17.9 4.2 8.9 9.4 3.9 c0.638 0.6 1.3 1.3 1.9 1.914c-2.072 2.144-3.176 4.707-3.176 7.704c0.001 3 1.1 5.6 3.2 7.7 C10.708 21.8 10.1 22.4 9.4 23.079z"/>
				<path fill-rule="evenodd" clip-rule="evenodd" d="M15.206 17.318c-0.641 0.641-1.276 1.278-1.921 1.9 c-0.789-0.792-1.401-1.706-1.812-2.75c-0.651-1.652-0.754-3.343-0.322-5.064c0.39-1.557 1.245-2.869 2.133-3.724 c0.636 0.6 1.3 1.3 1.9 1.917c-1.025 1.062-1.579 2.341-1.581 3.839C13.618 15 14.2 16.2 15.2 17.318z"/>
			</g>
		</g>
		<g>
			<g>
				<path fill-rule="evenodd" clip-rule="evenodd" d="M31.98 26.933c-0.639-0.638-1.276-1.275-1.912-1.912 c3.103-3.218 4.733-7.057 4.769-11.556c-0.037-4.494-1.666-8.333-4.77-11.553C30.703 1.3 31.3 0.6 32 0 C39.348 7.2 39.5 19.5 32 26.933z"/>
				<path fill-rule="evenodd" clip-rule="evenodd" d="M28.128 3.854c5.36 5.2 5.3 14.132-0.004 19.2 c-0.638-0.638-1.275-1.275-1.913-1.914c2.072-2.144 3.176-4.707 3.176-7.704c-0.001-2.994-1.103-5.554-3.172-7.696 C26.854 5.1 27.5 4.5 28.1 3.854z"/>
				<path fill-rule="evenodd" clip-rule="evenodd" d="M22.355 9.615c0.641-0.641 1.276-1.278 1.921-1.923 c0.79 0.8 1.4 1.7 1.8 2.75c0.651 1.7 0.8 3.3 0.3 5.064c-0.39 1.556-1.245 2.869-2.133 3.7 c-0.636-0.638-1.273-1.275-1.917-1.918c1.025-1.062 1.579-2.341 1.581-3.839C23.943 12 23.4 10.7 22.4 9.615z"/>
			</g>
		</g>
	</g>
</g>
</svg>
