<svg enable-background="new 0 0 160.963 28" fill="#c9d1d9" height="28" viewBox="0 0 160.963 28" width="160.963" xmlns="http://www.w3.org/2000/svg"><path d="m46.222 18.937c.21.4.5.7.8.984.349.3.8.4 1.2.6.47.1 1 .2 1.5.182.34 0 .705-.028 1.093-.086.389-.056.753-.166 1.094-.328.34-.162.623-.384.85-.668.227-.283.34-.644.34-1.082 0-.469-.15-.851-.449-1.142-.3-.292-.693-.535-1.179-.729s-1.037-.364-1.653-.51c-.615-.146-1.239-.308-1.871-.486-.648-.162-1.28-.361-1.896-.596-.616-.234-1.167-.538-1.652-.911-.486-.373-.879-.838-1.179-1.397-.3-.56-.45-1.236-.45-2.03 0-.89.19-1.665.571-2.321.38-.656.878-1.202 1.495-1.64.615-.437 1.312-.761 2.089-.972.778-.21 1.556-.316 2.333-.316.907 0 1.8.1 2.6.3.834.2 1.6.5 2.2.984.648.5 1.2 1 1.5 1.738.38.7.6 1.6.6 2.564h-3.618c-.033-.519-.142-.948-.328-1.288-.187-.34-.434-.607-.741-.802-.308-.195-.66-.332-1.057-.413s-.831-.122-1.3-.122c-.308 0-.616.032-.923.097-.308.065-.587.179-.838.3-.251.162-.458.365-.62.607-.163.244-.243.551-.243.924 0 .3.1.6.2.8.13.2.4.4.8.584.38.2.9.4 1.6.534.672.2 1.6.4 2.6.7.324.1.8.2 1.3.353.575.2 1.1.4 1.7.813.567.4 1.1.9 1.5 1.5.413.6.6 1.4.6 2.394 0 .794-.154 1.53-.462 2.211-.308.68-.765 1.268-1.373 1.8-.607.494-1.36.878-2.26 1.154-.899.274-1.94.413-3.123.413-.956 0-1.883-.118-2.782-.353s-1.693-.604-2.381-1.106c-.689-.501-1.236-1.142-1.641-1.919s-.599-1.701-.583-2.77h3.694c.027.514.121 1.014.321 1.451z"/><path d="m62.162 5.864v6.536h.073c.438-.729.996-1.26 1.677-1.592.68-.333 1.344-.498 1.993-.498.923 0 1.7.1 2.3.376s1.057.6 1.4 1.044c.34.4.6 1 .7 1.629.138.6.2 1.3.2 2.1v7.728h-3.451v-7.096c0-1.037-.162-1.811-.486-2.321s-.899-.765-1.725-.765c-.94 0-1.62.279-2.042.8-.421.559-.632 1.479-.632 2.758v6.586h-3.45v-17.285z"/><path d="m73.582 12.497c.356-.535.81-.964 1.361-1.288s1.17-.554 1.859-.692c.688-.137 1.381-.206 2.078-.206.632 0 1.3 0 1.9.133.648.1 1.2.3 1.8.5.535.3 1 .6 1.3 1.082.34.5.5 1.1.5 1.834v6.537c0 .6 0 1.1.1 1.6.065.5.2.9.3 1.166h-3.5c-.064-.195-.117-.394-.158-.596s-.069-.409-.084-.619c-.552.566-1.2.963-1.944 1.19-.745.227-1.507.34-2.284.34-.6 0-1.158-.073-1.677-.219s-.972-.373-1.361-.68c-.389-.309-.692-.697-.911-1.167s-.328-1.029-.328-1.677c0-.713.125-1.3.376-1.762s.575-.83.972-1.105.851-.482 1.361-.62c.51-.137 1.024-.247 1.543-.328.518-.081 1.028-.146 1.531-.195.502-.048.947-.121 1.336-.218s.696-.239.923-.425.332-.458.316-.814c0-.373-.061-.668-.182-.887-.122-.218-.284-.389-.487-.51-.203-.122-.437-.202-.705-.243-.267-.041-.555-.061-.862-.061-.681 0-1.215.146-1.604.438-.389.291-.616.777-.681 1.457h-3.451c.104-.762.281-1.462.681-1.965zm6.816 4.872c-.219.073-.454.134-.705.2-.251.048-.515.089-.79.121-.275.033-.551.073-.826.122-.259.049-.514.114-.765.2-.251.081-.47.19-.656.328-.187.138-.336.312-.45.523-.114.21-.17.478-.17.8 0 .3.1.6.2.778.113.2.3.4.5.498.194.1.4.2.7.3.259 0 .5.1.8.073.681 0 1.207-.113 1.58-.341.372-.226.647-.497.826-.813.178-.315.287-.635.328-.96.041-.323.061-.583.061-.778v-1.288c-.232.068-.431.168-.631.237z"/><path d="m90.348 10.65v2.333h.049c.162-.389.381-.749.656-1.082.275-.332.592-.615.948-.851.355-.234.737-.417 1.143-.546.404-.13.826-.194 1.264-.194.226 0 .5 0 .8.122v3.208c-.162-.033-.355-.062-.582-.085-.228-.024-.445-.036-.656-.036-.633 0-1.167.105-1.604.3-.438.211-.789.499-1.057.863s-.458.79-.571 1.275-.169 1.013-.169 1.58v5.662h-3.452v-12.549z"/><path d="m99.778 20.2c.517.5 1.3.8 2.2.753.696 0 1.296-.174 1.799-.521.502-.349.81-.718.923-1.106h3.038c-.485 1.506-1.231 2.583-2.235 3.232-1.006.647-2.221.972-3.645.972-.989 0-1.88-.158-2.674-.475-.794-.315-1.467-.765-2.017-1.348-.552-.583-.977-1.28-1.275-2.09-.301-.809-.45-1.701-.45-2.672 0-.94.154-1.814.462-2.625.307-.81.745-1.51 1.312-2.102.566-.591 1.243-1.057 2.028-1.397.786-.34 1.656-.51 2.613-.51 1.068 0 2 .2 2.8.619.793.4 1.4 1 2 1.7.511.7.9 1.5 1.1 2.382.226.9.3 1.8.2 2.794h-9.063c.081 1.094.406 1.894.906 2.394zm3.899-6.609c-.413-.453-1.041-.68-1.883-.68-.552 0-1.009.093-1.373.279-.365.187-.656.417-.875.7s-.373.567-.462.875-.142.583-.158.826h5.613c-.162-.891-.439-1.591-.839-2z"/><path d="m116.568 5.864c2.673 0 4.7.7 6.2 2.041 1.442 1.4 2.2 3.4 2.2 6.221 0 1.458-.162 2.75-.485 3.9-.324 1.126-.827 2.074-1.507 2.844-.681.77-1.548 1.356-2.601 1.762-1.053.404-2.3.607-3.742.607h-5.953v-17.375zm.194 15.406c.26 0 .584-.021.972-.062.39-.039.803-.137 1.24-.291s.87-.377 1.301-.668c.429-.291.813-.688 1.152-1.19.341-.502.621-1.13.839-1.883.219-.753.327-1.665.327-2.734 0-1.037-.1-1.964-.303-2.782-.202-.817-.534-1.514-.996-2.09-.461-.574-1.057-1.012-1.787-1.312-.728-.3-1.627-.45-2.696-.45h-3.888v13.462z"/><path d="m129.252 10.65v2.648h.049c.501-1.02 1.117-1.773 1.847-2.259.729-.487 1.651-.713 2.77-.681v2.187c-.826 0-1.531.114-2.113.341-.584.227-1.054.559-1.409.996-.357.438-.616.968-.778 1.6-.162.624-.244 1.341-.244 2.15v5.59h-2.063v-12.572z"/><path d="m134.745 14.356c.258-.802.647-1.498 1.166-2.09.518-.591 1.157-1.057 1.92-1.397.761-.341 1.636-.51 2.624-.51 1.004 0 1.9.2 2.6.51.753.3 1.4.8 1.9 1.4.518.6.9 1.3 1.2 2.09.259.8.4 1.7.4 2.588 0 .923-.13 1.782-.389 2.6-.26.794-.649 1.487-1.167 2.078-.519.591-1.154 1.053-1.907 1.385-.754.332-1.633.498-2.637.5-.988 0-1.863-.166-2.624-.498-.763-.332-1.402-.794-1.92-1.385-.519-.591-.908-1.284-1.166-2.078-.26-.793-.39-1.652-.39-2.575 0-.974.145-1.774.345-2.618zm2.1 4.644c.203.6.5 1.1.8 1.482.357.4.8.7 1.3.912.478.2 1 .3 1.5.3.534 0 1.041-.105 1.519-.315.478-.211.896-.515 1.252-.912.355-.397.636-.891.837-1.482.204-.591.305-1.267.305-2.029 0-.761-.101-1.438-.305-2.029-.201-.591-.481-1.089-.837-1.495-.356-.404-.774-.712-1.252-.923-.478-.21-.984-.315-1.519-.315s-1.041.105-1.519.3c-.478.211-.895.519-1.252.923-.356.406-.636.903-.839 1.495-.202.592-.304 1.268-.304 2 .011.788.069 1.488.269 2.061z"/><path d="m151.122 10.65v1.701h.049c.341-.696.874-1.203 1.604-1.519.729-.316 1.53-.474 2.404-.474.972 0 1.8.2 2.5.535.721.4 1.3.8 1.8 1.446.478.6.8 1.3 1.1 2.1.242.8.4 1.6.4 2.527 0 .892-.118 1.734-.353 2.528-.235.793-.591 1.486-1.068 2.1-.479.592-1.078 1.058-1.799 1.397s-1.561.51-2.516.51c-.308 0-.651-.032-1.032-.098-.382-.064-.758-.169-1.131-.315s-.724-.344-1.057-.596c-.332-.25-.61-.562-.838-.936h-.049v6.444h-2.065v-17.35zm7.423 4.459c-.154-.559-.389-1.057-.704-1.494-.316-.438-.722-.786-1.216-1.045-.493-.259-1.073-.388-1.738-.388-.695 0-1.287.138-1.773.413-.485.276-.883.636-1.189 1.1-.309.446-.531.952-.668 1.519-.139.567-.208 1.142-.208 1.726 0 .6.1 1.2.2 1.8.146.6.4 1.1.7 1.519.317.4.7.8 1.2 1.057.501.3 1.1.4 1.8.4.712 0 1.308-.138 1.785-.413s.862-.64 1.154-1.094c.292-.453.503-.972.633-1.555.128-.583.193-1.183.193-1.798.062-.656-.014-1.156-.214-1.747z"/><g clip-rule="evenodd" fill-rule="evenodd"><path d="m5.582 0c.639.6 1.3 1.3 1.9 1.9-3.091 3.2-4.682 7.1-4.782 11.568.037 4.5 1.7 8.3 4.8 11.553-.636.635-1.272 1.272-1.912 1.9-7.374-7.196-7.523-19.521.012-26.921z"/><path d="m9.434 23.079c-5.36-5.179-5.234-14.179-.034-19.179.638.6 1.3 1.3 1.9 1.914-2.072 2.144-3.176 4.707-3.176 7.704.001 3 1.1 5.6 3.2 7.7-.616.582-1.224 1.182-1.924 1.861z"/><path d="m15.206 17.318c-.641.641-1.276 1.278-1.921 1.9-.789-.792-1.401-1.706-1.812-2.75-.651-1.652-.754-3.343-.322-5.064.39-1.557 1.245-2.869 2.133-3.724.636.6 1.3 1.3 1.9 1.917-1.025 1.062-1.579 2.341-1.581 3.839.015 1.564.597 2.764 1.597 3.882z"/><path d="m31.98 26.933c-.639-.638-1.276-1.275-1.912-1.912 3.103-3.218 4.733-7.057 4.769-11.556-.037-4.494-1.666-8.333-4.77-11.553.636-.612 1.233-1.312 1.933-1.912 7.348 7.2 7.5 19.5 0 26.933z"/><path d="m28.128 3.854c5.36 5.2 5.3 14.132-.004 19.2-.638-.638-1.275-1.275-1.913-1.914 2.072-2.144 3.176-4.707 3.176-7.704-.001-2.994-1.103-5.554-3.172-7.696.639-.64 1.285-1.24 1.885-1.886z"/><path d="m22.355 9.615c.641-.641 1.276-1.278 1.921-1.923.79.8 1.4 1.7 1.8 2.75.651 1.7.8 3.3.3 5.064-.39 1.556-1.245 2.869-2.133 3.7-.636-.638-1.273-1.275-1.917-1.918 1.025-1.062 1.579-2.341 1.581-3.839.036-1.449-.507-2.749-1.507-3.834z"/></g></svg>