<svg viewBox="164.266 189.699 31.149 24">
  <path fill="#3F3F3F" d="M185.587,189.699h-20.351c-0.536,0-0.97,0.435-0.97,0.971v22.059c0,0.536,0.434,0.97,0.97,0.97h20.351
    l9.828-12.071L185.587,189.699z M176.258,209.354c-4.953,0-6.618-0.225-6.618-0.225s0.25-4.265,2.058-4.974
    c1.808-0.709,2.2-0.571,2.828-0.949c0.015-0.009-0.062-0.036-0.046-0.045l0.151-0.752c-0.602-0.526-1.081-1.318-1.361-2.226
    c-0.326-0.348-0.515-0.759-0.515-1.2c0-0.301,0.09-0.589,0.25-0.854c0.107-2.22,1.52-3.872,3.253-3.872l0.091-0.045
    c1.734,0,3.064,1.697,3.17,3.917c0.162,0.265,0.251,0.553,0.251,0.854c0,0.441-0.189,0.852-0.515,1.2
    c-0.28,0.908-0.76,1.7-1.361,2.226l0.233,0.796c0.004,0.002,0.008,0.005,0,0c0.628,0.378,1.02,0.286,2.828,0.995
    c1.808,0.708,1.93,4.928,1.93,4.928S181.211,209.354,176.258,209.354z"/>
</svg>
