<svg xmlns="http://www.w3.org/2000/svg" xmlns:xlink="http://www.w3.org/1999/xlink" version="1.1" id="Layer_1" x="0px" y="0px" width="20.766px" height="16px" viewBox="451.883 302.699 20.766 16" enable-background="new 451.883 302.699 20.766 16" xml:space="preserve">
<path d="M466.097 302.699H452.53c-0.357 0-0.646 0.29-0.646 0.647v14.706c0 0.4 0.3 0.6 0.6 0.646h13.567l6.552-8.047 L466.097 302.699z M459.878 315.803c-3.302 0-4.412-0.15-4.412-0.15s0.167-2.843 1.372-3.315c1.205-0.473 1.467-0.381 1.885-0.633 c0.01-0.006-0.042-0.024-0.031-0.03l0.101-0.501c-0.401-0.351-0.721-0.879-0.907-1.484c-0.217-0.232-0.343-0.506-0.343-0.8 c0-0.201 0.06-0.393 0.167-0.569c0.071-1.48 1.014-2.581 2.169-2.581l0.061-0.03c1.156 0 2 1.1 2.1 2.6 c0.108 0.2 0.2 0.4 0.2 0.569c0 0.294-0.126 0.568-0.343 0.8c-0.187 0.605-0.507 1.134-0.908 1.484l0.156 0.5 c0.002 0 0 0 0 0c0.418 0.3 0.7 0.2 1.9 0.663c1.205 0.5 1.3 3.3 1.3 3.3 S463.18 315.8 459.9 315.803z"/>
</svg>
